<svg xmlns="http://www.w3.org/2000/svg" width="36.581" height="36.581" viewBox="0 0 36.581 36.581">
  <path id="Path_715" data-name="Path 715" d="M18.29,0,16.271,8.165,11.288,1.389,12.558,9.7l-7.2-4.348,4.348,7.2L1.39,11.288l6.775,4.983L0,18.29l8.165,2.018L1.39,25.292l8.316-1.271-4.349,7.2,7.2-4.348L11.287,35.19l4.984-6.775L18.29,36.58l2.019-8.165,4.983,6.775-1.271-8.316,7.2,4.349-4.348-7.2,8.316,1.271-6.776-4.985,8.166-2.018-8.166-2.019,6.776-4.983-8.316,1.271,4.348-7.2L24.023,9.7l1.27-8.316L20.309,8.165Z" transform="translate(0 0)" fill="#f29697"/>
</svg>
