<svg xmlns="http://www.w3.org/2000/svg" xmlns:xlink="http://www.w3.org/1999/xlink" width="19.725" height="36" viewBox="0 0 19.725 36">
  <defs>
    <clipPath id="clip-path">
      <rect id="Rectangle_18" data-name="Rectangle 18" width="19.725" height="36" fill="none"/>
    </clipPath>
  </defs>
  <g id="Group_538" data-name="Group 538" transform="translate(-7922 -326)">
    <g id="Group_537" data-name="Group 537" transform="translate(7922 326)">
      <g id="Group_536" data-name="Group 536">
        <g id="Group_534" data-name="Group 534" clip-path="url(#clip-path)">
          <path id="Path_710" data-name="Path 710" d="M19.725,100.789H0V89.256a9.863,9.863,0,1,1,19.725,0Z" transform="translate(0 -64.789)" fill="#2d1026"/>
          <path id="Path_711" data-name="Path 711" d="M34.606,107.769l-2.378.92a3.905,3.905,0,0,0-2.234,2.234l-.92,2.378-.92-2.378a3.905,3.905,0,0,0-2.234-2.234l-2.378-.92,2.378-.92a3.905,3.905,0,0,0,2.234-2.234l.92-2.378.92,2.378a3.905,3.905,0,0,0,2.234,2.234Z" transform="translate(-19.212 -83.431)" fill="#fff"/>
          <path id="Path_712" data-name="Path 712" d="M31.731,6.37A6.369,6.369,0,1,1,25.362,0,6.369,6.369,0,0,1,31.731,6.37" transform="translate(-15.499 -0.001)" fill="#f29697"/>
        </g>
      </g>
    </g>
  </g>
</svg>
