<svg xmlns="http://www.w3.org/2000/svg" xmlns:xlink="http://www.w3.org/1999/xlink" width="215.538" height="259.217" viewBox="0 0 215.538 259.217">
  <defs>
    <filter id="Path_365" x="0" y="0" width="215.538" height="259.217" filterUnits="userSpaceOnUse">
      <feOffset dy="10" input="SourceAlpha"/>
      <feGaussianBlur stdDeviation="5" result="blur"/>
      <feFlood flood-opacity="0.251"/>
      <feComposite operator="in" in2="blur"/>
      <feComposite in="SourceGraphic"/>
    </filter>
  </defs>
  <g id="Group_546" data-name="Group 546" transform="translate(-256.596 -242.01)">
    <g id="Group_219" data-name="Group 219">
      <g transform="matrix(1, 0, 0, 1, 256.6, 242.01)" filter="url(#Path_365)">
        <path id="Path_365-2" data-name="Path 365" d="M362.431,474.117c-5,.837-8.78,1.438-9.361,1.53-.117.018-.318.047-.436.057-.22.023-5.487.523-13.038.523-13.127,0-31.057-1.51-43.374-8.529H277.5a5.9,5.9,0,0,1-5.9-5.9V339.779a92.769,92.769,0,1,1,185.538,0V461.8a5.9,5.9,0,0,1-5.9,5.9h-58.16c-1.516.513-2.835.937-3.934,1.262-.235.07-.511.146-.8.224l-1.06.272c-.274.067-.926.22-.926.22-.657.152-1.381.311-2.157.476l-2.072.427c-5.761,1.161-13.507,2.5-18.991,3.421l-.6.1" transform="translate(-256.6 -242.01)" fill="#fff"/>
      </g>
    </g>
    <g id="Group_305" data-name="Group 305">
      <g id="Group_220" data-name="Group 220">
        <path id="Rectangle_15" data-name="Rectangle 15" d="M86.869,0h0a86.869,86.869,0,0,1,86.869,86.869V208.888a0,0,0,0,1,0,0H0a0,0,0,0,1,0,0V86.869A86.869,86.869,0,0,1,86.869,0Z" transform="translate(277.496 252.909)" fill="#0a889c"/>
      </g>
      <g id="Group_221" data-name="Group 221">
        <path id="Path_366" data-name="Path 366" d="M336.242,269.132a.08.08,0,0,0-.011.086c.015.026.045.036.089.031a2.756,2.756,0,0,1,1.446.288,2.318,2.318,0,0,1,.976.963,2.43,2.43,0,0,1,.326,1.153,2.385,2.385,0,0,1-.228,1.052,3.22,3.22,0,0,1-.618.88,3.7,3.7,0,0,1-.854.649l-2.072,1.132a3.553,3.553,0,0,0-.445.287c-.146.11-.291.212-.431.308a.453.453,0,0,1-.409.087.522.522,0,0,1-.342-.269.506.506,0,0,1-.036-.422.459.459,0,0,1,.294-.3c.085-.036.172-.072.259-.105s.171-.067.25-.1l.023-.013c.051-.028.061-.072.029-.131l-3.529-6.451c-.031-.059-.075-.074-.126-.046a1.237,1.237,0,0,0-.239.173,1.032,1.032,0,0,1-.226.167.454.454,0,0,1-.382.03.537.537,0,0,1-.343-.68.452.452,0,0,1,.293-.3l.374-.147c.131-.052.258-.107.38-.165l1.934-1.042a3.7,3.7,0,0,1,1.33-.467,2.554,2.554,0,0,1,1.079.081,2.357,2.357,0,0,1,.812.44,2.209,2.209,0,0,1,.52.62,1.907,1.907,0,0,1,.247,1.124A2.618,2.618,0,0,1,336.242,269.132Zm-.723-1.746a1.313,1.313,0,0,0-.887-.643,2.215,2.215,0,0,0-1.546.352l-1.157.633a.1.1,0,0,0-.046.156l1.347,2.461a.1.1,0,0,0,.155.046l.958-.524a2.928,2.928,0,0,0,1.281-1.258A1.414,1.414,0,0,0,335.519,267.386ZM333.83,271.2a.1.1,0,0,0-.045.154l1.517,2.774a.1.1,0,0,0,.154.046l1.449-.792a2.546,2.546,0,0,0,.943-.791,1.5,1.5,0,0,0,.264-.854,1.682,1.682,0,0,0-.206-.784,1.871,1.871,0,0,0-.39-.489,1.313,1.313,0,0,0-.622-.3,2.111,2.111,0,0,0-.925.042,5.261,5.261,0,0,0-1.3.54Z" fill="#2d1026"/>
        <path id="Path_367" data-name="Path 367" d="M348.124,268.74a.441.441,0,0,1,.394-.011.5.5,0,0,1,.277.292.471.471,0,0,1-.024.395.494.494,0,0,1-.3.254c-.035,0-.17.035-.4.1a6.3,6.3,0,0,0-.662.2.882.882,0,0,1-.872-.126l-3.127-2.31a.142.142,0,0,0-.157-.023l-1.538.568a.1.1,0,0,0-.067.146l.928,2.514a.1.1,0,0,0,.147.066c.105-.057.211-.107.314-.156s.207-.093.307-.141a.423.423,0,0,1,.39-.007.49.49,0,0,1,.269.293.476.476,0,0,1-.017.391.467.467,0,0,1-.3.253c-.239.06-.446.118-.621.168s-.342.108-.5.165-.321.126-.488.2-.36.166-.581.276a.493.493,0,0,1-.4,0,.464.464,0,0,1-.274-.284.474.474,0,0,1,.013-.384.493.493,0,0,1,.28-.252,1.757,1.757,0,0,1,.213-.064l.24-.062.024-.009c.056-.021.072-.063.049-.127l-2.551-6.908c-.024-.064-.064-.085-.12-.065a1.283,1.283,0,0,0-.223.11,1.218,1.218,0,0,1-.223.11.464.464,0,0,1-.38-.023.489.489,0,0,1-.261-.282.5.5,0,0,1,.024-.428.492.492,0,0,1,.333-.258c.167-.035.342-.074.523-.12a4.82,4.82,0,0,0,.512-.154l2.184-.793a4.065,4.065,0,0,1,2.635-.2,2.789,2.789,0,0,1,1.594,3.492,3.2,3.2,0,0,1-1.228,1.387c-.08.048-.084.1-.01.153l2.7,2.007a.155.155,0,0,0,.17.018c.132-.058.269-.12.412-.186S348,268.8,348.124,268.74Zm-6.215-5.649-1.8.663a.1.1,0,0,0-.068.147l1.184,3.2a.1.1,0,0,0,.146.067l1.8-.663a3.081,3.081,0,0,0,1.49-1,1.556,1.556,0,0,0,.108-1.522,1.688,1.688,0,0,0-.684-.918,1.736,1.736,0,0,0-1.006-.231A3.986,3.986,0,0,0,341.909,263.091Z" fill="#2d1026"/>
        <path id="Path_368" data-name="Path 368" d="M355.17,265.671a.544.544,0,0,1,.406.075.454.454,0,0,1,.217.351l.146,1.06a.768.768,0,0,1-.125.577.747.747,0,0,1-.488.331l-4.4.929a3.271,3.271,0,0,0-.47.139c-.156.059-.307.112-.452.161a.47.47,0,0,1-.429-.034.524.524,0,0,1-.251-.354.5.5,0,0,1,.086-.422.486.486,0,0,1,.381-.2l.294-.023.024-.005a.09.09,0,0,0,.078-.121l-1.509-7.143c-.017-.074-.057-.1-.123-.09a.61.61,0,0,0-.186.072.635.635,0,0,1-.186.071.48.48,0,0,1-.381-.082.507.507,0,0,1-.224-.324.52.52,0,0,1,.085-.425.473.473,0,0,1,.379-.2c.169-.019.345-.033.529-.047a3.811,3.811,0,0,0,.511-.068l4.322-.913a.754.754,0,0,1,.581.1.772.772,0,0,1,.348.478l.3,1.027a.456.456,0,0,1-.051.4.52.52,0,0,1-.346.24.5.5,0,0,1-.392-.071.488.488,0,0,1-.222-.317c-.025-.117-.044-.239-.059-.371s-.032-.264-.052-.4l-.005-.025c-.012-.059-.051-.08-.118-.067l-3.627.768a.1.1,0,0,0-.088.135l.572,2.708a.1.1,0,0,0,.136.088l3.118-.659a.469.469,0,0,1,.364.065.476.476,0,0,1,.208.307.443.443,0,0,1-.067.358.482.482,0,0,1-.308.2l-3.119.659a.1.1,0,0,0-.088.135l.651,3.081a.1.1,0,0,0,.137.088l3.627-.767c.082-.016.107-.061.075-.132-.038-.14-.076-.272-.117-.4s-.07-.242-.093-.35a.481.481,0,0,1,.075-.387A.51.51,0,0,1,355.17,265.671Z" fill="#2d1026"/>
        <path id="Path_369" data-name="Path 369" d="M366.851,266.278a.44.44,0,0,1,.38.109.5.5,0,0,1,.176.361.5.5,0,0,1-.509.518q-.726-.039-1.171-.019a11.155,11.155,0,0,0-1.163.132.469.469,0,0,1-.374-.115.48.48,0,0,1-.169-.355.5.5,0,0,1,.134-.374.425.425,0,0,1,.362-.145c.093,0,.188.007.286.011s.2.008.3.011h.026c.083,0,.1-.047.056-.129l-.743-1.452a.131.131,0,0,0-.13-.083l-4.465.214a.148.148,0,0,0-.123.1l-.6,1.515a.144.144,0,0,0-.01.065c0,.042.028.062.079.059a2.55,2.55,0,0,0,.31-.033c.1-.019.2-.034.3-.046a.422.422,0,0,1,.374.109.506.506,0,0,1,.17.359.489.489,0,0,1-.136.371.475.475,0,0,1-.361.15c-.492-.027-.883-.035-1.17-.021a10.429,10.429,0,0,0-1.163.133.5.5,0,0,1-.382-.116.472.472,0,0,1-.175-.354.488.488,0,0,1,.141-.375.44.44,0,0,1,.369-.145,3.045,3.045,0,0,0,.47.016l.025,0a.14.14,0,0,0,.111-.081l3.31-8.408a.389.389,0,0,1,.368-.259.383.383,0,0,1,.38.222l4.11,8.055a.135.135,0,0,0,.143.07A3.1,3.1,0,0,0,366.851,266.278Zm-4.935-6.437c-.011-.051-.038-.075-.08-.072-.026,0-.05.027-.072.079l-1.588,4.041a.145.145,0,0,0-.01.052c0,.06.038.086.107.084l3.525-.17c.1,0,.129-.051.082-.142Z" fill="#2d1026"/>
        <path id="Path_370" data-name="Path 370" d="M374.273,260.676a.45.45,0,0,1-.165.369.518.518,0,0,1-.4.13.52.52,0,0,1-.471-.588l.15-.994c.006-.076-.024-.116-.091-.123l-2-.174a.1.1,0,0,0-.124.105l-.629,7.248c-.006.067.02.1.08.108a2.872,2.872,0,0,0,.337.01c.114,0,.222,0,.325,0a.426.426,0,0,1,.356.158.5.5,0,0,1,.12.38.491.491,0,0,1-.561.436c-.242-.047-.435-.081-.577-.1s-.261-.038-.353-.05-.194-.023-.3-.032-.224-.019-.316-.022l-.344-.01c-.135,0-.327,0-.573,0a.472.472,0,0,1-.35-.164.463.463,0,0,1-.128-.362.493.493,0,0,1,.19-.353.426.426,0,0,1,.372-.1c.092.017.192.035.3.051l.327.054.025,0c.059,0,.091-.027.1-.094l.629-7.249a.1.1,0,0,0-.1-.124l-2.011-.174c-.068-.005-.1.029-.112.105l-.023,1.006a.448.448,0,0,1-.166.367.517.517,0,0,1-.4.131.52.52,0,0,1-.472-.589c.034-.192.069-.4.106-.629s.069-.452.1-.68a.815.815,0,0,1,.294-.522.752.752,0,0,1,.557-.168l5.628.489a.732.732,0,0,1,.518.268.781.781,0,0,1,.188.558q0,.344-.009.688C374.287,260.271,374.281,260.482,374.273,260.676Z" fill="#2d1026"/>
        <path id="Path_371" data-name="Path 371" d="M382.555,268.989a.432.432,0,0,1,.33.212.5.5,0,0,1,.061.392.49.49,0,0,1-.621.361c-.226-.08-.431-.149-.618-.207s-.369-.109-.55-.152c-.165-.04-.337-.074-.517-.105s-.381-.057-.6-.085a.5.5,0,0,1-.391-.6.5.5,0,0,1,.241-.321.428.428,0,0,1,.381-.039c.1.035.215.069.327.105s.226.076.337.12a.1.1,0,0,0,.139-.084l.77-3.21a.1.1,0,0,0-.086-.138l-4.568-1.1a.1.1,0,0,0-.138.085l-.769,3.21a.1.1,0,0,0,.084.138c.119.011.237.026.355.046l.339.055a.426.426,0,0,1,.329.209.506.506,0,0,1,.061.394.481.481,0,0,1-.232.317.476.476,0,0,1-.389.044c-.225-.081-.43-.149-.616-.208s-.371-.107-.552-.151c-.165-.04-.337-.074-.517-.1s-.38-.06-.6-.086a.5.5,0,0,1-.39-.6.494.494,0,0,1,.241-.322.425.425,0,0,1,.381-.039,2.429,2.429,0,0,0,.422.141l.025.006c.058.014.1-.012.111-.079l1.726-7.2c.02-.082-.009-.124-.088-.126a2.8,2.8,0,0,0-.44-.066.465.465,0,0,1-.32-.214.471.471,0,0,1-.071-.389.5.5,0,0,1,.241-.321.425.425,0,0,1,.381-.039c.233.082.441.152.622.208s.365.108.545.151.337.074.517.1.38.058.6.085a.428.428,0,0,1,.329.21.5.5,0,0,1,.062.393.484.484,0,0,1-.232.317.465.465,0,0,1-.389.042c-.1-.041-.212-.08-.326-.117s-.225-.07-.339-.106a.1.1,0,0,0-.138.084l-.685,2.852a.1.1,0,0,0,.085.139l4.569,1.094a.1.1,0,0,0,.137-.083l.685-2.852a.1.1,0,0,0-.085-.138l-.351-.058c-.117-.02-.231-.035-.343-.044a.477.477,0,0,1-.321-.214.482.482,0,0,1-.07-.389.5.5,0,0,1,.241-.321.427.427,0,0,1,.382-.039c.232.082.44.152.622.209s.365.106.545.15.336.075.517.105.38.058.6.084a.427.427,0,0,1,.329.21.507.507,0,0,1,.062.393.485.485,0,0,1-.232.317.475.475,0,0,1-.39.044,2.257,2.257,0,0,0-.423-.14l-.025-.007c-.057-.014-.094.011-.11.078l-1.728,7.2a.091.091,0,0,0,.076.123A2.634,2.634,0,0,0,382.555,268.989Z" fill="#2d1026"/>
        <path id="Path_372" data-name="Path 372" d="M390.625,270.6a.531.531,0,0,1,.292.293.445.445,0,0,1-.02.412l-.477.956a.777.777,0,0,1-.429.406.751.751,0,0,1-.59,0l-4.154-1.715a3.148,3.148,0,0,0-.467-.151c-.161-.04-.317-.081-.463-.124a.47.47,0,0,1-.336-.268.522.522,0,0,1,0-.436.5.5,0,0,1,.309-.3.477.477,0,0,1,.424.052l.256.146.023.012a.09.09,0,0,0,.132-.056l2.787-6.748c.03-.071.013-.119-.05-.145a.6.6,0,0,0-.194-.045.626.626,0,0,1-.194-.047.479.479,0,0,1-.269-.283.512.512,0,0,1,0-.392.53.53,0,0,1,.312-.3.472.472,0,0,1,.427.047q.225.121.463.259a3.549,3.549,0,0,0,.46.232l4.085,1.686a.76.76,0,0,1,.419.414.779.779,0,0,1,.018.592l-.337,1.014a.451.451,0,0,1-.269.3.523.523,0,0,1-.421.006.512.512,0,0,1-.282-.281.487.487,0,0,1-.005-.387,3.539,3.539,0,0,1,.16-.339c.062-.118.123-.237.183-.359l.009-.023c.023-.054,0-.1-.06-.121l-3.426-1.414a.1.1,0,0,0-.15.061l-1.057,2.558a.1.1,0,0,0,.062.15l2.946,1.216a.478.478,0,0,1,.262.631.447.447,0,0,1-.258.257.48.48,0,0,1-.368-.007l-2.945-1.217a.1.1,0,0,0-.149.062l-1.2,2.91a.1.1,0,0,0,.061.15l3.428,1.415c.077.033.123.01.137-.067.048-.136.09-.267.129-.394a3.438,3.438,0,0,1,.12-.341.475.475,0,0,1,.279-.276A.509.509,0,0,1,390.625,270.6Z" fill="#2d1026"/>
      </g>
      <g id="Group_230" data-name="Group 230">
        <g id="Group_225" data-name="Group 225">
          <g id="Group_222" data-name="Group 222">
            <path id="Path_373" data-name="Path 373" d="M416.024,388.975s-11.377-31.889-5.9-33.535S416.024,388.975,416.024,388.975Z" fill="#f0c59b"/>
          </g>
          <g id="Group_223" data-name="Group 223">
            <path id="Path_374" data-name="Path 374" d="M420.481,390.7s24.692-23.166,28.387-18.8S420.481,390.7,420.481,390.7Z" fill="#f0c59b"/>
          </g>
          <g id="Group_224" data-name="Group 224">
            <path id="Path_375" data-name="Path 375" d="M417.146,389.134s12.364-39.5,18.919-37.078S417.146,389.134,417.146,389.134Z" fill="#f0c59b"/>
          </g>
        </g>
        <g id="Group_229" data-name="Group 229">
          <g id="Group_226" data-name="Group 226">
            <path id="Path_376" data-name="Path 376" d="M312.472,390.983s11.377-31.889,5.9-33.534S312.472,390.983,312.472,390.983Z" fill="#f0c59b"/>
          </g>
          <g id="Group_227" data-name="Group 227">
            <path id="Path_377" data-name="Path 377" d="M308.015,392.708s-24.692-23.167-28.387-18.8S308.015,392.708,308.015,392.708Z" fill="#f0c59b"/>
          </g>
          <g id="Group_228" data-name="Group 228">
            <path id="Path_378" data-name="Path 378" d="M311.35,391.142s-12.364-39.5-18.919-37.077S311.35,391.142,311.35,391.142Z" fill="#f0c59b"/>
          </g>
        </g>
      </g>
      <g id="Group_231" data-name="Group 231">
        <path id="Path_379" data-name="Path 379" d="M341.495,297.633a6.4,6.4,0,0,0-2.669,3.583,8.615,8.615,0,0,0-.252,5.2,5.83,5.83,0,0,0,3.37,3.83,3.881,3.881,0,0,1,1.857.955,4.853,4.853,0,0,1,.525,1.267,4.073,4.073,0,0,0,2.756,2.3,8.11,8.11,0,0,0,3.693.005c4.7-.9,9.121-4.253,10.306-8.893a11.829,11.829,0,0,0-1.8-9.384,11.315,11.315,0,0,0-8.646-5.125,8.583,8.583,0,0,0-8.285,5.168" fill="#f0c59b"/>
      </g>
      <g id="Group_289" data-name="Group 289">
        <g id="Group_232" data-name="Group 232">
          <path id="Path_380" data-name="Path 380" d="M407.547,456.026s-13.3,5.271-20.08,7.277-35.4,6.529-35.4,6.529S297.579,475.1,288.8,451.257c-8.605-23.345,40.258-43.317,42.352-44.172a.287.287,0,0,0,.069-.02l-.757-7.729L324.2,335.005s20.08-9.784,23.345-12.3c.964-.738,1.5-2.3,1.809-4.15a45.469,45.469,0,0,0-.029-10.433l5.516.009,11.289.01h1.505l.059,1.013.481,8.526.138,2.4.069,1.121,20.591,9.037-.432,68.156-.069,10.178.737.009,21.86.246s28.616.5,32.382,20.336S407.547,456.026,407.547,456.026Z" fill="#ffa3a3"/>
        </g>
        <g id="Group_233" data-name="Group 233">
          <path id="Path_381" data-name="Path 381" d="M368.311,320.078a17.56,17.56,0,0,1-14.957-8.24l.286-1.5a3.834,3.834,0,0,1,1.2-2.213l11.289.01a11.879,11.879,0,0,1,1.564,1.013Z" fill="#ff7373"/>
        </g>
        <g id="Group_288" data-name="Group 288">
          <g id="Group_240" data-name="Group 240">
            <g id="Group_234" data-name="Group 234">
              <path id="Path_382" data-name="Path 382" d="M407.547,456.026l-.04.02c-.786.3-13.481,5.31-20.04,7.257-2.655.786-8.664,1.957-14.986,3.087-9.824,1.77-20.415,3.442-20.415,3.442S297.579,475.1,288.8,451.257c-8.605-23.345,40.258-43.317,42.352-44.172a.287.287,0,0,0,.069-.02l-.757-7.729,58.077-.944-.069,10.178.737.009,21.86.246s28.616.5,32.382,20.336S407.547,456.026,407.547,456.026Z" fill="#2d1026"/>
            </g>
            <g id="Group_239" data-name="Group 239">
              <g id="Group_235" data-name="Group 235">
                <path id="Path_383" data-name="Path 383" d="M362.231,456.776l3.013-18.955s-3.808-.8-4.812-1.8-4.771-1.757-9.374.335c-2.913,1.324-33.894.586-34.145,2.343s12.428,9.164,23.726,12.679A207.6,207.6,0,0,0,362.231,456.776Z" fill="#ffa3a3"/>
              </g>
              <g id="Group_236" data-name="Group 236">
                <path id="Path_384" data-name="Path 384" d="M407.547,456.026l-.04.02c-.786.3-13.481,5.31-20.04,7.257-2.655.786-8.664,1.957-14.986,3.087l.546-8.233s2.885.249,11.293.121S407.547,456.026,407.547,456.026Z" fill="#ffa3a3"/>
              </g>
              <g id="Group_237" data-name="Group 237">
                <path id="Path_385" data-name="Path 385" d="M365.363,437.915a.246.246,0,0,1-.023-.491,28.557,28.557,0,0,0,9.555-3.124c4.424-2.144,8.752-4.657,12.938-7.088l.784-.455a50.887,50.887,0,0,1,6.751-3.466,32.145,32.145,0,0,1,8.368-1.953,39.807,39.807,0,0,1,13.561.785.246.246,0,0,1-.114.478,39.313,39.313,0,0,0-13.394-.773,31.665,31.665,0,0,0-8.242,1.92,50.683,50.683,0,0,0-6.683,3.433l-.784.457c-4.194,2.434-8.53,4.952-12.971,7.1a28.973,28.973,0,0,1-9.722,3.172Z" fill="#f29697"/>
              </g>
              <g id="Group_238" data-name="Group 238">
                <path id="Path_386" data-name="Path 386" d="M379.733,458.73a136.071,136.071,0,0,1-17.542-1.711.245.245,0,0,1-.2-.283.25.25,0,0,1,.282-.2c.13.021,12.979,2.124,19.776,1.631,6.822-.5,25.289-2.364,25.475-2.383a.246.246,0,0,1,.05.49c-.186.018-18.66,1.886-25.489,2.382C381.36,458.706,380.569,458.73,379.733,458.73Z" fill="#f29697"/>
              </g>
            </g>
          </g>
          <g id="Group_256" data-name="Group 256">
            <g id="Group_241" data-name="Group 241">
              <path id="Path_387" data-name="Path 387" d="M360.089,274a23.807,23.807,0,0,1,7.611-2.678,12.35,12.35,0,0,1,5.169.05,6.353,6.353,0,0,1,4.068,3.009,10.144,10.144,0,0,1,.68,5.232,5.65,5.65,0,0,1,6,1.237,7.178,7.178,0,0,1,1.959,5.96,9.914,9.914,0,0,1-2.911,5.68,9.431,9.431,0,0,1,3.718,10.091,11.081,11.081,0,0,1-7.881,7.617,10.412,10.412,0,0,1-5.344.032,11.553,11.553,0,0,1-3.962-2.053,24.609,24.609,0,0,1-6.325-8.1c-3.822-7.124-6.132-15.306-5.038-23.316" fill="#f0c59b"/>
            </g>
            <g id="Group_255" data-name="Group 255">
              <g id="Group_253" data-name="Group 253">
                <g id="Group_242" data-name="Group 242">
                  <path id="Path_388" data-name="Path 388" d="M379.548,299.345c-.093,3.625.2,10.007-3.8,12.816-7.867,5.524-25.944,1-25.944,1a19.437,19.437,0,0,0-.48-5.049c.048.513-4.317.412-4.741.309a6.885,6.885,0,0,1-3.524-2.054,5.648,5.648,0,0,1-.107-7.546,4.365,4.365,0,0,1,5.856-.856.7.7,0,0,1,.259.41,36.327,36.327,0,0,1-.779-7.256,15.843,15.843,0,0,1,13.261-14.734,25.486,25.486,0,0,1,3.415-.353c.335-.019.658-.03.99-.022.155,0,.312.01.468.015a1.441,1.441,0,0,1,.188.008c.052,0,.1.009.157.011.182.009.365.018.547.033a14.388,14.388,0,0,1,11.093,6.378,19.291,19.291,0,0,1,2.836,8.113A53.814,53.814,0,0,1,379.548,299.345Z" fill="#ffa3a3"/>
                </g>
                <g id="Group_251" data-name="Group 251">
                  <g id="Group_243" data-name="Group 243">
                    <path id="Path_389" data-name="Path 389" d="M359.389,298.934a6.627,6.627,0,0,1-3.487-.994.484.484,0,0,1,.512-.822,5.6,5.6,0,0,0,6.566-.462.484.484,0,0,1,.622.741,6.629,6.629,0,0,1-3.762,1.522C359.69,298.93,359.539,298.934,359.389,298.934Z" fill="#2d1026"/>
                  </g>
                  <g id="Group_244" data-name="Group 244">
                    <path id="Path_390" data-name="Path 390" d="M373.614,297.238a4.126,4.126,0,0,1-2.609-.932.484.484,0,1,1,.617-.745,3.1,3.1,0,0,0,4.614-.768.483.483,0,1,1,.824.506,4.112,4.112,0,0,1-2.8,1.886A4.03,4.03,0,0,1,373.614,297.238Z" fill="#2d1026"/>
                  </g>
                  <g id="Group_245" data-name="Group 245">
                    <path id="Path_391" data-name="Path 391" d="M371.008,291.332a.938.938,0,0,0,.513.847,2.439,2.439,0,0,0,1.009.246,14.129,14.129,0,0,0,2.4-.006c1.726-.151,1.318-2.3-.074-2.636C373.883,289.55,371.113,290.135,371.008,291.332Z" fill="#f0c59b"/>
                  </g>
                  <g id="Group_250" data-name="Group 250">
                    <g id="Group_248" data-name="Group 248">
                      <g id="Group_246" data-name="Group 246">
                        <path id="Path_392" data-name="Path 392" d="M368.727,301.456a.161.161,0,0,1-.045-.316,2.565,2.565,0,0,0,1.421-1.006,1.994,1.994,0,0,0,.268-1.669,3.091,3.091,0,0,0-.343-.7,9.332,9.332,0,0,0-1.1-1.439.169.169,0,0,1-.04-.08l-.331-1.756a.162.162,0,0,1,.129-.188.159.159,0,0,1,.188.129l.322,1.71A9.632,9.632,0,0,1,370.3,297.6a3.285,3.285,0,0,1,.377.773,2.321,2.321,0,0,1-.307,1.942,2.845,2.845,0,0,1-1.6,1.137A.145.145,0,0,1,368.727,301.456Z" fill="#2d1026"/>
                      </g>
                      <g id="Group_247" data-name="Group 247">
                        <path id="Path_393" data-name="Path 393" d="M367.659,301.442a.163.163,0,0,1-.158-.128.5.5,0,0,0-.942-.124.161.161,0,1,1-.287-.148.849.849,0,0,1,.844-.442.84.84,0,0,1,.7.647.161.161,0,0,1-.124.191A.131.131,0,0,1,367.659,301.442Z" fill="#2d1026"/>
                      </g>
                    </g>
                    <g id="Group_249" data-name="Group 249">
                      <path id="Path_394" data-name="Path 394" d="M367.394,303.646a5.083,5.083,0,0,1-.544-.03,3.988,3.988,0,0,1-2.2-.928.162.162,0,0,1,.215-.242,3.648,3.648,0,0,0,2.019.849,5.751,5.751,0,0,0,2.234-.238.16.16,0,0,1,.2.109.162.162,0,0,1-.11.2A6.531,6.531,0,0,1,367.394,303.646Z" fill="#2d1026"/>
                    </g>
                  </g>
                </g>
                <g id="Group_252" data-name="Group 252">
                  <path id="Path_395" data-name="Path 395" d="M348.606,305.994a.162.162,0,0,1-.155-.118,13.353,13.353,0,0,0-1.338-3.307,5.711,5.711,0,0,0-2.562-2.332,3.6,3.6,0,0,0-3.321.21.161.161,0,0,1-.178-.269,3.911,3.911,0,0,1,3.623-.239,6.036,6.036,0,0,1,2.713,2.461,13.644,13.644,0,0,1,1.373,3.388.16.16,0,0,1-.111.2A.131.131,0,0,1,348.606,305.994Z" fill="#2d1026"/>
                </g>
              </g>
              <g id="Group_254" data-name="Group 254">
                <path id="Path_396" data-name="Path 396" d="M345.911,297.474a11.181,11.181,0,0,1,1.577,1.567,2.553,2.553,0,0,0,2.332,1.278c1.179-.2,1.718-1.585,1.865-2.772a20.492,20.492,0,0,0-.53-6.716,7.212,7.212,0,0,0,4.775,3.818,6.1,6.1,0,0,0,5.762-1.776,7.12,7.12,0,0,0,1.647-4.327,15.8,15.8,0,0,0-.562-4.666,7.588,7.588,0,0,0,4.546,2.2,4.54,4.54,0,0,0,4.33-2.215,4.747,4.747,0,0,0-.483-4.684,9.884,9.884,0,0,0-3.78-3.1c-6.006-3.14-13.671-3.262-19.43.311a7.155,7.155,0,0,0-2.927,2.979c-.727,1.633-.414,3.518-.087,5.276a7.143,7.143,0,0,0-3.465,13.751c.271-.579.809-.731,1.413-.941A4.819,4.819,0,0,1,345.911,297.474Z" fill="#f0c59b"/>
              </g>
            </g>
          </g>
          <g id="Group_287" data-name="Group 287">
            <g id="Group_260" data-name="Group 260">
              <g id="Group_257" data-name="Group 257" transform="translate(0 -1)">
                <path id="Path_397" data-name="Path 397" d="M389.207,408.579l-.069.325-57.988-1.819a.287.287,0,0,0,.069-.02L324.9,334.377s19.378-9.156,22.643-11.673c.964-.738,1.5-2.3,1.809-4.15l18.821-.875.138,2.4.069,1.121,20.385,9.762-.295,77.609Z" fill="#fedede"/>
              </g>
              <g id="Group_258" data-name="Group 258">
                <path id="Path_398" data-name="Path 398" d="M328.546,331.745s-17.742,5.021-19.416,24.437-3.347,52.222,2.678,56.406,20.588-3.849,26.111-6.862,11.382-9.875,11.382-9.875L341.936,375.6Z" fill="#fedede"/>
              </g>
              <g id="Group_259" data-name="Group 259">
                <path id="Path_399" data-name="Path 399" d="M387.8,329.569s7.03,2.845,11.047,12.218,23.032,54.232,11.884,63.437c-12.721,10.5-39.46-15.357-39.46-15.357l8.83-16.947Z" fill="#fedede"/>
              </g>
            </g>
            <g id="Group_286" data-name="Group 286">
              <g id="Group_280" data-name="Group 280">
                <g id="Group_266" data-name="Group 266">
                  <path id="Path_404" data-name="Path 404" d="M341.518,375.681l9.164-6.151s-2.888-25.985-1.632-26.236,2.636,9.164,2.636,9.164.377-8.913,1.632-9.164,2.134,9.791,2.134,9.791.126-5.523,1.507-5.774,3.138,19.96,3.138,19.96,1.883-10.043,2.887-9.792.377,24.479-.628,26.488-13.306,12.679-13.306,12.679Z" fill="#ffa3a3"/>
                </g>
                <g id="Group_267" data-name="Group 267">
                  <path id="Path_405" data-name="Path 405" d="M385.58,375.179l-9.157-6.528s2.887-25.985,1.632-26.236-2.637,9.164-2.637,9.164-.376-8.913-1.631-9.164-2.135,9.792-2.135,9.792-.125-5.524-1.506-5.775-3.138,19.96-3.138,19.96-1.883-10.043-2.887-9.792-.377,24.479.627,26.488,13.307,12.679,13.307,12.679Z" fill="#ffa3a3"/>
                </g>
              </g>
              <g id="Group_281" data-name="Group 281">
                <path id="Path_412" data-name="Path 412" d="M321.934,389.485a.246.246,0,0,1-.139-.449l28.748-19.708a.249.249,0,0,1,.342.063.247.247,0,0,1-.064.342l-28.747,19.709A.258.258,0,0,1,321.934,389.485Z" fill="#2d1026"/>
              </g>
              <g id="Group_282" data-name="Group 282">
                <path id="Path_413" data-name="Path 413" d="M330.89,383.041h-.017a.245.245,0,0,1-.229-.261l1.925-28.79a.249.249,0,0,1,.262-.228.245.245,0,0,1,.229.261l-1.925,28.79A.246.246,0,0,1,330.89,383.041Z" fill="#2d1026"/>
              </g>
              <g id="Group_285" data-name="Group 285">
                <g id="Group_283" data-name="Group 283">
                  <path id="Path_414" data-name="Path 414" d="M396.5,383.083a.241.241,0,0,1-.142-.046l-20.079-14.185a.246.246,0,0,1,.283-.4l20.079,14.186a.246.246,0,0,1-.141.447Z" fill="#2d1026"/>
                </g>
                <g id="Group_284" data-name="Group 284">
                  <path id="Path_415" data-name="Path 415" d="M389.221,377.935a.245.245,0,0,1-.246-.238l-.753-23.725a.246.246,0,0,1,.491-.015l.754,23.725a.247.247,0,0,1-.239.253Z" fill="#2d1026"/>
                </g>
              </g>
            </g>
          </g>
        </g>
      </g>
      <g id="Group_304" data-name="Group 304">
        <g id="Group_297" data-name="Group 297">
          <path id="Path_418" data-name="Path 418" d="M441.945,400.286l-2.915,1.127a4.785,4.785,0,0,0-2.737,2.737l-1.127,2.915-1.127-2.915a4.785,4.785,0,0,0-2.737-2.737l-2.915-1.127,2.915-1.127a4.785,4.785,0,0,0,2.737-2.737l1.127-2.915,1.127,2.915a4.785,4.785,0,0,0,2.737,2.737Z" fill="#fff"/>
        </g>
        <g id="Group_298" data-name="Group 298">
          <path id="Path_419" data-name="Path 419" d="M299.841,400.286l-2.915,1.127a4.785,4.785,0,0,0-2.737,2.737l-1.127,2.915-1.127-2.915a4.784,4.784,0,0,0-2.738-2.737l-2.914-1.127,2.914-1.127a4.784,4.784,0,0,0,2.738-2.737l1.127-2.915,1.127,2.915a4.785,4.785,0,0,0,2.737,2.737Z" fill="#fff"/>
        </g>
        <g id="Group_299" data-name="Group 299">
          <path id="Path_420" data-name="Path 420" d="M431.9,453.638l-2.429.939a3.988,3.988,0,0,0-2.281,2.281l-.939,2.429-.939-2.429a3.985,3.985,0,0,0-2.281-2.281l-2.429-.939,2.429-.939a3.989,3.989,0,0,0,2.281-2.282l.939-2.428.939,2.428a3.992,3.992,0,0,0,2.281,2.282Z" fill="#fff"/>
        </g>
        <g id="Group_300" data-name="Group 300">
          <path id="Path_421" data-name="Path 421" d="M320.261,298.813l-2.429.939a3.988,3.988,0,0,0-2.281,2.281l-.939,2.429-.939-2.429a3.992,3.992,0,0,0-2.282-2.281l-2.428-.939,2.428-.939a3.992,3.992,0,0,0,2.282-2.281l.939-2.429.939,2.429a3.988,3.988,0,0,0,2.281,2.281Z" fill="#fff"/>
        </g>
        <g id="Group_301" data-name="Group 301">
          <path id="Path_422" data-name="Path 422" d="M419.725,295.591l-2.428.939a3.992,3.992,0,0,0-2.282,2.281l-.939,2.429-.939-2.429a3.988,3.988,0,0,0-2.281-2.281l-2.429-.939,2.429-.939a3.988,3.988,0,0,0,2.281-2.281l.939-2.429.939,2.429a3.992,3.992,0,0,0,2.282,2.281Z" fill="#fff"/>
        </g>
        <g id="Group_302" data-name="Group 302">
          <path id="Path_423" data-name="Path 423" d="M297,449.179l-2.429.939a3.991,3.991,0,0,0-2.281,2.281l-.939,2.429-.939-2.429a3.991,3.991,0,0,0-2.281-2.281l-2.429-.939,2.429-.939a3.991,3.991,0,0,0,2.281-2.281l.939-2.429.939,2.429a3.991,3.991,0,0,0,2.281,2.281Z" fill="#fff"/>
        </g>
        <g id="Group_303" data-name="Group 303">
          <path id="Path_424" data-name="Path 424" d="M422.2,346.409l-2.429.939a3.988,3.988,0,0,0-2.281,2.281l-.939,2.429-.939-2.429a3.988,3.988,0,0,0-2.281-2.281l-2.429-.939,2.429-.939a3.991,3.991,0,0,0,2.281-2.281l.939-2.429.939,2.429a3.991,3.991,0,0,0,2.281,2.281Z" fill="#fff"/>
        </g>
      </g>
    </g>
  </g>
</svg>
