<svg xmlns="http://www.w3.org/2000/svg" xmlns:xlink="http://www.w3.org/1999/xlink" width="675.771" height="578.866" viewBox="0 0 675.771 578.866">
  <defs>
    <filter id="Path_159" x="0" y="0" width="675.771" height="578.866" filterUnits="userSpaceOnUse">
      <feOffset dy="10" input="SourceAlpha"/>
      <feGaussianBlur stdDeviation="5" result="blur"/>
      <feFlood flood-opacity="0.251"/>
      <feComposite operator="in" in2="blur"/>
      <feComposite in="SourceGraphic"/>
    </filter>
  </defs>
  <g id="Group_66" data-name="Group 66" transform="translate(-232.649 -35.125)">
    <g transform="matrix(1, 0, 0, 1, 232.65, 35.13)" filter="url(#Path_159)">
      <path id="Path_159-2" data-name="Path 159" d="M329.148,588.991a16.122,16.122,0,0,1-16.123-16.123V419.688q-.568-.262-1.145-.516c-3.1-1.352-6.382-2.617-9.864-3.955-9.851-3.792-21.016-8.091-30.711-15.9-20.572-16.512-29.05-46.575-20.134-71.463a113.21,113.21,0,0,1,7.285-15.386,83.817,83.817,0,0,0,5.3-10.985c.038-.1.075-.21.116-.314.064-.231.134-.46.212-.685a18.445,18.445,0,0,0,.782-3.182c.6-4.143-.255-9.534-1.161-15.244-1.755-11.065-3.942-24.84,3.517-38.036,5.479-9.727,15.421-16.985,27.986-20.411.648-.172,1.2-.314,1.7-.435.492-.132.924-.228,1.29-.3a62.047,62.047,0,0,1,13.215-1.411,65.923,65.923,0,0,1,14.86,1.709q.556-1.693,1.134-3.367a71.676,71.676,0,0,1-9.013-34.908,72.459,72.459,0,0,1,72.377-72.38q2.87,0,5.729.226a266.321,266.321,0,0,1,435.1,108.747,62.129,62.129,0,0,1,11.246,1.381c.371.07.811.169,1.311.3.462.11,1.647.419,1.7.435,12.565,3.426,22.51,10.684,28,20.435,7.443,13.172,5.259,26.944,3.5,38.012-.906,5.71-1.76,11.1-1.164,15.2a18.1,18.1,0,0,0,.787,3.224c.073.218.137.435.2.658l.129.341a83.379,83.379,0,0,0,5.3,10.982,112.562,112.562,0,0,1,7.274,15.359c8.932,24.912.452,54.975-20.148,71.514-7.637,6.153-16.2,10.13-24.321,13.4V572.868A16.123,16.123,0,0,1,829.3,588.991Z" transform="translate(-232.65 -35.12)" fill="#fff"/>
    </g>
    <g id="Group_65" data-name="Group 65" transform="translate(263.832 56.248)">
      <path id="Path_160" data-name="Path 160" d="M778.17,296.213V562.746H278.021V296.213c0-8.518.43-16.956,1.263-25.259q.081-1.048.242-2.1A243.952,243.952,0,0,1,285.76,234.3a238.958,238.958,0,0,1,8.357-26.495,250.176,250.176,0,0,1,474.756,20.61q2.7,9.553,4.622,19.428c.134.591.242,1.209.349,1.827A250.5,250.5,0,0,1,778.17,296.213Z" transform="translate(-212.592 -46.125)" fill="#f29697"/>
      <g id="Group_39" data-name="Group 39" transform="translate(0 181.331)">
        <path id="Path_161" data-name="Path 161" d="M479.493,375.432c-7.712,11.259-18.407,22.437-30.767,30.042-.376.215-.752.457-1.155.672-12.522,7.443-26.656,11.071-41.032,7.39-26.011-6.691-73.68-16.9-78.3-49.577-2.687-18.836,12.791-37.27,8.384-55.784a28.457,28.457,0,0,0-3.171-7.819c-.3-.51-.591-1.021-.941-1.532-5.482-8.3-14.833-14.268-24.184-18.38-12.549-5.482-26.28-9.056-36.948-17.654-15.4-12.361-21.739-34.878-15.075-53.473,3.305-9.163,9.378-17.332,12.6-26.414a10.376,10.376,0,0,0,.43-1.29,34.5,34.5,0,0,0,1.451-6.019c2.311-15.961-7.5-33.589.43-47.615,3.735-6.637,10.8-10.775,18.192-12.791.511-.134,1.021-.269,1.5-.376a2.809,2.809,0,0,1,.457-.107c20.771-4.649,44.015,5.858,54.226,24.533,2.123,3.9,3.816,8.2,6.18,11.9.376.591.779,1.182,1.209,1.747a20.522,20.522,0,0,0,3.708,3.923c10.211,8.061,25.151,2.365,38.049,4.031a29.974,29.974,0,0,1,6.342,1.559c.43.161.86.322,1.263.484,11.232,4.622,19.8,15.719,20.637,27.892.806,11.716-4.7,22.84-7.148,34.341-2.418,11.5-.269,25.957,10.372,30.929,4.219,1.962,9,2.069,13.6,2.66a57.3,57.3,0,0,1,17.789,5.509c.4.188.806.4,1.209.618a68.317,68.317,0,0,1,33.132,40.306C499.028,328.7,493.386,355.117,479.493,375.432Z" transform="translate(-253.672 -113.607)" fill="#0a889c"/>
        <g id="Group_38" data-name="Group 38" transform="translate(15.234 1.204)">
          <g id="Group_33" data-name="Group 33" transform="translate(20.503)">
            <path id="Path_162" data-name="Path 162" d="M435.506,429.547l-1.263.457q-4.434-12.334-9.109-24.614-18.46-48.247-40.629-94.935c-.242-.484-.484-.967-.7-1.451q-27.368-57.316-60.191-111.756c-.3-.537-.618-1.075-.941-1.585q-16.2-26.8-33.723-52.828c-6.825-10.157-13.7-19.992-21.98-28.4.511-.134,1.021-.269,1.5-.376,8.088,8.33,14.86,18.03,21.6,28.026q17.856,26.562,34.368,53.957c.349.511.645,1.048.967,1.585q14.147,23.5,27.274,47.562c.161.3.322.591.484.86q27.005,49.577,49.658,101.33l.725,1.693v.027q12.011,27.529,22.733,55.623Q431.045,417.092,435.506,429.547Z" transform="translate(-266.971 -114.055)" fill="#2d1026"/>
          </g>
          <g id="Group_34" data-name="Group 34" transform="translate(0 36.33)">
            <path id="Path_163" data-name="Path 163" d="M343.42,129.322c-.591,7.121-1.4,14.188-2.2,21.174-.914,7.766-1.827,15.8-2.445,23.62l-.054.779-.43-.081-.322-.081c-.484-.107-.994-.188-1.478-.3-25.581-5.186-51.485-10.265-77.146-15.1a10.376,10.376,0,0,0,.43-1.29c25.2,4.756,50.652,9.754,75.776,14.806.591.134,1.182.242,1.773.376.054,0,.134.027.188.027.618-7.6,1.5-15.37,2.365-22.894s1.72-15.128,2.338-22.787C342.587,128.166,342.99,128.757,343.42,129.322Z" transform="translate(-259.341 -127.575)" fill="#2d1026"/>
          </g>
          <g id="Group_35" data-name="Group 35" transform="translate(106.006 47.588)">
            <path id="Path_164" data-name="Path 164" d="M326.226,132.249c-7.524,28.349-16.311,56.59-26.172,84.133l-.564-.188v-.027l-.7-.242c.081-.215.134-.4.215-.618,9.781-27.355,18.514-55.408,25.957-83.542C325.393,131.926,325.823,132.087,326.226,132.249Z" transform="translate(-298.791 -131.765)" fill="#2d1026"/>
          </g>
          <g id="Group_36" data-name="Group 36" transform="translate(63.603 184.012)">
            <path id="Path_165" data-name="Path 165" d="M357.954,193.633l-.188,1.344c-.107-.027-.215-.027-.322-.054-24.4-3.359-48.986-6.986-73.492-10.856-.3-.511-.591-1.021-.941-1.532,24.587,3.9,49.255,7.551,73.734,10.936Z" transform="translate(-283.011 -182.535)" fill="#2d1026"/>
          </g>
          <g id="Group_37" data-name="Group 37" transform="translate(155.852 149.402)">
            <path id="Path_166" data-name="Path 166" d="M351.386,170.273c-9.727,28.725-20.744,57.235-32.809,84.993v.027l-1.236-.537c.161-.4.349-.779.511-1.182,11.877-27.408,22.733-55.569,32.326-83.918C350.58,169.843,350.983,170.058,351.386,170.273Z" transform="translate(-317.341 -169.655)" fill="#2d1026"/>
          </g>
        </g>
      </g>
      <g id="Group_46" data-name="Group 46" transform="translate(372.306 181.331)">
        <path id="Path_167" data-name="Path 167" d="M407.735,375.432c7.712,11.259,18.406,22.437,30.767,30.042.376.215.752.457,1.156.672,12.522,7.443,26.656,11.071,41.032,7.39,26.011-6.691,73.68-16.9,78.3-49.577,2.687-18.836-12.791-37.27-8.384-55.784a28.463,28.463,0,0,1,3.171-7.819c.3-.51.591-1.021.941-1.532,5.482-8.3,14.833-14.268,24.184-18.38,12.549-5.482,26.28-9.056,36.948-17.654,15.4-12.361,21.739-34.878,15.075-53.473-3.305-9.163-9.378-17.332-12.6-26.414a10.4,10.4,0,0,1-.43-1.29,34.509,34.509,0,0,1-1.451-6.019c-2.311-15.961,7.5-33.589-.43-47.615-3.735-6.637-10.8-10.775-18.192-12.791-.51-.134-1.021-.269-1.5-.376a2.806,2.806,0,0,0-.457-.107c-20.771-4.649-44.015,5.858-54.226,24.533-2.123,3.9-3.816,8.2-6.18,11.9-.376.591-.779,1.182-1.209,1.747a20.526,20.526,0,0,1-3.708,3.923c-10.211,8.061-25.151,2.365-38.049,4.031a29.972,29.972,0,0,0-6.341,1.559c-.43.161-.86.322-1.263.484-11.232,4.622-19.8,15.719-20.637,27.892-.806,11.716,4.7,22.84,7.148,34.341,2.418,11.5.269,25.957-10.372,30.929-4.219,1.962-9,2.069-13.6,2.66a57.294,57.294,0,0,0-17.789,5.509c-.4.188-.806.4-1.209.618a68.317,68.317,0,0,0-33.132,40.306C388.2,328.7,393.842,355.117,407.735,375.432Z" transform="translate(-392.225 -113.607)" fill="#0a889c"/>
        <g id="Group_45" data-name="Group 45" transform="translate(36.2 1.204)">
          <g id="Group_40" data-name="Group 40" transform="translate(0.86)">
            <path id="Path_168" data-name="Path 168" d="M406.017,429.547l1.263.457q4.434-12.334,9.109-24.614,18.46-48.247,40.629-94.935c.242-.484.484-.967.7-1.451q27.368-57.316,60.191-111.756c.3-.537.618-1.075.94-1.585q16.2-26.8,33.723-52.828c6.825-10.157,13.7-19.992,21.98-28.4-.51-.134-1.021-.269-1.5-.376-8.088,8.33-14.86,18.03-21.6,28.026q-17.856,26.562-34.368,53.957c-.349.511-.645,1.048-.967,1.585q-14.148,23.5-27.274,47.562c-.161.3-.322.591-.484.86q-27.005,49.577-49.658,101.33l-.725,1.693v.027q-12.011,27.529-22.733,55.623Q410.478,417.092,406.017,429.547Z" transform="translate(-406.017 -114.055)" fill="#2d1026"/>
          </g>
          <g id="Group_41" data-name="Group 41" transform="translate(105.818 36.33)">
            <path id="Path_169" data-name="Path 169" d="M445.077,129.322c.591,7.121,1.4,14.188,2.2,21.174.914,7.766,1.827,15.8,2.445,23.62l.054.779.43-.081.322-.081c.484-.107.994-.188,1.478-.3,25.581-5.186,51.485-10.265,77.146-15.1a10.4,10.4,0,0,1-.43-1.29c-25.2,4.756-50.652,9.754-75.776,14.806-.591.134-1.182.242-1.773.376-.054,0-.134.027-.188.027-.618-7.6-1.5-15.37-2.365-22.894s-1.72-15.128-2.338-22.787C445.91,128.166,445.507,128.757,445.077,129.322Z" transform="translate(-445.077 -127.575)" fill="#2d1026"/>
          </g>
          <g id="Group_42" data-name="Group 42" transform="translate(56.456 47.588)">
            <path id="Path_170" data-name="Path 170" d="M426.707,132.249c7.524,28.349,16.311,56.59,26.172,84.133l.564-.188v-.027l.7-.242c-.081-.215-.134-.4-.215-.618-9.781-27.355-18.514-55.408-25.957-83.542C427.54,131.926,427.11,132.087,426.707,132.249Z" transform="translate(-426.707 -131.765)" fill="#2d1026"/>
          </g>
          <g id="Group_43" data-name="Group 43" transform="translate(51.35 184.012)">
            <path id="Path_171" data-name="Path 171" d="M424.807,193.633l.188,1.344c.107-.027.215-.027.322-.054,24.4-3.359,48.986-6.986,73.492-10.856.3-.511.591-1.021.941-1.532-24.587,3.9-49.254,7.551-73.734,10.936Z" transform="translate(-424.807 -182.535)" fill="#2d1026"/>
          </g>
          <g id="Group_44" data-name="Group 44" transform="translate(0 149.402)">
            <path id="Path_172" data-name="Path 172" d="M405.7,170.273c9.727,28.725,20.744,57.235,32.809,84.993v.027l1.236-.537c-.161-.4-.349-.779-.511-1.182C427.355,226.165,416.5,198,406.906,169.655,406.5,169.843,406.1,170.058,405.7,170.273Z" transform="translate(-405.697 -169.655)" fill="#2d1026"/>
          </g>
        </g>
      </g>
      <g id="Group_47" data-name="Group 47" transform="translate(59.91 61.494)">
        <circle id="Ellipse_1" data-name="Ellipse 1" cx="56.257" cy="56.257" r="56.257" transform="matrix(0.218, -0.976, 0.976, 0.218, 0, 109.818)" fill="#f0c59b"/>
        <circle id="Ellipse_2" data-name="Ellipse 2" cx="56.258" cy="56.258" r="56.258" transform="translate(322.826 100.541)" fill="#f0c59b"/>
        <path id="Path_173" data-name="Path 173" d="M394.937,265.163a55.573,55.573,0,0,1-4.917,22.975h-102.7a56.275,56.275,0,0,1,51.35-79.242,56.174,56.174,0,0,1,56.268,56.268Z" transform="translate(-265.113 166.989)" fill="#f0c59b"/>
      </g>
      <g id="Group_60" data-name="Group 60" transform="translate(140.291 38.006)">
        <path id="Path_174" data-name="Path 174" d="M654.6,277.833H310.011c.107-.215.215-.43.349-.645,2.15-3.44,5.616-5.912,7.685-9.378,5.428-9.271-1.021-21.389,1.881-31.735,2.338-8.3,10.157-13.785,17.789-17.815,7.631-4.058,15.961-7.658,21.12-14.591,6.933-9.324,6.288-22.061,5.509-33.642-1.182-17.977-1.935-36.249,2.365-53.742s14.322-34.314,30.122-42.94c11.313-6.207,24.882-7.6,37.4-9.754,25.984-4.461,57.988-7.47,79.054,11.823a44.1,44.1,0,0,1,13.839,27.623c.86,8.33-.4,17.762,4.971,24.184,6.5,7.793,18.433,6.583,28.51,7.793a49.45,49.45,0,0,1,43.209,55.274c-1.021,8.088-4,15.8-5.267,23.861-1.236,8.061-.43,17.09,5.079,23.082,6.4,6.906,16.848,7.712,25.635,11.151C641.813,253.3,651.353,264.827,654.6,277.833Z" transform="translate(-298.913 -60.269)" fill="#2d1026"/>
        <g id="Group_48" data-name="Group 48" transform="translate(0 126.31)">
          <path id="Path_175" data-name="Path 175" d="M656.144,459.58H305.881c.43-8.626,1.155-21.954,2.338-37.969.914-12.038,2.069-25.581,3.574-39.823,1.962-18.917,4.514-39.017,7.819-58.31.108-.779.242-1.532.376-2.311,3.654-21.067,8.2-41.086,13.785-57.423,5.992-17.332,13.14-30.525,21.765-36.41,9.862-6.718,20.261-13.355,30.445-19.7,5-3.117,9.942-6.153,14.752-9.109,13.973-8.6,26.763-16.418,36.3-23.028,9.835-6.852,16.149-12.388,16.606-16.069.349-2.875.591-7.416.7-12.522.027-1.129.054-2.284.081-3.439.081-4,.081-8.2.081-12.146,0-5.213-.054-9.969-.107-13.274-.027-2.848-.054-4.595-.054-4.595l7.631-.833,41.408-4.434,8.572-.914s-.215,1.8-.457,4.756v.027c-.806,10.614-1.612,36.115,8.008,47.373,4.084,4.783,16.418,11.232,31.788,19.8,3.789,2.1,7.739,4.353,11.823,6.718,6.557,3.816,13.382,8.008,20.18,12.576a216.536,216.536,0,0,1,24.533,18.863c1.935,1.72,3.789,3.493,5.616,5.32,11.232,11.1,20.449,23.781,25.447,38.237a172.457,172.457,0,0,1,5.509,20.825c.161.7.3,1.424.43,2.15,2.015,10.1,3.681,21.389,5.025,33.239.054.43.108.887.161,1.317,3.628,32.218,5.159,68.575,5.777,97.649C656.171,434.509,656.2,449.96,656.144,459.58Z" transform="translate(-305.881 -107.275)" fill="#ffa3a3"/>
          <path id="Path_176" data-name="Path 176" d="M361.131,146.336c10.318-1.4,20.556-3.735,29.343-9.324,9.835-6.261,17.735-16.2,19.7-27.7a3.994,3.994,0,0,0,0-1.693l-41.408,4.434a56.281,56.281,0,0,0-7.578,5.428Z" transform="translate(-212.669 -106.701)" fill="#ff7373"/>
        </g>
        <g id="Group_58" data-name="Group 58" transform="translate(95.553 14.474)">
          <g id="Group_57" data-name="Group 57">
            <g id="Group_55" data-name="Group 55">
              <g id="Group_54" data-name="Group 54">
                <g id="Group_53" data-name="Group 53">
                  <g id="Group_52" data-name="Group 52">
                    <path id="Path_177" data-name="Path 177" d="M343.378,153.514c1.532,12.756,6.6,37.351,25.2,45.071,26.777,11.114,81.8-10.394,81.8-10.394s1.12-5.533,2.515-13.761c0,1.827,15.359.021,16.824-.481a24.385,24.385,0,0,0,11.748-8.411c5.99-8.024,5.487-19.8-2.125-26.653-3.542-3.2-8.685-5.417-13.487-4.458-1.69.344-5.761,1.532-7.451,3.383a2.482,2.482,0,0,0-.777,1.532c.89-9.851,1.209-19.2.341-25.853-2.926-22.174-21.876-45.216-51.659-47.57a90.421,90.421,0,0,0-12.162-.113c-1.188.046-2.33.113-3.5.25-.548.046-1.1.137-1.647.207a5.448,5.448,0,0,0-.661.091c-.185.022-.368.067-.551.091-.64.091-1.279.183-1.919.3-15.91,2.768-29.33,11.864-37.009,26.175-4.869,9.1-6.857,19.223-7.314,29.555C341.092,132.9,342.166,143.526,343.378,153.514Z" transform="translate(-341.441 -65.655)" fill="#ffa3a3"/>
                    <g id="Group_51" data-name="Group 51" transform="translate(10.214 77.342)">
                      <path id="Path_178" data-name="Path 178" d="M388.342,95.17a21.564,21.564,0,0,1-25.323.588" transform="translate(-315.25 -93.203)" fill="none" stroke="#2d1026" stroke-linecap="round" stroke-linejoin="round" stroke-width="1.276"/>
                      <path id="Path_179" data-name="Path 179" d="M364.35,95.8a12.672,12.672,0,0,1-19.108-1.36" transform="translate(-345.242 -94.438)" fill="none" stroke="#2d1026" stroke-linecap="round" stroke-linejoin="round" stroke-width="1.276"/>
                      <g id="Group_50" data-name="Group 50" transform="translate(33.771 16.93)">
                        <g id="Group_49" data-name="Group 49">
                          <path id="Path_180" data-name="Path 180" d="M362.144,101.825a2.36,2.36,0,0,0-4.334.992" transform="translate(-357.81 -100.739)" fill="none" stroke="#2d1026" stroke-linecap="round" stroke-linejoin="round" stroke-width="0.425"/>
                        </g>
                      </g>
                    </g>
                    <path id="Path_181" data-name="Path 181" d="M408.077,95.725a13.34,13.34,0,0,0-12.32.36,20.67,20.67,0,0,0-8.507,9.327,47.352,47.352,0,0,0-3.673,12.256" transform="translate(-270.355 -17.188)" fill="none" stroke="#2d1026" stroke-linecap="round" stroke-linejoin="round" stroke-width="0.425"/>
                    <path id="Path_182" data-name="Path 182" d="M357.918,90.862a34.266,34.266,0,0,1-1.911,16.383c-.884,2.349-2.042,4.657-2.255,7.158s.83,5.342,3.16,6.285" transform="translate(-320.715 -23.129)" fill="none" stroke="#2d1026" stroke-linecap="round" stroke-linejoin="round" stroke-width="0.425"/>
                    <path id="Path_183" data-name="Path 183" d="M355.778,104.4a5.987,5.987,0,0,0,10.388-.712" transform="translate(-317.253 -1.496)" fill="none" stroke="#2d1026" stroke-linecap="round" stroke-linejoin="round" stroke-width="0.425"/>
                  </g>
                </g>
              </g>
            </g>
            <g id="Group_56" data-name="Group 56" transform="translate(6.714 49.504)">
              <path id="Path_184" data-name="Path 184" d="M344.618,91.271a2.206,2.206,0,0,0,1.413.255c2.273-.116,14.844-.564,13.347-5.014-1.08-3.216-8.1-2.62-10.378-1.722C347.557,85.359,342.035,89.406,344.618,91.271Z" transform="translate(-343.94 -84.078)" fill="#2d1026"/>
              <path id="Path_185" data-name="Path 185" d="M379.825,91.336a2.191,2.191,0,0,1-1.413.253c-2.273-.113-14.844-.562-13.35-5.011,1.083-3.216,8.1-2.623,10.38-1.722C376.883,85.421,382.407,89.471,379.825,91.336Z" transform="translate(-308.511 -83.971)" fill="#2d1026"/>
            </g>
          </g>
        </g>
        <g id="Group_59" data-name="Group 59" transform="translate(89.676 5.688)">
          <path id="Path_186" data-name="Path 186" d="M366.44,64.34a43.018,43.018,0,0,0,2.316,42.7c2.663,4.009,6.175,7.664,10.676,9.378,4.09,1.559,9.117,1.636,11.923,5,1.935,2.316,2.206,5.535,3,8.443,2.811,10.254,13.892,17.509,24.412,15.988.505,2.985.314,6.059.817,9.045,1.588-4.057,3.928-8.779,5.917-12.654,2.3-1.311,4.748-3.888,7.048-5.2.47-12.721-.7-25.64-4.977-37.633s-11.821-23.031-22.365-30.163S378.626,60.662,366.44,64.34Z" transform="translate(-301.127 -62.386)" fill="#2d1026"/>
          <path id="Path_187" data-name="Path 187" d="M407.8,63.473c.86,8.174-4.068,16.141-10.762,20.908s-14.905,6.852-23,8.266c-5.339.932-10.877,1.671-15.539,4.434-9.268,5.49-13.266,17.826-13.632,28.6-5.766-12.076-7.986-26.481-2.3-38.595,5.208-11.1,16.2-18.694,27.948-22.2S395.581,62.462,407.8,63.473Z" transform="translate(-339.254 -62.219)" fill="#2d1026"/>
        </g>
        <path id="Path_188" data-name="Path 188" d="M656.144,410.182H305.881c.43-8.626,1.155-21.954,2.338-37.969.914-12.038,2.069-25.581,3.574-39.823,1.962-18.917,4.514-39.017,7.819-58.31.108-.779.242-1.532.376-2.311,3.654-21.067,8.2-41.086,13.785-57.423,5.992-17.332,13.14-30.525,21.765-36.41,9.862-6.718,20.261-13.355,30.445-19.7,13.247,9.7,31.385,13.489,48.395,14.7.511.027,1.021.081,1.532.107a236.707,236.707,0,0,0,35.98-.4c26.495-2.418,52.506-9.7,74.432-23.512a110.1,110.1,0,0,0,10.587-7.416q3.184-2.459,6.207-5.159c6.557,3.816,13.382,8.008,20.18,12.576a216.536,216.536,0,0,1,24.533,18.863c1.935,1.72,3.789,3.493,5.616,5.32,11.232,11.1,20.449,23.781,25.447,38.237a172.457,172.457,0,0,1,5.509,20.825c.161.7.3,1.424.43,2.15,2.015,10.1,3.681,21.389,5.025,33.239.054.43.108.887.161,1.317,3.628,32.218,5.159,68.575,5.777,97.649C656.171,385.111,656.2,400.562,656.144,410.182Z" transform="translate(-305.881 68.433)" fill="#fedede"/>
      </g>
      <g id="Group_64" data-name="Group 64" transform="translate(108.302 58.439)">
        <path id="Path_197" data-name="Path 197" d="M445.6,85.938l-7.766,3a12.758,12.758,0,0,0-7.3,7.3l-3,7.768-3-7.768a12.758,12.758,0,0,0-7.3-7.3l-7.766-3,7.766-3a12.751,12.751,0,0,0,7.3-7.3l3-7.768,3,7.768a12.751,12.751,0,0,0,7.3,7.3Z" transform="translate(-99.128 -67.873)" fill="#fff"/>
        <path id="Path_198" data-name="Path 198" d="M354.366,85.938l-7.766,3a12.759,12.759,0,0,0-7.3,7.3l-3,7.768-3-7.768a12.758,12.758,0,0,0-7.3-7.3l-7.766-3,7.766-3a12.75,12.75,0,0,0,7.3-7.3l3-7.768,3,7.768a12.751,12.751,0,0,0,7.3,7.3Z" transform="translate(-253.049 -67.873)" fill="#fff"/>
        <path id="Path_199" data-name="Path 199" d="M473.857,124.066l-7.768,3a12.75,12.75,0,0,0-7.3,7.3l-3,7.768-3-7.768a12.751,12.751,0,0,0-7.3-7.3l-7.766-3,7.766-3a12.751,12.751,0,0,0,7.3-7.3l3-7.766,3,7.766a12.75,12.75,0,0,0,7.3,7.3Z" transform="translate(-51.459 -3.547)" fill="#fff"/>
        <path id="Path_200" data-name="Path 200" d="M478.282,216.494l-7.766,3a12.751,12.751,0,0,0-7.3,7.3l-3,7.766-3-7.766a12.75,12.75,0,0,0-7.3-7.3l-7.768-3,7.768-3a12.75,12.75,0,0,0,7.3-7.3l3-7.768,3,7.768a12.751,12.751,0,0,0,7.3,7.3Z" transform="translate(-43.994 152.382)" fill="#fff"/>
        <path id="Path_201" data-name="Path 201" d="M330.109,132.579l-7.768,3a12.758,12.758,0,0,0-7.3,7.3l-3,7.766-3-7.766a12.75,12.75,0,0,0-7.3-7.3l-7.768-3,7.768-3a12.75,12.75,0,0,0,7.3-7.3l3-7.768,3,7.768a12.758,12.758,0,0,0,7.3,7.3Z" transform="translate(-293.976 10.81)" fill="#fff"/>
        <path id="Path_202" data-name="Path 202" d="M331.217,209.853l-7.766,3a12.751,12.751,0,0,0-7.3,7.3l-3,7.768-3-7.768a12.751,12.751,0,0,0-7.3-7.3l-7.766-3,7.766-3a12.751,12.751,0,0,0,7.3-7.3l3-7.768,3,7.768a12.751,12.751,0,0,0,7.3,7.3Z" transform="translate(-292.103 141.183)" fill="#fff"/>
      </g>
    </g>
  </g>
</svg>
