<svg xmlns="http://www.w3.org/2000/svg" xmlns:xlink="http://www.w3.org/1999/xlink" width="590.351" height="608.441" viewBox="0 0 590.351 608.441">
  <defs>
    <filter id="Path_716" x="0" y="0" width="590.351" height="608.441" filterUnits="userSpaceOnUse">
      <feOffset dy="10" input="SourceAlpha"/>
      <feGaussianBlur stdDeviation="5" result="blur"/>
      <feFlood flood-opacity="0.251"/>
      <feComposite operator="in" in2="blur"/>
      <feComposite in="SourceGraphic"/>
    </filter>
  </defs>
  <g id="Group_542" data-name="Group 542" transform="translate(-8846 -836)">
    <g id="Group_541" data-name="Group 541">
      <g transform="matrix(1, 0, 0, 1, 8846, 836)" filter="url(#Path_716)">
        <path id="Path_716-2" data-name="Path 716" d="M79.589,599.037a15.5,15.5,0,0,1-15.5-15.5v-78.4q-.961-.825-1.912-1.664C54.135,496.4,45.8,488.5,39.318,478.626c-2.929-4.461-12.271-20.067-9.333-33.446a21.42,21.42,0,0,1,9.579-13.741A21.712,21.712,0,0,1,51.4,428.28c.553,0,1.1.016,1.648.036q1.066.043,2.129.108c-4.567-6.091-9.044-12.356-13.376-18.708-1.441-2.121-2.87-4.25-4.273-6.409-.072-.111-.393-.623-.393-.623-.263-.418-.524-.84-.767-1.261-4.34-6.967-10.235-17.579-12.209-30.049a58.951,58.951,0,0,1,14.03-47.985,57.035,57.035,0,0,1,7.4-6.879c.563-.46,1.15-.894,1.746-1.318a58.052,58.052,0,0,1,17.59-8.571A255.407,255.407,0,0,1,250.96,80.821V80.79a60.191,60.191,0,0,1,120.232-4.26,256.026,256.026,0,0,1,203.74,228.38,58.961,58.961,0,0,1,8.192,40.064,71.219,71.219,0,0,1-7.21,21.245V583.537a15.5,15.5,0,0,1-15.5,15.5Z" transform="translate(-8.47 -15.6)" fill="#fff"/>
      </g>
      <g id="Group_533" data-name="Group 533" transform="translate(8836.548 823.741)">
        <g id="Group_377" data-name="Group 377" transform="translate(41.452 27.259)">
          <path id="Path_707" data-name="Path 707" d="M238,0h.783c131.444,0,238,106.556,238,238v16.479c0,131.444-106.556,238-238,238H238c-131.444,0-238-106.556-238-238V238C0,106.556,106.556,0,238,0Z" transform="translate(40.282 59.068)" fill="#0a889c"/>
          <g id="Group_320" data-name="Group 320" transform="translate(0 163.485)">
            <g id="Group_309" data-name="Group 309" transform="translate(62.911)">
              <g id="Group_307" data-name="Group 307" transform="translate(0 33.482)">
                <path id="Path_708" data-name="Path 708" d="M38.369,0C59.56,0,76.739,13.47,76.739,30.085S59.56,60.17,38.369,60.17,0,46.7,0,30.085,17.179,0,38.369,0Z" transform="matrix(0.925, -0.379, 0.379, 0.925, 0, 29.114)" fill="#f29697"/>
                <path id="Path_426" data-name="Path 426" d="M70.185,112.34q35.15,45.19,66.263,93.334" transform="translate(-31.409 -80.96)" fill="none" stroke="#2d1026" stroke-linecap="round" stroke-linejoin="round" stroke-width="0.5"/>
                <path id="Path_427" data-name="Path 427" d="M64.709,134.006c13.722,8.6,30.16,12.375,43.329,21.8-3.865-15.582-5.3-30.693-8.192-46.483" transform="translate(-39.961 -85.663)" fill="none" stroke="#2d1026" stroke-linecap="round" stroke-linejoin="round" stroke-width="0.5"/>
              </g>
              <g id="Group_308" data-name="Group 308" transform="translate(81.71)">
                <path id="Path_709" data-name="Path 709" d="M30.085,0C46.7,0,60.17,17.179,60.17,38.369S46.7,76.739,30.085,76.739,0,59.56,0,38.369,13.47,0,30.085,0Z" transform="matrix(0.027, -1, 1, 0.027, 0, 60.148)" fill="#f0c59b"/>
                <path id="Path_428" data-name="Path 428" d="M101.068,93.946q13.883,55.542,22.88,112.154" transform="translate(-64.893 -76.201)" fill="none" stroke="#2d1026" stroke-linecap="round" stroke-linejoin="round" stroke-width="0.5"/>
                <path id="Path_429" data-name="Path 429" d="M93.382,102.892c9.076,13.412,22.586,23.51,30.818,37.458,2.761-15.815,7.562-30.217,11.3-45.827" transform="translate(-76.895 -75.3)" fill="none" stroke="#2d1026" stroke-linecap="round" stroke-linejoin="round" stroke-width="0.5"/>
              </g>
            </g>
            <g id="Group_319" data-name="Group 319" transform="translate(0 126.559)">
              <path id="Path_430" data-name="Path 430" d="M139.21,308.638l-3.3-.792c-13.023-3.143-26.587-5.725-36.223-15.9-1-1.05-1.985-2.352-1.821-3.794a4.886,4.886,0,0,1,2.4-3.156c7.657-5.333,17.716-5.238,27.043-4.936-23.218-14.862-46.534-29.8-67.239-48-7.329-6.442-14.575-13.323-19.962-21.525-3.064-4.662-11.76-20.772-4.475-25.311a8.062,8.062,0,0,1,4.629-.784c27.056,1.086,48.578,16.363,70.18,31.044,17.073,11.6,34.264,23.49,51.017,35.68,13.889,10.108,30.3,22.352,38.939,37.6,3.648,6.435,8.2,15.224,7.27,22.875-1.547,12.726-18.776,7.782-27.176,6.086Q159.769,313.537,139.21,308.638Z" transform="translate(-26.9 -61.491)" fill="#ffcb7d"/>
              <g id="Group_318" data-name="Group 318">
                <path id="Path_431" data-name="Path 431" d="M237.966,360.487a11.538,11.538,0,0,1-3.919,5.072c-.359.256-.717.512-1.1.743-4.867,2.92-11.835,3.1-17.316.845-11.117-4.611-19.468-14.96-30.2-20.775-2.818-1.537-5.635-3.074-8.428-4.688-.666-.333-1.306-.717-1.947-1.1a323.686,323.686,0,0,1-29.228-18.623q-10.6-7.646-20.621-16.087c-.538-.435-1.076-.9-1.614-1.358A406.167,406.167,0,0,1,78.225,259.1c-3.176-3.74-6.327-7.505-9.4-11.348l-1.153-1.46Q56.3,232.036,46,216.91c-1.358-2-2.715-4.022-4.047-6.071-.282-.461-.589-.922-.845-1.383-4.739-7.582-8.735-15.574-10.118-24.309a43.132,43.132,0,0,1,10.2-34.94,40.713,40.713,0,0,1,5.456-5.046c.333-.282.692-.538,1.05-.794a41.953,41.953,0,0,1,22.209-7.89c.435-.026.871-.026,1.306-.026a28.342,28.342,0,0,1,3.612.077c9.094.692,17.547,4.406,25.232,9.427.435.307.871.589,1.332.9a104.189,104.189,0,0,1,8.633,6.635c17.521,14.883,31.226,33.582,43.931,52.794.41.589.794,1.178,1.178,1.767,1.435,2.177,2.843,4.355,4.252,6.532q13.948,21.441,27.255,43.265v.026c.384.589.743,1.178,1.076,1.793q12.565,20.672,24.514,41.728c.333.589.692,1.2,1.025,1.793q10.759,19.1,20.979,38.526C237.3,347.551,240.4,354.339,237.966,360.487Z" transform="translate(-30.488 -136.425)" fill="#ececec"/>
                <g id="Group_317" data-name="Group 317" transform="translate(10.62 0.026)">
                  <g id="Group_310" data-name="Group 310" transform="translate(5.533 7.915)">
                    <path id="Path_432" data-name="Path 432" d="M224.2,360.718c-.359.256-.717.512-1.1.743q-13.372-15.139-26.717-30.406c-.333-.359-.64-.717-.948-1.1q-11.873-13.564-23.618-27.23c-.384-.435-.768-.9-1.127-1.332h-.026q-16.138-18.751-32.122-37.63c-.282-.333-.564-.64-.845-.973v-.026q-6.3-7.416-12.526-14.832c-.384-.461-.768-.9-1.153-1.358q-15.1-17.982-30.047-36.067c-.384-.435-.743-.9-1.127-1.358Q79.2,192.7,65.74,176.13c-.333-.384-.64-.768-.973-1.178v-.026q-14.1-17.252-27.973-34.607c.333-.282.692-.538,1.05-.794Q51.062,156.086,64.51,172.57c.487.615,1,1.23,1.511,1.844v.026q13.41,16.445,26.948,32.84v.026c.487.589.973,1.178,1.486,1.767q21.556,26.09,43.47,51.975c.384.435.743.9,1.127,1.332q16.1,19.02,32.327,37.86c.384.461.794.922,1.2,1.383q11.719,13.64,23.567,27.2c.359.41.717.82,1.1,1.255Q210.662,345.451,224.2,360.718Z" transform="translate(-36.794 -139.525)" fill="#2d1026"/>
                  </g>
                  <g id="Group_311" data-name="Group 311" transform="translate(0 9.504)">
                    <path id="Path_433" data-name="Path 433" d="M97.88,208.847a.624.624,0,0,1-.2.512.536.536,0,0,1-.333.179.231.231,0,0,1-.128.026h-.051L35.479,205.03c-.282-.461-.589-.922-.845-1.383l61.581,4.534.282.026c-.051-.615-.1-1.255-.154-1.87v-.026c-1.742-21.748-2.357-43.752-2.767-66.166.435.307.871.589,1.332.9.41,22.721,1.076,45.033,2.92,67.062A7.236,7.236,0,0,0,97.88,208.847Z" transform="translate(-34.634 -140.145)" fill="#2d1026"/>
                  </g>
                  <g id="Group_312" data-name="Group 312" transform="translate(26.564 109.841)">
                    <path id="Path_434" data-name="Path 434" d="M113.065,185.181a.67.67,0,0,1-.666.615h-.051c-22-.845-44.213-2.536-66.191-5.021L45,179.315c21.953,2.51,44.162,4.227,66.191,5.123.41.026.82.026,1.23.051A.679.679,0,0,1,113.065,185.181Z" transform="translate(-45.004 -179.315)" fill="#2d1026"/>
                  </g>
                  <g id="Group_313" data-name="Group 313" transform="translate(28.792)">
                    <path id="Path_435" data-name="Path 435" d="M51.945,180.264a.653.653,0,0,1-.384.692.37.37,0,0,1-.179.051H51.3a.642.642,0,0,1-.64-.589l-.077-.64-.256-2.382-4.457-40.934c.435-.026.871-.026,1.306-.026l4.662,42.8Z" transform="translate(-45.874 -136.435)" fill="#2d1026"/>
                  </g>
                  <g id="Group_314" data-name="Group 314" transform="translate(106.402 69.829)">
                    <path id="Path_436" data-name="Path 436" d="M83.786,165.462c-1.563,19.775-3.637,39.6-6.225,59.173-.026.282-.077.589-.1.871a.608.608,0,0,1-.41.512.747.747,0,0,1-.231.051h-.077a.662.662,0,0,1-.564-.743c0-.1.026-.179.026-.282.077-.589.154-1.153.231-1.742C79,203.579,81.071,183.624,82.608,163.7,83.017,164.284,83.4,164.873,83.786,165.462Z" transform="translate(-76.171 -163.695)" fill="#2d1026"/>
                  </g>
                  <g id="Group_315" data-name="Group 315" transform="translate(82.483 121.419)">
                    <path id="Path_437" data-name="Path 437" d="M130.951,185.628c-2.177,16.471-3.945,32.148-5.277,46.8-.026.179-.026.333-.051.512a.642.642,0,0,1-.64.589h-.077l-56.457-1.691c-.538-.435-1.076-.9-1.614-1.358l56.919,1.716h.026l.589.026c.026-.384.077-.794.1-1.178,1.383-14.806,3.176-30.611,5.4-47.21C130.259,184.424,130.618,185.013,130.951,185.628Z" transform="translate(-66.834 -183.835)" fill="#2d1026"/>
                  </g>
                  <g id="Group_316" data-name="Group 316" transform="translate(133.946 164.941)">
                    <path id="Path_438" data-name="Path 438" d="M125.117,202.618l-.538,2.766c-1.87,9.657-3.714,19.34-5.61,28.972-.026.128-.051.231-.077.359a.673.673,0,0,1-.461.512c-.1.026-.231.077-.333.1a170.08,170.08,0,0,1-29.228,5.789c-.666-.333-1.306-.717-1.947-1.1a173.468,173.468,0,0,0,30.227-5.789l.538-.154c.051-.333.128-.64.179-.973,1.844-9.3,3.612-18.648,5.4-27.973.282-1.435.564-2.869.82-4.3C124.426,201.414,124.784,202.029,125.117,202.618Z" transform="translate(-86.924 -200.825)" fill="#2d1026"/>
                  </g>
                </g>
              </g>
            </g>
          </g>
          <g id="Group_333" data-name="Group 333" transform="translate(316.547 263.882)">
            <g id="Group_329" data-name="Group 329" transform="translate(0)">
              <path id="Path_439" data-name="Path 439" d="M154.937,350.274a11.538,11.538,0,0,0,3.919,5.072c.359.256.717.512,1.1.743,4.867,2.92,11.835,3.1,17.316.845,11.117-4.611,19.468-14.96,30.2-20.775,2.818-1.537,5.635-3.074,8.428-4.688.666-.333,1.306-.717,1.947-1.1a323.7,323.7,0,0,0,29.228-18.623q10.605-7.646,20.621-16.087c.538-.435,1.076-.9,1.614-1.358a406.167,406.167,0,0,0,45.366-45.417c3.176-3.74,6.327-7.505,9.4-11.348l1.153-1.46Q336.605,221.823,346.9,206.7c1.358-2,2.715-4.022,4.047-6.071.282-.461.589-.922.845-1.383,4.739-7.582,8.735-15.574,10.118-24.31a43.132,43.132,0,0,0-10.2-34.94,40.712,40.712,0,0,0-5.456-5.046c-.333-.282-.692-.538-1.05-.794A41.953,41.953,0,0,0,323,126.263c-.436-.026-.871-.026-1.306-.026a28.337,28.337,0,0,0-3.612.077c-9.094.692-17.547,4.406-25.232,9.427-.435.307-.871.589-1.332.9a104.188,104.188,0,0,0-8.633,6.634c-17.521,14.883-31.226,33.582-43.931,52.794-.41.589-.794,1.178-1.178,1.768-1.434,2.177-2.843,4.355-4.252,6.532q-13.948,21.441-27.255,43.265v.026c-.384.589-.743,1.178-1.076,1.793q-12.565,20.672-24.514,41.728c-.333.589-.692,1.2-1.025,1.793q-10.759,19.1-20.979,38.526C155.6,337.338,152.5,344.126,154.937,350.274Z" transform="translate(-154.063 -126.212)" fill="#ececec"/>
              <g id="Group_328" data-name="Group 328" transform="translate(4.794 0.026)">
                <g id="Group_321" data-name="Group 321" transform="translate(0 7.915)">
                  <path id="Path_440" data-name="Path 440" d="M155.934,350.505c.359.256.717.512,1.1.743q13.372-15.139,26.717-30.406c.333-.359.64-.717.948-1.1q11.873-13.564,23.618-27.23c.384-.435.768-.9,1.127-1.332h.026q16.138-18.751,32.122-37.63c.282-.333.564-.64.845-.973v-.026q6.3-7.416,12.526-14.832c.384-.461.768-.9,1.153-1.358q15.1-17.982,30.047-36.067c.384-.435.743-.9,1.127-1.358q13.641-16.445,27.1-33.019c.333-.384.64-.768.973-1.178v-.026q14.1-17.252,27.973-34.607c-.333-.282-.692-.538-1.05-.794q-13.218,16.561-26.666,33.045c-.487.615-1,1.23-1.511,1.844v.026q-13.41,16.445-26.948,32.84v.026c-.487.589-.973,1.178-1.486,1.768q-21.556,26.09-43.47,51.975c-.384.435-.743.9-1.127,1.332q-16.1,19.02-32.327,37.86c-.384.461-.794.922-1.2,1.383q-11.719,13.64-23.567,27.2c-.359.41-.717.82-1.1,1.255Q169.472,335.238,155.934,350.505Z" transform="translate(-155.934 -129.312)" fill="#2d1026"/>
                </g>
                <g id="Group_322" data-name="Group 322" transform="translate(129.693 9.504)">
                  <path id="Path_441" data-name="Path 441" d="M206.564,198.634a.625.625,0,0,0,.2.512.536.536,0,0,0,.333.179.231.231,0,0,0,.128.026h.051l61.683-4.534c.282-.461.589-.922.845-1.383l-61.581,4.534-.282.026c.051-.615.1-1.255.154-1.87V196.1c1.742-21.748,2.357-43.752,2.766-66.166-.435.307-.871.589-1.332.9-.41,22.721-1.076,45.033-2.92,67.062A7.232,7.232,0,0,1,206.564,198.634Z" transform="translate(-206.564 -129.932)" fill="#2d1026"/>
                </g>
                <g id="Group_323" data-name="Group 323" transform="translate(98.314 109.841)">
                  <path id="Path_442" data-name="Path 442" d="M194.314,174.968a.67.67,0,0,0,.666.615h.051c22-.845,44.213-2.536,66.192-5.021l1.153-1.46c-21.953,2.51-44.162,4.227-66.191,5.123-.41.026-.82.026-1.23.051A.679.679,0,0,0,194.314,174.968Z" transform="translate(-194.314 -169.102)" fill="#2d1026"/>
                </g>
                <g id="Group_324" data-name="Group 324" transform="translate(158.067)">
                  <path id="Path_443" data-name="Path 443" d="M217.649,170.051a.653.653,0,0,0,.384.692.37.37,0,0,0,.179.051h.077a.642.642,0,0,0,.64-.589l.077-.64.256-2.382,4.457-40.934c-.436-.026-.871-.026-1.306-.026l-4.662,42.8Z" transform="translate(-217.641 -126.222)" fill="#2d1026"/>
                </g>
                <g id="Group_325" data-name="Group 325" transform="translate(78.923 69.829)">
                  <path id="Path_444" data-name="Path 444" d="M186.744,155.249c1.563,19.775,3.637,39.6,6.225,59.173.026.282.077.589.1.871a.608.608,0,0,0,.41.512.747.747,0,0,0,.231.051h.077a.662.662,0,0,0,.564-.743c0-.1-.026-.179-.026-.282-.077-.589-.154-1.153-.231-1.742-2.562-19.724-4.636-39.679-6.173-59.608C187.512,154.071,187.128,154.66,186.744,155.249Z" transform="translate(-186.744 -153.482)" fill="#2d1026"/>
                </g>
                <g id="Group_326" data-name="Group 326" transform="translate(46.339 121.419)">
                  <path id="Path_445" data-name="Path 445" d="M174.024,175.415c2.177,16.471,3.945,32.148,5.277,46.8.026.179.026.333.051.512a.642.642,0,0,0,.64.589h.077l56.457-1.691c.538-.435,1.076-.9,1.614-1.358l-56.919,1.716H181.2l-.589.026c-.026-.384-.077-.794-.1-1.178-1.383-14.806-3.176-30.611-5.4-47.21C174.716,174.211,174.357,174.8,174.024,175.415Z" transform="translate(-174.024 -173.622)" fill="#2d1026"/>
                </g>
                <g id="Group_327" data-name="Group 327" transform="translate(20.8 164.941)">
                  <path id="Path_446" data-name="Path 446" d="M164.054,192.405l.538,2.767c1.87,9.657,3.714,19.34,5.61,28.972.026.128.051.231.077.359a.673.673,0,0,0,.461.512c.1.026.231.077.333.1a170.08,170.08,0,0,0,29.228,5.789c.666-.333,1.306-.717,1.947-1.1a173.456,173.456,0,0,1-30.227-5.789l-.538-.154c-.051-.333-.128-.64-.179-.973-1.844-9.3-3.612-18.648-5.4-27.973-.282-1.435-.564-2.869-.82-4.3C164.746,191.2,164.387,191.816,164.054,192.405Z" transform="translate(-164.054 -190.612)" fill="#2d1026"/>
                </g>
              </g>
            </g>
            <g id="Group_332" data-name="Group 332" transform="translate(38.2 113.486)">
              <g id="Group_330" data-name="Group 330">
                <ellipse id="Ellipse_11" data-name="Ellipse 11" cx="30.085" cy="38.369" rx="30.085" ry="38.369" transform="translate(6.608 41.839) rotate(-44.054)" fill="#ffcb7d"/>
                <path id="Path_447" data-name="Path 447" d="M231.1,184.9q-28.941,49.394-62.121,96.139" transform="translate(-168.975 -148.049)" fill="none" stroke="#2d1026" stroke-linecap="round" stroke-linejoin="round" stroke-width="0.5"/>
                <path id="Path_448" data-name="Path 448" d="M187.6,182.27c-2.9,15.936-.315,32.6-4.191,48.327,13.038-9.365,26.543-16.3,40.135-24.84" transform="translate(-146.433 -152.159)" fill="none" stroke="#2d1026" stroke-linecap="round" stroke-linejoin="round" stroke-width="0.5"/>
              </g>
              <g id="Group_331" data-name="Group 331" transform="translate(13.361 64.003)">
                <ellipse id="Ellipse_12" data-name="Ellipse 12" cx="30.085" cy="38.369" rx="30.085" ry="38.369" transform="matrix(0.938, -0.345, 0.345, 0.938, 42.892, 20.788)" fill="#ffcb7d"/>
                <path id="Path_449" data-name="Path 449" d="M269.874,210.6q-46.439,33.483-95.683,62.823" transform="translate(-174.191 -171.928)" fill="none" stroke="#2d1026" stroke-linecap="round" stroke-linejoin="round" stroke-width="0.5"/>
                <path id="Path_450" data-name="Path 450" d="M219.368,204.882c-9.094,13.4-13.464,29.691-23.364,42.51,15.71-3.3,30.865-4.178,46.749-6.5" transform="translate(-140.128 -180.851)" fill="none" stroke="#2d1026" stroke-linecap="round" stroke-linejoin="round" stroke-width="0.5"/>
              </g>
            </g>
          </g>
          <g id="Group_355" data-name="Group 355" transform="translate(113.306)">
            <path id="Path_451" data-name="Path 451" d="M307.813,343.717l41.4,120.935H101.7l50.171-124.708.681-1.729-.6-4.219-4.088-29.21-73.146-2.674s6.706-45.952,13.387-71.812,40.138-51.27,53.97-57.088a45.145,45.145,0,0,0,5.057-2.515c3.509-2.175,7.336-4.662,11.238-7.362,9.852-7.2,16.087-12.078,16.087-12.078l2.41-2.305c1.312-1.178,2.567-2.357,3.8-3.563a67.009,67.009,0,0,0,11.345-13.858c14.043-24.076,6.576-37.412,6.576-37.412l65,7.308a176.134,176.134,0,0,0,.707,18.733,116.025,116.025,0,0,0,3.458,20.278c.156.6.341,1.206.525,1.783v.077a9.8,9.8,0,0,0,5.4,5.792c1.806.838,4.242,1.939,7.1,3.3,16.819,7.99,48.547,24.233,58.845,37.438,14.278,18.287,25.411,48.627,28.531,66,3.143,17.4,6.706,52.633,6.706,52.633l-65.367,3.614L305.9,336.329l-.184,1.232Z" transform="translate(-74.721 87.553)" fill="#ffa3a3"/>
            <path id="Path_452" data-name="Path 452" d="M182.228,129.352a19.888,19.888,0,0,1-8.2,3.773c-5.451,1.127-11.135.156-16.376-1.7-13.858-4.952-23.551-16.243-28.162-30.206a105.406,105.406,0,0,0,49.28,7.859A116.025,116.025,0,0,0,182.228,129.352Z" transform="translate(10.806 98.637)" fill="#ff7373"/>
            <path id="Path_453" data-name="Path 453" d="M114.242,127.089" transform="translate(-13.005 139.04)" fill="none" stroke="#ffa3a3" stroke-miterlimit="10" stroke-width="1.023"/>
            <g id="Group_335" data-name="Group 335" transform="translate(0 232.941)">
              <path id="Path_454" data-name="Path 454" d="M305.9,305.074l-.184,1.232,2.1,6.156c-7.2-.131-14.383-.315-21.587-.5q-67.165-1.652-134.35-3.276l.681-1.729-.6-4.219-4.088-29.21-73.146-2.674s6.706-45.952,13.387-71.812,40.138-51.27,53.97-57.088a45.145,45.145,0,0,0,5.057-2.515c3.509-2.175,7.336-4.662,11.238-7.362,9.852-7.2,16.087-12.078,16.087-12.078l2.41-2.305c1.312-1.178,2.567-2.357,3.8-3.563a34.2,34.2,0,0,0,13.52,14.306c8.62,5.108,18.733,7,28.687,8.174,14.96,1.755,30.888,1.911,44.2-5.136a45.036,45.036,0,0,0,13.7-11.343c16.819,7.99,48.547,24.233,58.845,37.438,14.278,18.287,25.411,48.627,28.531,66,3.143,17.4,6.706,52.633,6.706,52.633l-65.367,3.614Z" transform="translate(-74.721 -114.133)" fill="#fedede"/>
              <g id="Group_334" data-name="Group 334" transform="translate(67.772 57.269)">
                <path id="Path_455" data-name="Path 455" d="M164.206,140.32s10.7,61.985,9.808,72.242-4.262,26.361-4.262,26.361l-3.589,25.257" transform="translate(-2.755 -130.509)" fill="none" stroke="#2d1026" stroke-linecap="round" stroke-linejoin="round" stroke-width="0.511"/>
                <path id="Path_456" data-name="Path 456" d="M115.912,136.49S98.967,201.6,101.421,211.409,107,240.839,107,240.839l4.014,28.987" transform="translate(-101.178 -136.49)" fill="none" stroke="#2d1026" stroke-linecap="round" stroke-linejoin="round" stroke-width="0.511"/>
              </g>
            </g>
            <path id="Path_457" data-name="Path 457" d="M332.758,318.418H85.255L135.427,193.71l.681-1.729-.6-4.218,153.946,2.332-.183,1.231,2.1,6.157Z" transform="translate(-58.271 233.787)" fill="#dfdefe"/>
            <g id="Group_338" data-name="Group 338" transform="translate(86.29 394.561)">
              <g id="Group_336" data-name="Group 336">
                <path id="Path_458" data-name="Path 458" d="M207.973,213.274c-4.009,13.387-21.745,18.052-21.745,18.052l.105.287.392,1.05,5.869,15.718H129.717l1.545-5.133,2.8-9.25s-.418-.051-1.125-.21c-4.035-.863-17.841-4.716-22.952-17.5-4.191-10.479.891-24.417,4.4-31.91.184-.42.395-.838.576-1.207,1.232-2.567,2.149-4.111,2.149-4.111H205.85s.551,1.834,1.206,4.793c.077.395.182.84.261,1.286C208.836,192.315,210.619,204.419,207.973,213.274Z" transform="translate(-108.407 -174.365)" fill="#ffcb7d"/>
                <ellipse id="Ellipse_13" data-name="Ellipse 13" cx="44.371" cy="4.682" rx="44.371" ry="4.682" transform="translate(8.704)" fill="#2d1026"/>
              </g>
              <path id="Path_459" data-name="Path 459" d="M172.4,199.575a284.576,284.576,0,0,1-41.16,2.831c-2.777,0-8.148-1.048-12.234-.656.707.159,1.125.21,1.125.21l-2.8,9.25a12.378,12.378,0,0,0,4.426,1.153,78.055,78.055,0,0,0,12.839-.735c13.2-1.65,26.41-4.847,38.2-11Z" transform="translate(-94.475 -142.327)" fill="#2d1026"/>
              <g id="Group_337" data-name="Group 337" transform="translate(5.981 8.805)">
                <path id="Path_460" data-name="Path 460" d="M203.671,182.631c-10.585,3.325-21.561,4.583-31.387,5.369-5.369.42-11.527.761-18.128.761-13.546,0-28.951-1.468-43.414-6.891.184-.42.395-.838.576-1.207,21.223,7.941,44.618,7.285,60.861,6.027,9.8-.786,20.7-2.044,31.231-5.346C203.487,181.74,203.592,182.186,203.671,182.631Z" transform="translate(-110.742 -180.664)" fill="#2d1026"/>
              </g>
            </g>
            <g id="Group_339" data-name="Group 339" transform="translate(76.264 320.081)">
              <path id="Path_461" data-name="Path 461" d="M159.8,247.6s-5.817,7.126-24.548,5.789l-12.918-43.124-17.841-59.444,20.07-2.672,19.23,54.283Z" transform="translate(-104.493 -148.151)" fill="#ffcb7d"/>
              <path id="Path_462" data-name="Path 462" d="M148.924,214.511s-5.817,7.126-24.548,5.789l-.133-.418-12.785-42.707a60.42,60.42,0,0,1,7.285-3.614,52.437,52.437,0,0,1,14.173-4.219l15.8,44.618Z" transform="translate(-93.617 -115.059)" fill="#0a889c"/>
              <path id="Path_463" data-name="Path 463" d="M141.13,187.441s-5.817,7.126-24.548,5.789l-.133-.418c.42-.289.891-.576,1.337-.84a37.815,37.815,0,0,1,23.134-5.082Z" transform="translate(-85.823 -87.99)" fill="#2d1026"/>
            </g>
            <path id="Path_464" data-name="Path 464" d="M77.321,175.311s-11.6,88.3,14.716,92.758,35.23-20.959,40.581-44.149,8.025-45.932,8.025-45.932Z" transform="translate(-74.636 214.343)" fill="#ffa3a3"/>
            <path id="Path_465" data-name="Path 465" d="M81.6,248.943l20.068-46.378s-2.454-6.02-1.117-8.919,1.563-3.568,1.563-3.568-2.008-3.343-.891-5.351a24.5,24.5,0,0,1,2.006-3.12s-2.231-3.791-1.114-6.691a10.9,10.9,0,0,1,4.014-4.683s-2.008-8.694.891-10.925,18.951-13.377,27.2-13.154,29.433,1.783,28.764,5.8-26.758,2.229-29.656,2.451-14.493,9.811-14.493,9.811,21.85-.223,29.433-.669,16.5,1.337,15.385,4.683-15.831,6.243-15.831,6.243,13.822-.446,14.048,3.123-14.271,6.243-14.271,6.243,7.58,0,7.357,3.123-22.965,9.365-22.965,9.365l-2.008,27.2L125.3,254.517Z" transform="translate(-63.977 168.806)" fill="#ffa3a3"/>
            <g id="Group_350" data-name="Group 350" transform="translate(92.741)">
              <path id="Path_466" data-name="Path 466" d="M193.446,66.994c6.36,3.742,12.785,7.99,16.548,14.34,3.935,6.64,4.442,14.934,2.605,22.432s-5.843,14.3-10.454,20.5c-5.231,7.026-11.981,13.8-20.631,15.175-8.028,1.281-16.276-2.526-21.9-8.4s-8.948-13.582-11.271-21.374A107.509,107.509,0,0,1,143.9,76.6c.207-9.329,3.11-24.012,15.272-22.775C171.416,55.07,183.005,60.851,193.446,66.994Z" transform="translate(-59.471 24.516)" fill="#2d1026"/>
              <g id="Group_349" data-name="Group 349">
                <g id="Group_347" data-name="Group 347" transform="translate(0 77.979)">
                  <g id="Group_345" data-name="Group 345">
                    <g id="Group_344" data-name="Group 344">
                      <g id="Group_343" data-name="Group 343">
                        <path id="Path_467" data-name="Path 467" d="M246.458,137.4c-1.46,12.16-6.3,35.606-24.023,42.963-25.526,10.595-77.98-9.908-77.98-9.908s-1.068-5.272-2.4-13.118c0,1.744-14.642.023-16.038-.456a23.268,23.268,0,0,1-11.2-8.02c-5.71-7.649-5.231-18.871,2.026-25.408,3.376-3.051,8.279-5.164,12.857-4.247,1.611.325,5.492,1.458,7.1,3.225a2.359,2.359,0,0,1,.74,1.458c-.85-9.391-1.155-18.3-.325-24.645,2.79-21.136,20.854-43.1,49.247-45.345a85.786,85.786,0,0,1,11.594-.11c1.132.044,2.221.11,3.333.241.523.044,1.048.131,1.57.195a5.754,5.754,0,0,1,.63.087c.174.023.351.067.525.087.61.087,1.219.174,1.829.284,15.167,2.636,27.957,11.309,35.281,24.95,4.642,8.674,6.537,18.326,6.973,28.175C248.638,117.741,247.613,127.872,246.458,137.4Z" transform="translate(-110.926 -53.638)" fill="#ffa3a3"/>
                        <g id="Group_342" data-name="Group 342" transform="translate(57.463 68.383)">
                          <path id="Path_468" data-name="Path 468" d="M133.358,81.067a20.552,20.552,0,0,0,24.14.558" transform="translate(-133.358 -79.189)" fill="none" stroke="#2d1026" stroke-linecap="round" stroke-linejoin="round" stroke-width="1.276"/>
                          <path id="Path_469" data-name="Path 469" d="M153.448,81.633a12.083,12.083,0,0,0,18.215-1.3" transform="translate(-101.986 -80.334)" fill="none" stroke="#2d1026" stroke-linecap="round" stroke-linejoin="round" stroke-width="1.276"/>
                          <g id="Group_341" data-name="Group 341" transform="translate(33.352 16.141)">
                            <g id="Group_340" data-name="Group 340">
                              <path id="Path_470" data-name="Path 470" d="M146.378,87.672a2.25,2.25,0,0,1,4.132.945" transform="translate(-146.378 -86.635)" fill="none" stroke="#2d1026" stroke-linecap="round" stroke-linejoin="round" stroke-width="0.425"/>
                            </g>
                          </g>
                        </g>
                        <path id="Path_471" data-name="Path 471" d="M113.3,83.648a12.709,12.709,0,0,1,11.745.341,19.711,19.711,0,0,1,8.11,8.894,45.139,45.139,0,0,1,3.5,11.683" transform="translate(-107.213 -8.776)" fill="none" stroke="#2d1026" stroke-linecap="round" stroke-linejoin="round" stroke-width="0.425"/>
                      </g>
                    </g>
                    <path id="Path_472" data-name="Path 472" d="M145.418,89.953q5.6-.1,11.2-.2" transform="translate(-57.062 2.755)" fill="none" stroke="#2d1026" stroke-linecap="round" stroke-linejoin="round" stroke-width="0.425"/>
                    <path id="Path_473" data-name="Path 473" d="M149.333,74.95l5.863,19.1a18.628,18.628,0,0,1,1.207,6.937,7.686,7.686,0,0,1-3.945,6.138" transform="translate(-50.949 -20.359)" fill="none" stroke="#2d1026" stroke-linecap="round" stroke-linejoin="round" stroke-width="0.545"/>
                  </g>
                  <g id="Group_346" data-name="Group 346" transform="translate(57.901 49.768)">
                    <path id="Path_474" data-name="Path 474" d="M154.2,75.9a11.438,11.438,0,0,1,15.564.459" transform="translate(-101.248 -73.067)" fill="none" stroke="#2d1026" stroke-linecap="round" stroke-linejoin="round" stroke-width="0.511"/>
                    <path id="Path_475" data-name="Path 475" d="M133.529,77.568a11.795,11.795,0,0,1,17.647-.981" transform="translate(-133.529 -73.042)" fill="none" stroke="#2d1026" stroke-linecap="round" stroke-linejoin="round" stroke-width="0.511"/>
                  </g>
                </g>
                <g id="Group_348" data-name="Group 348" transform="translate(10.825)">
                  <path id="Path_476" data-name="Path 476" d="M128.452,123.763a33.576,33.576,0,0,1,5.887,11.681c1.57-4.365,4.211-7.523,6.337-11.642,10.152-1.309,20.037-7.144,28.454-12.967,9.317-6.442,17.964-14.027,24.573-23.226s11.11-20.106,11.676-31.418c-12.155-1.716-24.32-4.032-36.592-3.771s-24.712,2.6-35.445,8.558c-4.388,2.434-8.54,5.543-11.245,9.77-2.387,3.735-3.517,8.123-4.362,12.472a118.253,118.253,0,0,0-1.222,37.486C115.824,120.3,126.8,121.578,128.452,123.763Z" transform="translate(-114.505 22.406)" fill="#2d1026"/>
                  <circle id="Ellipse_14" data-name="Ellipse 14" cx="44.316" cy="44.316" r="44.316" transform="translate(0 86.433) rotate(-77.214)" fill="#2d1026"/>
                </g>
              </g>
            </g>
            <g id="Group_354" data-name="Group 354" transform="translate(103.233 395.008)">
              <path id="Path_477" data-name="Path 477" d="M169.08,180.744l15.162,83.17s40.135,0,42.812-20.959-2.79-65.554-2.79-65.554Z" transform="translate(-30.604 -177.401)" fill="#ffa3a3"/>
              <g id="Group_353" data-name="Group 353" transform="translate(0 36.121)">
                <path id="Path_478" data-name="Path 478" d="M235.527,191.5s-26.756,15.162-59.308,20.959l-32.555,5.8.446,31.216S238.2,245.459,252.474,236.1,235.527,191.5,235.527,191.5Z" transform="translate(-70.295 -191.502)" fill="#ffa3a3"/>
                <g id="Group_352" data-name="Group 352" transform="translate(0 21.628)">
                  <path id="Path_479" data-name="Path 479" d="M216.931,199.945s-16.725,2.674-28.764,2.674-32.553-1.337-34.338,1.785,24.082,7.58,24.082,7.58-61.094-2.674-61.763,0,9.811,4.905,9.811,4.905-10.479,0-10.925,3.123,11.7,4.293,11.7,4.293-4.347-.056-4.347,2.172,18.9,3.179,18.9,3.179-5.072.389-5.295,2.172,39.689,4.905,52.843,4.46,31.216-1.783,31.216-1.783Z" transform="translate(-115.021 -199.945)" fill="#ffa3a3"/>
                  <g id="Group_351" data-name="Group 351" transform="translate(0.007 10.348)">
                    <path id="Path_480" data-name="Path 480" d="M188.262,204.954s-30.77-.056-37.963-.169c-6.222-.095-34.728-2.229-34.838.891s10.423,5.128,15.272,6.132,54.016,4.181,54.016,4.181" transform="translate(-114.342 -203.985)" fill="none" stroke="#2d1026" stroke-linecap="round" stroke-linejoin="round" stroke-width="0.511"/>
                    <path id="Path_481" data-name="Path 481" d="M125.954,206.649s-10.592-1.171-10.925,3.123,16.386,5.295,29.43,6.465,40.135,3.179,40.135,3.179" transform="translate(-115.024 -200.052)" fill="none" stroke="#2d1026" stroke-linecap="round" stroke-linejoin="round" stroke-width="0.511"/>
                    <path id="Path_482" data-name="Path 482" d="M119.533,209.455s-3.512,2.172-.167,3.509,50.5,4.852,50.5,4.852" transform="translate(-110.499 -195.443)" fill="none" stroke="#2d1026" stroke-linecap="round" stroke-linejoin="round" stroke-width="0.511"/>
                  </g>
                </g>
              </g>
            </g>
          </g>
          <g id="Group_376" data-name="Group 376" transform="translate(56.561 99.307)">
            <g id="Group_374" data-name="Group 374">
              <g id="Group_361" data-name="Group 361" transform="translate(318.263 74.869)">
                <g id="Group_360" data-name="Group 360">
                  <g id="Group_356" data-name="Group 356" transform="translate(22.646)">
                    <path id="Path_483" data-name="Path 483" d="M202.589,132.065s-23.17-36-15.308-40.55S202.589,132.065,202.589,132.065Z" transform="translate(-185.654 -91.192)" fill="#f0c59b"/>
                    <path id="Path_484" data-name="Path 484" d="M191.226,104.6s23.17,36,15.308,40.547S191.226,104.6,191.226,104.6Z" transform="translate(-176.952 -70.256)" fill="#f0c59b"/>
                  </g>
                  <g id="Group_357" data-name="Group 357" transform="translate(19.094 1.703)">
                    <path id="Path_485" data-name="Path 485" d="M191.177,130.972s10.2-41.577,18.912-39S191.177,130.972,191.177,130.972Z" transform="translate(-173.476 -91.857)" fill="#f0c59b"/>
                    <path id="Path_486" data-name="Path 486" d="M204.878,104.62s-10.2,41.575-18.912,39S204.878,104.62,204.878,104.62Z" transform="translate(-184.267 -71.927)" fill="#f0c59b"/>
                  </g>
                  <g id="Group_358" data-name="Group 358" transform="translate(0 23.827)">
                    <path id="Path_487" data-name="Path 487" d="M190.445,115.426s37.2-21.184,41.318-13.087S190.445,115.426,190.445,115.426Z" transform="translate(-155.525 -100.494)" fill="#f0c59b"/>
                    <path id="Path_488" data-name="Path 488" d="M218.4,105.423s-37.2,21.184-41.318,13.087S218.4,105.423,218.4,105.423Z" transform="translate(-176.813 -92.797)" fill="#f0c59b"/>
                  </g>
                  <g id="Group_359" data-name="Group 359" transform="translate(3.302 16.678)">
                    <path id="Path_489" data-name="Path 489" d="M190.524,105.238s40.962,12.444,37.917,21S190.524,105.238,190.524,105.238Z" transform="translate(-158.703 -85.936)" fill="#f0c59b"/>
                    <path id="Path_490" data-name="Path 490" d="M216.178,120.258s-40.96-12.442-37.914-21S216.178,120.258,216.178,120.258Z" transform="translate(-178.102 -97.703)" fill="#f0c59b"/>
                  </g>
                </g>
                <path id="Path_491" data-name="Path 491" d="M202.114,109.971a6.62,6.62,0,1,1-6.622-6.619A6.62,6.62,0,0,1,202.114,109.971Z" transform="translate(-157.98 -72.203)" fill="#ff7373"/>
              </g>
              <g id="Group_367" data-name="Group 367" transform="translate(96.795)">
                <g id="Group_366" data-name="Group 366">
                  <g id="Group_362" data-name="Group 362" transform="translate(15.874)">
                    <path id="Path_492" data-name="Path 492" d="M108.424,90.612S92.183,65.38,97.693,62.191,108.424,90.612,108.424,90.612Z" transform="translate(-96.553 -61.965)" fill="#fff"/>
                    <path id="Path_493" data-name="Path 493" d="M100.458,71.361s16.24,25.232,10.73,28.421S100.458,71.361,100.458,71.361Z" transform="translate(-90.454 -47.291)" fill="#fff"/>
                  </g>
                  <g id="Group_363" data-name="Group 363" transform="translate(13.385 1.194)">
                    <path id="Path_494" data-name="Path 494" d="M100.424,89.846s7.152-29.141,13.256-27.335S100.424,89.846,100.424,89.846Z" transform="translate(-88.018 -62.431)" fill="#fff"/>
                    <path id="Path_495" data-name="Path 495" d="M110.028,71.376s-7.152,29.141-13.256,27.335S110.028,71.376,110.028,71.376Z" transform="translate(-95.581 -48.461)" fill="#fff"/>
                  </g>
                  <g id="Group_364" data-name="Group 364" transform="translate(0 16.7)">
                    <path id="Path_496" data-name="Path 496" d="M99.911,78.95s26.074-14.85,28.961-9.173S99.911,78.95,99.911,78.95Z" transform="translate(-75.434 -68.484)" fill="#fff"/>
                    <path id="Path_497" data-name="Path 497" d="M119.5,71.939s-26.074,14.85-28.961,9.173S119.5,71.939,119.5,71.939Z" transform="translate(-90.356 -63.089)" fill="#fff"/>
                  </g>
                  <g id="Group_365" data-name="Group 365" transform="translate(2.315 11.689)">
                    <path id="Path_498" data-name="Path 498" d="M99.967,71.809s28.71,8.722,26.574,14.721S99.967,71.809,99.967,71.809Z" transform="translate(-77.662 -58.281)" fill="#fff"/>
                    <path id="Path_499" data-name="Path 499" d="M117.947,82.338s-28.71-8.722-26.574-14.721S117.947,82.338,117.947,82.338Z" transform="translate(-91.26 -66.528)" fill="#fff"/>
                  </g>
                </g>
                <path id="Path_500" data-name="Path 500" d="M108.09,75.129a4.64,4.64,0,1,1-4.639-4.642A4.64,4.64,0,0,1,108.09,75.129Z" transform="translate(-77.155 -48.656)" fill="#ff7373"/>
              </g>
              <g id="Group_373" data-name="Group 373" transform="translate(0 375.409)">
                <g id="Group_372" data-name="Group 372">
                  <g id="Group_368" data-name="Group 368" transform="translate(15.873)">
                    <path id="Path_501" data-name="Path 501" d="M70.637,237.165s-16.243-25.232-10.73-28.421S70.637,237.165,70.637,237.165Z" transform="translate(-58.765 -208.518)" fill="#fedede"/>
                    <path id="Path_502" data-name="Path 502" d="M62.671,217.914s16.24,25.232,10.73,28.423S62.671,217.914,62.671,217.914Z" transform="translate(-52.666 -193.844)" fill="#fedede"/>
                  </g>
                  <g id="Group_369" data-name="Group 369" transform="translate(13.383 1.193)">
                    <path id="Path_503" data-name="Path 503" d="M62.637,236.4s7.152-29.141,13.256-27.335S62.637,236.4,62.637,236.4Z" transform="translate(-50.229 -208.984)" fill="#fedede"/>
                    <path id="Path_504" data-name="Path 504" d="M72.24,217.929s-7.149,29.143-13.256,27.335S72.24,217.929,72.24,217.929Z" transform="translate(-57.793 -195.014)" fill="#fedede"/>
                  </g>
                  <g id="Group_370" data-name="Group 370" transform="translate(0 16.701)">
                    <path id="Path_505" data-name="Path 505" d="M62.124,225.5S88.2,210.656,91.085,216.33,62.124,225.5,62.124,225.5Z" transform="translate(-37.647 -215.038)" fill="#fedede"/>
                    <path id="Path_506" data-name="Path 506" d="M81.715,218.493s-26.074,14.847-28.961,9.171S81.715,218.493,81.715,218.493Z" transform="translate(-52.569 -209.641)" fill="#fedede"/>
                  </g>
                  <g id="Group_371" data-name="Group 371" transform="translate(2.313 11.691)">
                    <path id="Path_507" data-name="Path 507" d="M62.18,218.363s28.71,8.72,26.574,14.719S62.18,218.363,62.18,218.363Z" transform="translate(-39.873 -204.834)" fill="#fedede"/>
                    <path id="Path_508" data-name="Path 508" d="M80.162,228.89s-28.71-8.722-26.576-14.719S80.162,228.89,80.162,228.89Z" transform="translate(-53.472 -213.081)" fill="#fedede"/>
                  </g>
                </g>
                <path id="Path_509" data-name="Path 509" d="M70.3,221.682a4.64,4.64,0,1,1-4.642-4.642A4.64,4.64,0,0,1,70.3,221.682Z" transform="translate(-39.368 -195.209)" fill="#ff7373"/>
              </g>
            </g>
            <g id="Group_375" data-name="Group 375" transform="translate(11.843 11.538)">
              <path id="Path_510" data-name="Path 510" d="M211.3,83.691l-7.4,2.864a12.155,12.155,0,0,0-6.955,6.955l-2.864,7.406-2.864-7.406a12.155,12.155,0,0,0-6.955-6.955l-7.4-2.864,7.4-2.864a12.155,12.155,0,0,0,6.955-6.955l2.864-7.4,2.864,7.4a12.155,12.155,0,0,0,6.955,6.955Z" transform="translate(129.668 -66.469)" fill="#fff"/>
              <path id="Path_511" data-name="Path 511" d="M227.125,161.948l-7.4,2.861a12.162,12.162,0,0,0-6.955,6.955L209.9,179.17l-2.864-7.406a12.162,12.162,0,0,0-6.955-6.955l-7.4-2.861,7.4-2.864a12.155,12.155,0,0,0,6.955-6.955l2.864-7.406,2.864,7.406a12.155,12.155,0,0,0,6.955,6.955Z" transform="translate(154.388 55.733)" fill="#fff"/>
              <path id="Path_512" data-name="Path 512" d="M237.982,199.333l-4.78,1.849a7.85,7.85,0,0,0-4.49,4.488l-1.847,4.78-1.849-4.78a7.843,7.843,0,0,0-4.49-4.488l-4.78-1.849,4.78-1.849a7.843,7.843,0,0,0,4.49-4.488l1.849-4.783L228.712,193a7.85,7.85,0,0,0,4.49,4.488Z" transform="translate(190.403 123.645)" fill="#fff"/>
              <path id="Path_514" data-name="Path 514" d="M95.259,90.312l-4.78,1.847a7.855,7.855,0,0,0-4.49,4.49l-1.849,4.78-1.847-4.78a7.862,7.862,0,0,0-4.49-4.49l-4.78-1.847,4.78-1.849a7.855,7.855,0,0,0,4.49-4.49l1.847-4.78,1.849,4.78a7.847,7.847,0,0,0,4.49,4.49Z" transform="translate(-32.472 -46.601)" fill="#fff"/>
            </g>
          </g>
        </g>
      </g>
    </g>
  </g>
</svg>
