<svg xmlns="http://www.w3.org/2000/svg" xmlns:xlink="http://www.w3.org/1999/xlink" width="557.211" height="559.329" viewBox="0 0 557.211 559.329">
  <defs>
    <filter id="Path_263" x="-0.002" y="0" width="557.212" height="559.329" filterUnits="userSpaceOnUse">
      <feOffset dy="10" input="SourceAlpha"/>
      <feGaussianBlur stdDeviation="5" result="blur"/>
      <feFlood flood-opacity="0.251"/>
      <feComposite operator="in" in2="blur"/>
      <feComposite in="SourceGraphic"/>
    </filter>
  </defs>
  <g id="Group_545" data-name="Group 545" transform="translate(-245.856 -17.66)">
    <g id="Group_92" data-name="Group 92" transform="translate(260.855 22.66)">
      <g transform="matrix(1, 0, 0, 1, -15, -5)" filter="url(#Path_263)">
        <path id="Path_263-2" data-name="Path 263" d="M405.925,551.989c-17.279,0-30.695-2.844-40.79-8.676h-88.87A15.41,15.41,0,0,1,260.855,527.9V245.646c0-122.955,100.031-222.986,222.986-222.986H565.08c122.955,0,222.986,100.031,222.986,222.986V527.9a15.411,15.411,0,0,1-15.409,15.409H700.931c-9.733,3.786-21.7,5.632-36.423,5.632-14.641,0-32.076-1.9-51.832-5.632H469.45C444.571,549.072,423.206,551.989,405.925,551.989Z" transform="translate(-245.86 -17.66)" fill="#fff"/>
      </g>
    </g>
    <g id="Group_161" data-name="Group 161" transform="translate(276.374 38.069)">
      <g id="Group_93" data-name="Group 93">
        <path id="Rectangle_13" data-name="Rectangle 13" d="M214.27,0h67.851a214.27,214.27,0,0,1,214.27,214.27V489.834a0,0,0,0,1,0,0H0a0,0,0,0,1,0,0V214.27A214.27,214.27,0,0,1,214.27,0Z" fill="#ececec"/>
      </g>
      <g id="Group_95" data-name="Group 95" transform="translate(52.022 71.256)">
        <g id="Group_94" data-name="Group 94">
          <path id="Path_264" data-name="Path 264" d="M669.923,247.649l-85.48,21.132,70.934,52.176-87.053-13.3,45.515,75.388-75.386-45.518,13.3,87.052-52.173-70.936-21.131,85.481-21.132-85.481L405.14,424.577l13.3-87.054-75.388,45.515,45.518-75.386-87.052,13.3,70.936-52.173-85.481-21.131,85.481-21.131L301.52,174.341l87.054,13.3-45.515-75.388,75.386,45.518-13.3-87.052,52.173,70.936,21.131-85.48,21.131,85.48,52.176-70.934-13.3,87.054,75.388-45.515-45.518,75.386,87.052-13.3-70.936,52.173Z" transform="translate(-286.974 -56.174)" fill="#0a889c"/>
        </g>
      </g>
      <g id="Group_96" data-name="Group 96" transform="translate(341.764 228.192)">
        <path id="Path_265" data-name="Path 265" d="M399.02,118.4l.1-1.539S402.589,123.462,399.02,118.4Z" transform="translate(-399.02 -116.863)" fill="#ffa3a3"/>
      </g>
      <g id="Group_97" data-name="Group 97" transform="translate(341.764 228.192)">
        <path id="Path_266" data-name="Path 266" d="M399.02,118.4l.1-1.539S402.589,123.462,399.02,118.4Z" transform="translate(-399.02 -116.863)" fill="#6f66ff"/>
      </g>
      <g id="Group_135" data-name="Group 135" transform="translate(83.527 66.78)">
        <g id="Group_98" data-name="Group 98" transform="translate(0 100.412)">
          <path id="Path_267" data-name="Path 267" d="M651.907,401.264c-18.8,48.977-175.723-6.113-175.723-6.113s-160.878,60.329-175.749,8.3c-12.172-42.582,65.9-92.2,94.616-108.792,6.369-3.672,10.3-5.728,10.3-5.728l-.437-3.261L386.988,147.723s19.878-11.686,37.729-16.1l.308-.078c17.028-4.161,25.761-6.7,26.2-10.711a1.766,1.766,0,0,0,.026-.641,72.274,72.274,0,0,1,.67-10.17c.794-7.166,1.976-15.205,1.976-15.205l49.285-1.541s-5.136,24.708-2.079,29.973c1.593,2.749,14.768,8.347,27.84,14.383,11.968,5.5,23.86,11.378,26.813,15.769.667,1,1.208,1.8,1.645,2.413l-8.117,124.127-.538,8.117s3.364,1.771,8.911,4.955C585.387,308.986,667.573,360.456,651.907,401.264Z" transform="translate(-299.157 -93.274)" fill="#ffa3a3"/>
        </g>
        <g id="Group_99" data-name="Group 99" transform="translate(152.051 115.181)">
          <path id="Path_268" data-name="Path 268" d="M393.18,98.985c-2.49,5.65-8.014,8.914-13.638,11.456a36.062,36.062,0,0,1-11.352,3.338,17.331,17.331,0,0,1-10.222-2,1.766,1.766,0,0,0,.026-.641,72.274,72.274,0,0,1,.67-10.17A82.059,82.059,0,0,0,393.18,98.985Z" transform="translate(-357.957 -98.985)" fill="#ff7373"/>
        </g>
        <g id="Group_100" data-name="Group 100" transform="translate(87.831 138.759)">
          <path id="Path_269" data-name="Path 269" d="M501.884,129.882c.667,1,1.208,1.8,1.645,2.413l-8.655,132.244s3.364,1.771,8.911,4.955q-31.434,2.044-62.975,1.541c-33.234-.512-66.647-3.157-99.625.1,6.369-3.672,10.3-5.728,10.3-5.728l-18.363-141.2S353,112.52,370.85,108.1a104.778,104.778,0,0,0,53.42,16.051,121.843,121.843,0,0,0,50.8-10.041C487.038,119.608,498.931,125.491,501.884,129.882Z" transform="translate(-333.122 -108.103)" fill="#fff"/>
        </g>
        <g id="Group_109" data-name="Group 109" transform="translate(0 287.077)">
          <g id="Group_101" data-name="Group 101">
            <path id="Path_270" data-name="Path 270" d="M651.907,286.785c-18.8,48.977-175.723-6.113-175.723-6.113S315.306,341,300.435,288.967c-12.172-42.582,65.9-92.2,94.616-108.792,6.369-3.672,10.3-5.728,10.3-5.728l-.437-3.261,144.364-5.728-.538,8.117s3.364,1.771,8.911,4.955C585.387,194.507,667.573,245.977,651.907,286.785Z" transform="translate(-299.157 -165.459)" fill="#2d1026"/>
          </g>
          <g id="Group_108" data-name="Group 108" transform="translate(58.345 39.549)">
            <g id="Group_104" data-name="Group 104" transform="translate(0 22.711)">
              <g id="Group_102" data-name="Group 102" transform="translate(193.757)">
                <path id="Path_271" data-name="Path 271" d="M444.708,221.385a.631.631,0,0,1-.491-.23,95.41,95.41,0,0,0-47.1-30.359.642.642,0,1,1,.346-1.236A96.684,96.684,0,0,1,445.2,220.33a.643.643,0,0,1-.491,1.055Z" transform="translate(-396.647 -189.535)" fill="#925cd5"/>
              </g>
              <g id="Group_103" data-name="Group 103" transform="translate(0 10.782)">
                <path id="Path_272" data-name="Path 272" d="M322.362,201.874a.643.643,0,0,1-.109-1.277l40-6.884a.643.643,0,0,1,.217,1.267l-40,6.884A.489.489,0,0,1,322.362,201.874Z" transform="translate(-321.719 -193.705)" fill="#925cd5"/>
              </g>
            </g>
            <g id="Group_105" data-name="Group 105" transform="translate(40.313)">
              <path id="Path_273" data-name="Path 273" d="M337.309,214.559l39.016,54.754s16.066-3.936,48.2-16.723,107.541-68.2,98.689-71.146-75.739,4.59-80.983,3.279-16.066-5.573-18.363-.328-4.916,12.131-4.916,12.131Z" transform="translate(-337.309 -180.753)" fill="#ffa3a3"/>
            </g>
            <g id="Group_106" data-name="Group 106" transform="translate(22.465 5.224)">
              <path id="Path_274" data-name="Path 274" d="M357.435,208.73s-34.426-20-25.572-24.915,70.489,9.18,78.03,9.18,16.723,3.933,16.723,3.933l-64.591,16.721Z" transform="translate(-330.407 -182.773)" fill="#ffa3a3"/>
            </g>
            <g id="Group_107" data-name="Group 107" transform="translate(39.67 15.132)">
              <path id="Path_275" data-name="Path 275" d="M337.7,205.92a.642.642,0,0,1-.14-1.27l81.64-18.032a.642.642,0,0,1,.277,1.254L337.84,205.9A.616.616,0,0,1,337.7,205.92Z" transform="translate(-337.06 -186.605)" fill="#2d1026"/>
            </g>
          </g>
        </g>
        <g id="Group_128" data-name="Group 128" transform="translate(117.753)">
          <g id="Group_123" data-name="Group 123" transform="translate(6.133 22.188)">
            <g id="Group_110" data-name="Group 110">
              <path id="Path_276" data-name="Path 276" d="M348.456,126.2c1.1,9.172,3.173,20.545,10.636,26.824,15.942,13.429,66.305-1.89,66.305-1.89s.8-3.977,1.808-9.894c0,1.314,11.047.016,12.1-.347a17.539,17.539,0,0,0,8.448-6.048c4.308-5.769,3.946-14.233-1.528-19.164-2.547-2.3-6.245-3.9-9.7-3.207-1.215.248-4.143,1.1-5.358,2.433a1.785,1.785,0,0,0-.559,1.1c.641-7.085.872-13.806.246-18.59-2.1-15.945-15.73-32.513-37.147-34.2a64.744,64.744,0,0,0-8.743-.083c-.856.034-1.678.083-2.516.181-.4.034-.789.1-1.184.147a4.4,4.4,0,0,0-.476.065c-.132.018-.264.052-.393.067-.46.065-.921.132-1.381.215-11.44,1.989-21.091,8.528-26.612,18.818-3.5,6.542-4.931,13.824-5.26,21.254A137.27,137.27,0,0,0,348.456,126.2Z" transform="translate(-347.065 -63.024)" fill="#ffa3a3"/>
            </g>
            <g id="Group_117" data-name="Group 117" transform="translate(6.49 50.349)">
              <g id="Group_111" data-name="Group 111" transform="translate(34.347 1.414)">
                <path id="Path_277" data-name="Path 277" d="M372.913,88.678a16.844,16.844,0,0,1-9.521-2.969,1.232,1.232,0,1,1,1.4-2.027,14.274,14.274,0,0,0,16.762-.388,1.232,1.232,0,0,1,1.495,1.96,16.869,16.869,0,0,1-9.757,3.419C373.164,88.676,373.04,88.678,372.913,88.678Z" transform="translate(-362.857 -83.041)" fill="#2d1026"/>
              </g>
              <g id="Group_112" data-name="Group 112">
                <path id="Path_278" data-name="Path 278" d="M358.07,88.607c-.235,0-.468-.008-.7-.023a10.479,10.479,0,0,1-7.546-4.119,1.232,1.232,0,1,1,1.973-1.477,7.882,7.882,0,0,0,11.88.846,1.233,1.233,0,0,1,1.745,1.743A10.491,10.491,0,0,1,358.07,88.607Z" transform="translate(-349.575 -82.494)" fill="#2d1026"/>
              </g>
              <g id="Group_116" data-name="Group 116" transform="translate(21.747 12.995)">
                <g id="Group_114" data-name="Group 114" transform="translate(3.358)">
                  <g id="Group_113" data-name="Group 113">
                    <path id="Path_279" data-name="Path 279" d="M359.694,89.838l-.046,0a.41.41,0,0,1-.362-.455,2.169,2.169,0,0,1,1.624-1.81,2.133,2.133,0,0,1,2.247.923.41.41,0,0,1-.69.442,1.287,1.287,0,0,0-2.364.54A.411.411,0,0,1,359.694,89.838Z" transform="translate(-359.283 -87.519)" fill="#2d1026"/>
                  </g>
                </g>
                <g id="Group_115" data-name="Group 115" transform="translate(0 4.067)">
                  <path id="Path_280" data-name="Path 280" d="M361.658,92.927a17.59,17.59,0,0,1-3.341-.336.413.413,0,0,1-.326-.481.409.409,0,0,1,.481-.326,14.623,14.623,0,0,0,5.725.075,9.33,9.33,0,0,0,4.918-2.635.41.41,0,0,1,.582-.021.415.415,0,0,1,.021.582,10.157,10.157,0,0,1-5.355,2.878A13.443,13.443,0,0,1,361.658,92.927Z" transform="translate(-357.984 -89.092)" fill="#2d1026"/>
                </g>
              </g>
            </g>
            <g id="Group_118" data-name="Group 118" transform="translate(81.002 55.097)">
              <path id="Path_281" data-name="Path 281" d="M378.8,101.9a.388.388,0,0,1-.075-.008.412.412,0,0,1-.328-.481,34.694,34.694,0,0,1,2.674-8.919,15.375,15.375,0,0,1,6.3-6.889,9.98,9.98,0,0,1,9.245-.259.412.412,0,1,1-.388.727,9.141,9.141,0,0,0-8.471.256,14.579,14.579,0,0,0-5.945,6.529,34.032,34.032,0,0,0-2.6,8.707A.41.41,0,0,1,378.8,101.9Z" transform="translate(-378.389 -84.33)" fill="#2d1026"/>
            </g>
            <g id="Group_121" data-name="Group 121" transform="translate(6.619 38.08)">
              <g id="Group_119" data-name="Group 119">
                <path id="Path_282" data-name="Path 282" d="M362.1,79.894a.191.191,0,0,0,.1-.339A8,8,0,0,0,349.639,82.9a.19.19,0,0,0,.292.217,10.678,10.678,0,0,1,2.772-1.094A44.243,44.243,0,0,1,362.1,79.894Z" transform="translate(-349.625 -77.75)" fill="#2d1026"/>
              </g>
              <g id="Group_120" data-name="Group 120" transform="translate(39.999)">
                <path id="Path_283" data-name="Path 283" d="M365.267,79.894a.19.19,0,0,1-.1-.339A8,8,0,0,1,377.728,82.9a.19.19,0,0,1-.292.217,10.661,10.661,0,0,0-2.775-1.094A44.257,44.257,0,0,0,365.267,79.894Z" transform="translate(-365.093 -77.75)" fill="#2d1026"/>
              </g>
            </g>
            <g id="Group_122" data-name="Group 122" transform="translate(25.68 50.38)">
              <path id="Path_284" data-name="Path 284" d="M358.512,98.355a.346.346,0,0,1-.209-.075,4.2,4.2,0,0,1-1.3-3.408,12.385,12.385,0,0,1,.6-3.01l.132-.468a36.1,36.1,0,0,0,1.311-8.577.323.323,0,0,1,.323-.31h.008a.323.323,0,0,1,.313.331,36.723,36.723,0,0,1-1.337,8.73l-.134.471a12.135,12.135,0,0,0-.577,2.857,3.563,3.563,0,0,0,1.078,2.894.321.321,0,0,1-.207.566Z" transform="translate(-356.996 -82.506)" fill="#2d1026"/>
            </g>
          </g>
          <g id="Group_127" data-name="Group 127">
            <g id="Group_124" data-name="Group 124" transform="translate(65.51)">
              <path id="Path_285" data-name="Path 285" d="M373.1,79.479a12.843,12.843,0,0,1,1.637-8.968,26.158,26.158,0,0,1,6.157-6.935c5.885-4.934,13.062-8.694,20.731-9.1,9.061-.476,18.055,3.956,23.886,10.907s8.619,16.183,8.51,25.254c-.111,9.149-3.287,18.557-10.051,24.719a38.131,38.131,0,0,1-11.846,6.951c-4.179,1.647-8.727,2.881-13.134,2.009-4.774-.944-8.73-4.225-12.143-7.693a82.066,82.066,0,0,1-11.05-13.987c-3.938-6.286-7.093-13.8-5.221-20.98" transform="translate(-370.027 -54.444)" fill="#2d1026"/>
            </g>
            <g id="Group_125" data-name="Group 125" transform="translate(0 14.546)">
              <path id="Path_286" data-name="Path 286" d="M416.423,68.347s-3.287,3.956-9.837,14.435a45.419,45.419,0,0,0-6.78,20.982l-14.817-.178a113.5,113.5,0,0,1-.259-15.1,51.021,51.021,0,0,0-2.338,15.076l-37.677-.437c-.871-26.684,23.834-40.014,41.967-42.634A38.4,38.4,0,0,1,416.423,68.347Z" transform="translate(-344.693 -60.068)" fill="#2d1026"/>
            </g>
            <g id="Group_126" data-name="Group 126" transform="translate(62.392 21.311)">
              <path id="Path_287" data-name="Path 287" d="M373.029,65.452c-3.98,5.167-4.647,12.185-3.985,18.673a54.541,54.541,0,0,0,4.474,16.731,31.5,31.5,0,0,0,3.959,6.778,22.288,22.288,0,0,0,11.494,7.579c.491,3.137.828,5.549,1.319,8.686,1.911-2.537,3.907-5.542,5.821-8.078,1.376-1.823,3.481-.551,4.776-2.431.768-1.117.972-4.74,1.128-6.09,1.032-9,.517-18.376-3.08-26.689s-10.592-15.446-19.356-17.742A6.283,6.283,0,0,0,373.029,65.452Z" transform="translate(-368.821 -62.685)" fill="#2d1026"/>
            </g>
          </g>
        </g>
        <g id="Group_131" data-name="Group 131" transform="translate(34.067 150.486)">
          <g id="Group_129" data-name="Group 129" transform="translate(4.898 2.733)">
            <path id="Path_288" data-name="Path 288" d="M371.3,113.695s-34.426,25.572-45.9,60.655S309.327,265.824,321.132,275s46.885-15.738,54.1-20.656,65.245-49.507,67.213-52.129,8.2-89.509,3.936-88.2-24.592,61.966-24.592,61.966l-53.878,29.945,16.829-29.945Z" transform="translate(-314.225 -113.695)" fill="#ffa3a3"/>
          </g>
          <g id="Group_130" data-name="Group 130">
            <path id="Path_289" data-name="Path 289" d="M312.331,171.654l63.28,31.584,19.343-31.147-21.2-59.453S337.249,127.5,312.331,171.654Z" transform="translate(-312.331 -112.638)" fill="#fff"/>
          </g>
        </g>
        <g id="Group_134" data-name="Group 134" transform="translate(174.05 153.765)">
          <g id="Group_132" data-name="Group 132" transform="translate(0 1.311)">
            <path id="Path_290" data-name="Path 290" d="M442.439,114.413s31.036,16.94,44.716,61.312C498.031,211,503.22,267.2,491.418,276.379s-46.885-15.738-54.1-20.654-65.245-49.51-67.211-52.132-6.03-90.055-1.769-88.743,22.422,62.515,22.422,62.515l53.88,29.945-16.829-29.945Z" transform="translate(-366.464 -114.413)" fill="#ffa3a3"/>
          </g>
          <g id="Group_133" data-name="Group 133" transform="translate(53.679)">
            <path id="Path_291" data-name="Path 291" d="M387.222,182.976l24.5,25.138,51.566-15.738s-8.96-36.72-24.481-54.426-30.819-24.044-30.819-24.044l-17.049,34.755Z" transform="translate(-387.222 -113.906)" fill="#fff"/>
          </g>
        </g>
      </g>
      <g id="Group_159" data-name="Group 159" transform="translate(24.263 66.665)">
        <g id="Group_148" data-name="Group 148" transform="translate(1.288 41.763)">
          <g id="Group_138" data-name="Group 138" transform="translate(52.905)">
            <g id="Group_136" data-name="Group 136">
              <path id="Path_292" data-name="Path 292" d="M351.2,108.044c-1.484-2.539-4.67-3.444-7.569-3.933-7.724-1.3-15.746-1.252-23.131-3.863a33.806,33.806,0,0,1-17.119-13.633c-2.77-4.365-4.489-9.3-6.185-14.179,12.433-2.819,25.507-3.075,36.485,3.406a27.176,27.176,0,0,1,9.565,9.066c2.123,3.5,3.2,7.517,4.233,11.479C348.327,99.653,350.386,104.771,351.2,108.044Z" transform="translate(-297.196 -70.549)" fill="#f29697"/>
            </g>
            <g id="Group_137" data-name="Group 137" transform="translate(1.721 2.46)">
              <path id="Path_293" data-name="Path 293" d="M350.365,107.573a.5.5,0,0,1-.471-.313c-.918-2.252-1.846-4.538-2.958-6.679-4.166-8.053-11.494-15.135-20.638-19.948-7.846-4.135-17-6.775-27.969-8.073a.528.528,0,0,1-.463-.59.5.5,0,0,1,.59-.465c11.1,1.314,20.374,3.993,28.339,8.187,9.333,4.913,16.821,12.156,21.086,20.4,1.133,2.188,2.074,4.494,2.982,6.726a.55.55,0,0,1-.284.714A.567.567,0,0,1,350.365,107.573Z" transform="translate(-297.861 -71.5)" fill="#2d1026"/>
            </g>
          </g>
          <g id="Group_141" data-name="Group 141" transform="translate(368.267 27.092)">
            <g id="Group_139" data-name="Group 139" transform="translate(0 0.664)">
              <path id="Path_294" data-name="Path 294" d="M464.7,81.283c-2.78.957-4.3,3.9-5.345,6.651-2.793,7.316-4.316,15.192-8.327,21.921a33.809,33.809,0,0,1-16.731,14.106c-4.823,1.859-9.995,2.578-15.115,3.282-.323-12.741,1.991-25.613,10.5-35.1a27.2,27.2,0,0,1,10.77-7.6c3.85-1.394,8-1.665,12.087-1.9C455.9,82.452,461.326,81.438,464.7,81.283Z" transform="translate(-419.15 -81.283)" fill="#f0c59b"/>
            </g>
            <g id="Group_140" data-name="Group 140" transform="translate(1.02)">
              <path id="Path_295" data-name="Path 295" d="M420.076,126.194a.536.536,0,0,1-.5-.7c3.468-10.633,7.916-19.2,13.592-26.18,6.648-8.184,15.221-14.106,24.14-16.669,2.387-.685,4.846-1.156,7.228-1.611a.519.519,0,0,1,.621.422.53.53,0,0,1-.422.621c-2.358.453-4.794.918-7.132,1.588-8.712,2.506-17.1,8.3-23.612,16.32-5.591,6.881-9.976,15.334-13.405,25.841A.534.534,0,0,1,420.076,126.194Z" transform="translate(-419.544 -81.026)" fill="#2d1026"/>
            </g>
          </g>
          <g id="Group_144" data-name="Group 144" transform="translate(384.205 169.379)">
            <g id="Group_142" data-name="Group 142">
              <path id="Path_296" data-name="Path 296" d="M488.72,159.755c-2.327-1.8-5.622-1.448-8.492-.817-7.649,1.683-15.068,4.735-22.893,5.079a33.816,33.816,0,0,1-20.98-6.237c-4.2-3.007-7.641-6.938-11.042-10.83,10.473-7.266,22.5-12.4,35.1-10.5a27.162,27.162,0,0,1,12.265,4.828c3.279,2.451,5.785,5.772,8.223,9.061C482.914,153.047,486.739,157.022,488.72,159.755Z" transform="translate(-425.313 -136.05)" fill="#ff7373"/>
            </g>
            <g id="Group_143" data-name="Group 143" transform="translate(1.968 7.227)">
              <path id="Path_297" data-name="Path 297" d="M487.916,156.244a.506.506,0,0,1-.367-.158c-1.686-1.735-3.408-3.512-5.242-5.086-6.876-5.906-16.325-9.731-26.6-10.773-8.828-.9-18.3.08-28.96,2.987a.532.532,0,0,1-.282-1.027c10.794-2.938,20.387-3.923,29.348-3.018C466.3,140.234,475.959,144.147,483,150.2c1.87,1.606,3.607,3.4,5.291,5.13a.537.537,0,0,1-.375.918Z" transform="translate(-426.074 -138.845)" fill="#2d1026"/>
            </g>
          </g>
          <g id="Group_147" data-name="Group 147" transform="translate(0 170.254)">
            <g id="Group_145" data-name="Group 145" transform="translate(0.802)">
              <path id="Path_298" data-name="Path 298" d="M277.047,160.093c2.325-1.8,5.619-1.448,8.492-.817,7.649,1.683,15.068,4.735,22.893,5.079a33.8,33.8,0,0,0,20.977-6.237c4.2-3.007,7.644-6.938,11.042-10.83-10.47-7.266-22.5-12.4-35.1-10.5a27.214,27.214,0,0,0-12.265,4.828c-3.279,2.451-5.785,5.772-8.223,9.061C282.85,153.385,279.028,157.36,277.047,160.093Z" transform="translate(-277.047 -136.388)" fill="#f0c59b"/>
            </g>
            <g id="Group_146" data-name="Group 146" transform="translate(0 7.225)">
              <path id="Path_299" data-name="Path 299" d="M277.521,156.407l-.784-.721c1.7-1.753,3.442-3.545,5.314-5.154,7.145-6.131,16.545-9.945,27.188-11.024,8.947-.908,18.551.078,29.345,3.018a.53.53,0,0,1,.372.652.523.523,0,0,1-.654.375c-10.664-2.907-20.134-3.889-28.957-2.987-10.276,1.042-19.725,4.867-26.6,10.773C280.908,152.913,279.186,154.69,277.521,156.407Z" transform="translate(-276.737 -139.182)" fill="#2d1026"/>
            </g>
          </g>
        </g>
        <g id="Group_149" data-name="Group 149" transform="translate(0 133.335)">
          <path id="Path_300" data-name="Path 300" d="M311.648,123.664l-7.613,2.943a12.5,12.5,0,0,0-7.148,7.15l-2.945,7.613L291,133.757a12.505,12.505,0,0,0-7.15-7.15l-7.61-2.943,7.61-2.943a12.5,12.5,0,0,0,7.15-7.15l2.943-7.61,2.945,7.61a12.493,12.493,0,0,0,7.148,7.15Z" transform="translate(-276.239 -105.961)" fill="#fedede"/>
        </g>
        <g id="Group_158" data-name="Group 158" transform="translate(1.316)">
          <g id="Group_152" data-name="Group 152" transform="translate(0 269.398)">
            <g id="Group_150" data-name="Group 150" transform="translate(378.578)">
              <path id="Path_301" data-name="Path 301" d="M423.164,189.273A34.181,34.181,0,1,0,469.8,158.578a34.2,34.2,0,0,1-46.637,30.695Z" transform="translate(-423.148 -158.578)" fill="#fff"/>
            </g>
            <g id="Group_151" data-name="Group 151" transform="translate(0 14.861)">
              <path id="Path_302" data-name="Path 302" d="M345.1,195.022a34.178,34.178,0,1,1-46.637-30.7,34.2,34.2,0,0,0,46.637,30.7Z" transform="translate(-276.748 -164.325)" fill="#fff"/>
            </g>
          </g>
          <g id="Group_157" data-name="Group 157" transform="translate(1.307)">
            <g id="Group_153" data-name="Group 153" transform="translate(337.922)">
              <path id="Path_303" data-name="Path 303" d="M443.34,72.1l-7.61,2.943a12.505,12.505,0,0,0-7.15,7.15l-2.943,7.613L422.691,82.2a12.505,12.505,0,0,0-7.15-7.15l-7.61-2.943,7.61-2.943a12.5,12.5,0,0,0,7.15-7.15l2.945-7.613,2.943,7.613a12.5,12.5,0,0,0,7.15,7.15Z" transform="translate(-407.931 -54.399)" fill="#f29697"/>
            </g>
            <g id="Group_154" data-name="Group 154" transform="translate(406.555 134.209)">
              <path id="Path_304" data-name="Path 304" d="M469.881,124l-7.61,2.945a12.5,12.5,0,0,0-7.15,7.147l-2.943,7.613-2.943-7.613a12.508,12.508,0,0,0-7.15-7.147L434.472,124l7.613-2.943a12.5,12.5,0,0,0,7.15-7.15l2.943-7.61,2.943,7.61a12.5,12.5,0,0,0,7.15,7.15Z" transform="translate(-434.472 -106.299)" fill="#f29697"/>
            </g>
            <g id="Group_155" data-name="Group 155" transform="translate(412.676 359.781)">
              <path id="Path_305" data-name="Path 305" d="M472.248,211.236l-7.61,2.943a12.5,12.5,0,0,0-7.15,7.15l-2.943,7.61-2.945-7.61a12.5,12.5,0,0,0-7.15-7.15l-7.61-2.943,7.61-2.945a12.5,12.5,0,0,0,7.15-7.147l2.945-7.613,2.943,7.613a12.5,12.5,0,0,0,7.15,7.147Z" transform="translate(-436.839 -193.53)" fill="#f29697"/>
            </g>
            <g id="Group_156" data-name="Group 156" transform="translate(0 359.781)">
              <path id="Path_306" data-name="Path 306" d="M312.662,211.236l-7.61,2.943a12.5,12.5,0,0,0-7.15,7.15l-2.943,7.61-2.945-7.61a12.5,12.5,0,0,0-7.148-7.15l-7.613-2.943,7.613-2.945a12.5,12.5,0,0,0,7.148-7.147l2.945-7.613,2.943,7.613a12.5,12.5,0,0,0,7.15,7.147Z" transform="translate(-277.253 -193.53)" fill="#f29697"/>
            </g>
          </g>
        </g>
      </g>
      <g id="Group_160" data-name="Group 160" transform="translate(161.943 17.836)">
        <path id="Path_307" data-name="Path 307" d="M348.691,41.632a1.117,1.117,0,0,1,1.006-.153,1.3,1.3,0,0,1,.8.665,1.253,1.253,0,0,1,.088,1.021,1.207,1.207,0,0,1-.688.755l-1.045.44-.057.031c-.137.07-.166.184-.083.341l9.47,17.99a1.529,1.529,0,0,1-.654,2.1,1.871,1.871,0,0,1-1.839-.005L336.581,54.155c-.109-.067-.194-.085-.253-.054-.1.052-.1.155-.021.31l7.721,14.672a.265.265,0,0,0,.4.127q.38-.275.791-.528c.272-.168.52-.326.745-.468a1.152,1.152,0,0,1,1.024-.163,1.287,1.287,0,0,1,.812.657,1.237,1.237,0,0,1,.075,1.029,1.293,1.293,0,0,1-.706.763c-.579.233-1.091.445-1.536.644s-.866.4-1.257.6c-.372.194-.766.422-1.179.678s-.89.564-1.427.921a1.249,1.249,0,0,1-1,.132,1.234,1.234,0,0,1-.807-.644,1.285,1.285,0,0,1-.08-1.047,1.113,1.113,0,0,1,.68-.732l1.045-.437.057-.031c.14-.067.165-.181.083-.344l-8.929-16.958c-.09-.178-.217-.222-.372-.142a1.809,1.809,0,0,0-.468.359,1.743,1.743,0,0,1-.468.357,1.275,1.275,0,0,1-1.042.083,1.4,1.4,0,0,1-.822-.709,1.344,1.344,0,0,1-.078-1.143,1.281,1.281,0,0,1,.822-.789c.274-.093.559-.194.853-.3l.853-.3a4.027,4.027,0,0,1,1.758-.4,3.524,3.524,0,0,1,1.714.447L354.083,61.2c.111.067.2.088.256.054.1-.052.106-.155.023-.313l-7.926-15.055a.263.263,0,0,0-.4-.122c-.264.163-.533.326-.8.5s-.517.334-.734.5a1.265,1.265,0,0,1-1.024.15,1.231,1.231,0,0,1-.809-.644,1.289,1.289,0,0,1-.08-1.045,1.149,1.149,0,0,1,.714-.747c.6-.241,1.115-.455,1.549-.652s.848-.39,1.241-.595.789-.434,1.195-.685S348.156,41.988,348.691,41.632Z" transform="translate(-329.481 -26.151)" fill="#2d1026"/>
        <path id="Path_308" data-name="Path 308" d="M365.231,56.363a1.15,1.15,0,0,1,1.032,0,1.294,1.294,0,0,1,.7.776,1.25,1.25,0,0,1-.091,1.027,1.3,1.3,0,0,1-.817.649c-1.236.277-2.219.543-2.953.789a27.723,27.723,0,0,0-2.824,1.171,1.281,1.281,0,0,1-1.7-.791,1.323,1.323,0,0,1,.067-1.04,1.121,1.121,0,0,1,.8-.623c.24-.054.481-.116.732-.173s.5-.127.758-.189l.062-.023c.21-.07.225-.191.049-.367l-2.909-3.111a.347.347,0,0,0-.388-.114L346.7,58.093a.387.387,0,0,0-.241.328l-.416,4.238a.394.394,0,0,0,.018.168c.036.106.119.134.24.093a7.158,7.158,0,0,0,.758-.308c.248-.124.489-.23.709-.328a1.107,1.107,0,0,1,1.019.005,1.3,1.3,0,0,1,.685.781,1.251,1.251,0,0,1-.075,1.024,1.232,1.232,0,0,1-.8.639c-1.259.284-2.242.551-2.956.791a27.081,27.081,0,0,0-2.824,1.169,1.292,1.292,0,0,1-1.037-.016,1.244,1.244,0,0,1-.7-.763,1.269,1.269,0,0,1,.085-1.042,1.158,1.158,0,0,1,.817-.631,6.934,6.934,0,0,0,1.2-.3l.062-.021a.36.36,0,0,0,.217-.284l2.257-23.49a1.032,1.032,0,0,1,.742-.918,1,1,0,0,1,1.112.29l16.118,17.264a.34.34,0,0,0,.406.07A7.666,7.666,0,0,0,365.231,56.363ZM348.208,43.749c-.067-.114-.15-.158-.253-.124-.065.023-.1.106-.124.253l-1.076,11.288a.276.276,0,0,0,.013.14c.049.145.158.191.326.134l8.727-2.961c.253-.085.287-.222.1-.422Z" transform="translate(-311.199 -29.727)" fill="#2d1026"/>
        <path id="Path_309" data-name="Path 309" d="M379.939,57.555a1.166,1.166,0,0,1,1.016.2,1.3,1.3,0,0,1,.543.895,1.242,1.242,0,0,1-.282.993,1.286,1.286,0,0,1-.923.478c-.644.021-1.2.052-1.678.083s-.933.078-1.368.137c-.419.059-.864.137-1.342.238s-1.029.225-1.655.378a1.225,1.225,0,0,1-1-.209,1.262,1.262,0,0,1-.528-.884,1.3,1.3,0,0,1,.264-1.006,1.1,1.1,0,0,1,.908-.46c.287-.018.587-.039.895-.057s.623-.031.934-.031a.263.263,0,0,0,.256-.336l-2.451-17.706c-.023-.153-.078-.228-.166-.228s-.147.067-.173.209l-4.846,17.478a1.8,1.8,0,0,1-.507.8,1.534,1.534,0,0,1-.861.422,1.561,1.561,0,0,1-.928-.173,1.59,1.59,0,0,1-.693-.639l-8.934-15.7c-.041-.129-.1-.186-.191-.173-.111.013-.153.106-.129.282l2.47,17.84a.262.262,0,0,0,.336.253c.3-.085.6-.16.908-.225s.6-.127.877-.189a1.113,1.113,0,0,1,1,.194,1.316,1.316,0,0,1,.528.9,1.278,1.278,0,0,1-.266,1,1.216,1.216,0,0,1-.905.473c-.644.023-1.205.052-1.678.083s-.933.08-1.37.142-.892.137-1.355.238-1.014.222-1.639.378a1.307,1.307,0,0,1-1.016-.212,1.245,1.245,0,0,1-.543-.879,1.285,1.285,0,0,1,.282-1.009,1.154,1.154,0,0,1,.923-.465l1.1-.049.065-.01c.153-.023.215-.119.191-.295l-2.645-19.118c-.029-.222-.14-.295-.331-.225a5.591,5.591,0,0,0-.572.114c-.184.047-.372.083-.571.114a1.185,1.185,0,0,1-.939-.256,1.269,1.269,0,0,1-.484-.853,1.21,1.21,0,0,1,.295-1,1.232,1.232,0,0,1,.941-.45c.737-.01,1.347-.028,1.836-.049s.993-.072,1.52-.145a2.762,2.762,0,0,1,1.645.274,2.813,2.813,0,0,1,1.231,1.169l8.4,14.939c.083.124.158.181.222.171.111-.013.166-.088.171-.222L371.2,38.412a2.836,2.836,0,0,1,.892-1.43,2.8,2.8,0,0,1,1.523-.711c.548-.08,1.05-.168,1.5-.277s1.014-.253,1.681-.434a1.2,1.2,0,0,1,1.032.191,1.268,1.268,0,0,1,.559.895,1.209,1.209,0,0,1-.3,1,1.23,1.23,0,0,1-.944.45l-1,.036-.065.008c-.155.023-.22.122-.194.3l2.651,19.151c.031.22.15.292.365.217Z" transform="translate(-296.234 -35.516)" fill="#2d1026"/>
        <path id="Path_310" data-name="Path 310" d="M389.066,58.527a1.156,1.156,0,0,1,.959.388,1.3,1.3,0,0,1,.365.983,1.241,1.241,0,0,1-.465.921,1.281,1.281,0,0,1-1,.295,30.168,30.168,0,0,0-3.036-.365,28.132,28.132,0,0,0-3.059.031,1.228,1.228,0,0,1-.941-.4,1.26,1.26,0,0,1-.346-.965,1.311,1.311,0,0,1,.453-.941,1.105,1.105,0,0,1,.977-.277l.742.106c.251.036.509.072.773.106l.065.008c.22.01.282-.1.186-.323L383.2,54.126a.334.334,0,0,0-.318-.248l-11.655-.639a.4.4,0,0,0-.346.212l-1.963,3.778a.4.4,0,0,0-.044.168c-.005.111.06.165.191.176a7.759,7.759,0,0,0,.812-.008q.415-.027.784-.039a1.109,1.109,0,0,1,.944.383,1.313,1.313,0,0,1,.344.983,1.261,1.261,0,0,1-.45.923,1.233,1.233,0,0,1-.977.295q-1.912-.306-3.036-.367a27.493,27.493,0,0,0-3.059.034,1.289,1.289,0,0,1-.959-.4,1.226,1.226,0,0,1-.359-.965,1.269,1.269,0,0,1,.466-.939,1.16,1.16,0,0,1,1-.279,7.2,7.2,0,0,0,1.218.168l.07,0a.372.372,0,0,0,.308-.184L377,36.216a1.02,1.02,0,0,1,1.027-.571.992.992,0,0,1,.926.678l8.534,22.022a.346.346,0,0,0,.352.22A7.417,7.417,0,0,0,389.066,58.527Zm-11.1-18.039c-.016-.134-.078-.2-.189-.212-.065,0-.134.062-.207.189l-5.2,10.082a.3.3,0,0,0-.039.129c-.01.153.072.235.251.246l9.2.5c.266.016.349-.1.253-.352Z" transform="translate(-276.163 -35.317)" fill="#2d1026"/>
        <path id="Path_311" data-name="Path 311" d="M380.533,42.31a2.948,2.948,0,0,0,.114,2.188,4.848,4.848,0,0,0,1.479,1.707,19.32,19.32,0,0,0,2.278,1.458c.84.468,1.689.954,2.545,1.469a12.191,12.191,0,0,1,2.283,1.745,5.987,5.987,0,0,1,1.464,2.294,5.745,5.745,0,0,1,.1,3.069,6.044,6.044,0,0,1-1.81,3.338,7.309,7.309,0,0,1-3.382,1.745,9.56,9.56,0,0,1-4.135.023,10.117,10.117,0,0,1-4.567-2.007,10.3,10.3,0,0,1-2.493-2.876,3.316,3.316,0,0,1-.393-1.081,2.694,2.694,0,0,1,0-1A1.961,1.961,0,0,1,376.5,52.83a1.734,1.734,0,0,1,1.221.89,2.053,2.053,0,0,1,.261,1.474,1.965,1.965,0,0,1-.419.895.375.375,0,0,0-.021.437,5.617,5.617,0,0,0,1.779,1.495,8,8,0,0,0,2.221.807,7.893,7.893,0,0,0,2.932.054,5.522,5.522,0,0,0,2.48-1.052,3.428,3.428,0,0,0,1.308-2.1,2.86,2.86,0,0,0-.29-2.074A5.551,5.551,0,0,0,386.435,52a23.409,23.409,0,0,0-2.26-1.456c-.828-.473-1.66-.967-2.49-1.487a12.185,12.185,0,0,1-2.216-1.756,6.089,6.089,0,0,1-1.427-2.216,5.253,5.253,0,0,1-.119-2.9,6.357,6.357,0,0,1,1.911-3.672,6.435,6.435,0,0,1,3.323-1.526,10.782,10.782,0,0,1,3.788.093,11.758,11.758,0,0,1,3.341,1.2,7.7,7.7,0,0,1,2.384,1.924,2.644,2.644,0,0,1,.631,2.226,2.169,2.169,0,0,1-.89,1.29,1.981,1.981,0,0,1-2.808-.571,1.986,1.986,0,0,1-.3-1.531,2.376,2.376,0,0,1,.07-.259c.028-.083.062-.168.1-.248.085-.189.116-.282.1-.287a4.248,4.248,0,0,0-1.2-.734,9.23,9.23,0,0,0-1.976-.623,7.852,7.852,0,0,0-2.327-.114,4.338,4.338,0,0,0-2.139.784A3.861,3.861,0,0,0,380.533,42.31Z" transform="translate(-258.921 -33.38)" fill="#2d1026"/>
        <path id="Path_312" data-name="Path 312" d="M402.429,49.418a1.183,1.183,0,0,1-.659.822,1.336,1.336,0,0,1-1.094.07,1.354,1.354,0,0,1-.809-1.795l1.027-2.418c.065-.186.015-.313-.153-.37L395.8,43.99a.262.262,0,0,0-.378.181L389.109,62.1c-.057.166-.016.277.134.328.266.093.551.176.846.248s.566.132.822.2a1.094,1.094,0,0,1,.8.634,1.3,1.3,0,0,1,.057,1.037,1.207,1.207,0,0,1-.675.727,1.227,1.227,0,0,1-1.027.01c-.582-.274-1.047-.486-1.394-.631s-.634-.266-.859-.354-.476-.184-.747-.282c-.292-.1-.553-.189-.789-.256s-.517-.158-.859-.251-.825-.222-1.453-.37a1.257,1.257,0,0,1-.776-.644,1.193,1.193,0,0,1-.088-1,1.291,1.291,0,0,1,.711-.771,1.117,1.117,0,0,1,1,0c.222.1.466.209.729.326l.794.349.059.023c.147.052.248-.005.308-.176l6.307-17.923a.266.266,0,0,0-.181-.383l-4.978-1.748c-.165-.059-.279.005-.346.194l-.714,2.524a1.182,1.182,0,0,1-.659.825,1.337,1.337,0,0,1-1.1.067,1.28,1.28,0,0,1-.791-.734,1.3,1.3,0,0,1-.016-1.058c.209-.468.434-.972.677-1.521s.468-1.1.688-1.658a2.118,2.118,0,0,1,1.083-1.13,1.937,1.937,0,0,1,1.515-.065l13.92,4.9a1.934,1.934,0,0,1,1.138,1.014,2.053,2.053,0,0,1,.109,1.536c-.155.577-.31,1.156-.468,1.733S402.579,48.929,402.429,49.418Z" transform="translate(-244.56 -30.759)" fill="#2d1026"/>
        <path id="Path_313" data-name="Path 313" d="M406.527,65.277a1.4,1.4,0,0,1,.69.827,1.161,1.161,0,0,1-.145,1.065l-1.461,2.379a2.005,2.005,0,0,1-1.21.959,1.95,1.95,0,0,1-1.531-.145l-10.416-5.417a7.992,7.992,0,0,0-1.179-.5c-.411-.142-.8-.284-1.179-.432a1.211,1.211,0,0,1-.809-.773,1.359,1.359,0,0,1,.085-1.135,1.31,1.31,0,0,1,.869-.706,1.261,1.261,0,0,1,1.094.233l.634.442.06.028a.231.231,0,0,0,.357-.114l8.8-16.912c.093-.176.059-.308-.1-.388a1.564,1.564,0,0,0-.494-.163,1.608,1.608,0,0,1-.494-.163,1.258,1.258,0,0,1-.631-.8,1.329,1.329,0,0,1,.083-1.024,1.363,1.363,0,0,1,.879-.719,1.23,1.23,0,0,1,1.1.217c.37.243.752.5,1.143.784a9.931,9.931,0,0,0,1.146.709l10.238,5.324a1.987,1.987,0,0,1,1,1.174,2.023,2.023,0,0,1-.091,1.544l-1.112,2.56a1.174,1.174,0,0,1-.768.724,1.353,1.353,0,0,1-1.1-.085,1.3,1.3,0,0,1-.67-.8,1.284,1.284,0,0,1,.075-1.009c.145-.274.31-.556.5-.843s.372-.587.556-.89l.028-.059c.075-.134.031-.246-.127-.328l-8.59-4.471a.264.264,0,0,0-.4.129l-3.338,6.413a.268.268,0,0,0,.127.4l7.385,3.843a1.211,1.211,0,0,1,.626.737,1.224,1.224,0,0,1-.09.959,1.178,1.178,0,0,1-.729.613,1.249,1.249,0,0,1-.954-.1L399,55.531a.26.26,0,0,0-.4.127l-3.8,7.292a.263.263,0,0,0,.124.4l8.59,4.471c.2.1.321.057.375-.142.155-.341.295-.672.422-1a9.35,9.35,0,0,1,.4-.861,1.242,1.242,0,0,1,.786-.652A1.345,1.345,0,0,1,406.527,65.277Z" transform="translate(-234.772 -25.587)" fill="#2d1026"/>
      </g>
    </g>
  </g>
</svg>
