<svg xmlns="http://www.w3.org/2000/svg" width="260.35" height="76.099" viewBox="0 0 260.35 76.099">
  <g id="LOGO" transform="translate(358.737 151.221)">
    <g id="Group_1" data-name="Group 1">
      <g id="Path_3" data-name="Path 3" fill="#0a889c" stroke-miterlimit="10">
        <path d="M -341.6383056640625 -85.36798095703125 C -341.8152465820312 -85.36798095703125 -341.9917907714844 -85.38982391357422 -342.1630859375 -85.43292236328125 C -345.0741577148438 -85.99392700195312 -347.8758544921875 -87.21990203857422 -350.2651062011719 -88.97833251953125 L -350.2835998535156 -88.991943359375 L -350.2960510253906 -89.01124572753906 C -350.6552734375 -89.56806182861328 -351.0335388183594 -90.12643432617188 -351.3993530273438 -90.66643524169922 C -352.1537780761719 -91.78007507324219 -352.9338684082031 -92.93163299560547 -353.5946350097656 -94.13898468017578 C -356.0015869140625 -98.49869537353516 -357.5541381835938 -103.2126693725586 -358.2088928222656 -108.1495742797852 C -358.2694702148438 -108.4996566772461 -358.2242126464844 -108.862060546875 -358.0772399902344 -109.1927642822266 L -358.0704040527344 -109.2081298828125 L -358.0597534179688 -109.2211456298828 C -351.5243530273438 -117.2108612060547 -342.3061828613281 -122.4799957275391 -332.1041870117188 -124.0580444335938 C -331.048828125 -124.2739715576172 -329.9674377441406 -124.3834533691406 -328.8899230957031 -124.3834533691406 C -327.1453857421875 -124.3834533691406 -325.4224853515625 -124.1011734008789 -323.7691040039062 -123.5444641113281 L -323.7662048339844 -123.5434951782227 L -323.7633666992188 -123.5423812866211 C -322.544189453125 -123.0644683837891 -321.4495239257812 -122.3589706420898 -320.5098571777344 -121.4455413818359 C -318.0537109375 -119.3573150634766 -316.06591796875 -116.8428192138672 -314.6016540527344 -113.971794128418 L -314.5991516113281 -113.9668731689453 L -314.5970764160156 -113.9617462158203 C -314.3905944824219 -113.4496231079102 -313.9001159667969 -113.1187057495117 -313.3475646972656 -113.1187057495117 C -313.1749267578125 -113.1187057495117 -313.0054016113281 -113.1517562866211 -312.84375 -113.2169342041016 L -312.8025512695312 -113.2347640991211 L -312.7944946289062 -113.2382354736328 L -312.7860412597656 -113.2405548095703 C -311.556396484375 -113.5778045654297 -310.8303527832031 -114.8524398803711 -311.1675415039062 -116.0819320678711 C -311.1841430664062 -116.140022277832 -311.2030029296875 -116.1987533569336 -311.2247924804688 -116.2602005004883 C -311.7306518554688 -117.5459060668945 -312.3529052734375 -118.7990798950195 -313.07275390625 -119.9809722900391 L -313.0747680664062 -119.984260559082 L -313.0765686035156 -119.987663269043 C -313.3688354492188 -120.5416793823242 -313.5856628417969 -121.1322402954102 -313.7210388183594 -121.7429428100586 C -314.083740234375 -123.1264190673828 -313.2505798339844 -124.5518798828125 -311.8627014160156 -124.915901184082 C -311.6481628417969 -124.972785949707 -311.4263916015625 -125.0016708374023 -311.2038269042969 -125.0016708374023 C -311.1416625976562 -125.0016708374023 -311.0787048339844 -124.999382019043 -311.0166320800781 -124.994873046875 C -309.8057250976562 -124.9615325927734 -308.6473388671875 -124.5681228637695 -307.666015625 -123.8569259643555 C -305.2145690917969 -122.2417526245117 -302.9322509765625 -120.3560638427734 -300.8824462890625 -118.2522354125977 C -300.3812561035156 -117.7146224975586 -299.9275207519531 -117.1317138671875 -299.5319213867188 -116.517692565918 C -299.2181091308594 -116.0151901245117 -298.6791076660156 -115.7160797119141 -298.089111328125 -115.7160797119141 C -297.9344787597656 -115.7160797119141 -297.7802734375 -115.7373657226562 -297.6307678222656 -115.7793426513672 C -296.9631958007812 -115.9762496948242 -296.5208435058594 -116.6240921020508 -296.5805358886719 -117.3193130493164 L -296.5808715820312 -117.3232116699219 L -296.5809631347656 -117.3271255493164 C -296.6154479980469 -118.8231658935547 -297.0732727050781 -120.2725524902344 -297.9049682617188 -121.5186004638672 L -297.9071044921875 -121.5218200683594 L -297.9090576171875 -121.5251693725586 C -299.1397705078125 -123.6423797607422 -300.6740417480469 -125.56396484375 -302.4692077636719 -127.2365417480469 C -302.5122375488281 -127.2770538330078 -302.5730285644531 -127.3183822631836 -302.6373596191406 -127.3621292114258 C -302.8281555175781 -127.4918518066406 -303.116455078125 -127.6878814697266 -302.94580078125 -127.9895553588867 C -302.8464965820312 -128.166259765625 -302.6877746582031 -128.2598419189453 -302.4869384765625 -128.2598419189453 C -302.2805480957031 -128.2598419189453 -302.0642395019531 -128.1629486083984 -301.8798522949219 -128.0681762695312 C -300.3839721679688 -127.2292785644531 -298.9891967773438 -126.2178039550781 -297.7301940917969 -125.0595626831055 C -295.8548583984375 -123.534294128418 -294.2183532714844 -121.7427520751953 -292.8663024902344 -119.7348251342773 C -292.5035705566406 -119.1538009643555 -291.9974670410156 -118.6775436401367 -291.4004211425781 -118.353889465332 L -291.3957824707031 -118.3513717651367 L -291.391357421875 -118.3484725952148 C -291.1284484863281 -118.1757202148438 -290.8240356445312 -118.0844116210938 -290.5110168457031 -118.0844116210938 C -289.9677124023438 -118.0844116210938 -289.4654541015625 -118.3551559448242 -289.1674499511719 -118.8086318969727 C -288.9847412109375 -119.0855255126953 -288.8936767578125 -119.4075622558594 -288.9039306640625 -119.7401428222656 C -288.9039916992188 -120.8763732910156 -289.2346496582031 -121.9742660522461 -289.8602294921875 -122.9189910888672 L -289.8617858886719 -122.9213027954102 L -289.8631896972656 -122.9236831665039 C -292.2379760742188 -126.8813018798828 -295.2565002441406 -130.3653564453125 -298.8349304199219 -133.2790679931641 C -298.8901672363281 -133.3264465332031 -298.9462585449219 -133.3678894042969 -299.0056457519531 -133.4117736816406 C -299.0588684082031 -133.4511260986328 -299.1139221191406 -133.4918060302734 -299.1669311523438 -133.5359039306641 C -299.1833801269531 -133.5495758056641 -299.2009887695312 -133.5627593994141 -299.2186584472656 -133.5760345458984 C -299.3182067871094 -133.65087890625 -299.4848022460938 -133.7761383056641 -299.4046630859375 -134.0001068115234 C -299.3435668945312 -134.1675567626953 -299.2044372558594 -134.2593841552734 -299.0126953125 -134.2593841552734 C -298.956787109375 -134.2593841552734 -298.8973999023438 -134.2520141601562 -298.8311462402344 -134.2368469238281 C -298.5286865234375 -134.1698608398438 -298.2281494140625 -134.0744018554688 -297.9387512207031 -133.9533081054688 L -297.9358520507812 -133.9520874023438 L -297.9330444335938 -133.9507446289062 C -295.7067565917969 -132.8852691650391 -293.6308898925781 -131.5244598388672 -291.7631225585938 -129.9061737060547 C -290.0844116210938 -128.5699920654297 -288.4219055175781 -127.1579208374023 -286.8142395019531 -125.7924194335938 C -286.5343322753906 -125.5546951293945 -286.25439453125 -125.3169097900391 -285.9741516113281 -125.0793533325195 L -285.9664306640625 -125.0727920532227 L -285.9598388671875 -125.065071105957 C -285.5924987792969 -124.6339263916016 -285.0569152832031 -124.3866500854492 -284.4904174804688 -124.3866500854492 C -284.1809387207031 -124.3866500854492 -283.8720092773438 -124.462760925293 -283.5969848632812 -124.6067428588867 C -282.8394470214844 -125.0325622558594 -282.4397583007812 -125.8950729370117 -282.605712890625 -126.7512130737305 L -282.6065063476562 -126.7551803588867 L -282.6069946289062 -126.7591934204102 C -282.7319030761719 -127.738883972168 -283.1210327148438 -128.6682586669922 -283.7323303222656 -129.4468078613281 C -285.7540283203125 -132.0848083496094 -288.17333984375 -134.3633880615234 -290.9239501953125 -136.2203979492188 L -290.9262084960938 -136.221923828125 L -290.9284057617188 -136.2235565185547 C -292.8439025878906 -137.6420745849609 -294.8758544921875 -138.9512634277344 -296.9677734375 -140.11474609375 C -297.0043334960938 -140.1350555419922 -297.0503540039062 -140.1539764404297 -297.0990295410156 -140.1740264892578 C -297.282958984375 -140.2497253417969 -297.5908203125 -140.3764343261719 -297.4842834472656 -140.7521057128906 C -297.3847045898438 -141.1032409667969 -296.9858703613281 -141.2025604248047 -296.794189453125 -141.2502899169922 C -296.5611267089844 -141.3084259033203 -296.3210754394531 -141.3379058837891 -296.0807189941406 -141.3379058837891 C -295.8832702636719 -141.3379058837891 -295.6849060058594 -141.3179168701172 -295.4910888671875 -141.2784881591797 C -292.6604614257812 -140.701416015625 -290.0261535644531 -139.5689086914062 -287.6612854003906 -137.9123687744141 L -287.6434936523438 -137.89990234375 L -287.6309509277344 -137.8821563720703 C -287.6053161621094 -137.8459014892578 -285.0556640625 -134.2358551025391 -284.1041259765625 -132.4826354980469 C -281.8669128417969 -128.3981170654297 -280.3674621582031 -123.9924545288086 -279.6475524902344 -119.3881378173828 C -279.5375671386719 -118.9807052612305 -279.5818176269531 -118.5486221313477 -279.7723999023438 -118.1707153320312 L -279.7781372070312 -118.1593017578125 L -279.7860717773438 -118.149299621582 C -286.3224487304688 -109.911262512207 -295.6317443847656 -104.4046249389648 -305.9990539550781 -102.6437530517578 C -306.980712890625 -102.4597930908203 -307.9866333007812 -102.366325378418 -308.9867858886719 -102.366325378418 C -310.3503112792969 -102.366325378418 -311.7110290527344 -102.5388031005859 -313.0311889648438 -102.8789520263672 C -314.6419372558594 -103.3296127319336 -316.1242065429688 -104.1827163696289 -317.3204040527344 -105.3467330932617 C -319.7440795898438 -107.4277572631836 -321.7046508789062 -109.9272003173828 -323.1475219726562 -112.7755126953125 L -323.1497497558594 -112.7799301147461 L -323.1516418457031 -112.7845001220703 C -323.3601989746094 -113.2922592163086 -323.8495178222656 -113.6203460693359 -324.398193359375 -113.6203460693359 C -324.5631713867188 -113.6203460693359 -324.7256774902344 -113.5900497436523 -324.8811645507812 -113.5303192138672 L -324.887939453125 -113.5277099609375 L -324.8949890136719 -113.5259017944336 C -326.1433410644531 -113.2064743041992 -326.899169921875 -111.9306793212891 -326.5798950195312 -110.6819763183594 L -326.5673522949219 -110.6362991333008 C -326.242919921875 -109.663948059082 -325.8067016601562 -108.7318420410156 -325.2707214355469 -107.8657836914062 C -324.7476196289062 -107.0260314941406 -324.3412475585938 -106.1189956665039 -324.0630493164062 -105.1701736450195 C -323.8506164550781 -104.4919738769531 -323.9153137207031 -103.7693710327148 -324.2458801269531 -103.1376724243164 C -324.576416015625 -102.5060501098633 -325.1331787109375 -102.0408325195312 -325.8136596679688 -101.8277130126953 C -326.07177734375 -101.7466430664062 -326.3397521972656 -101.7055206298828 -326.6100769042969 -101.7055206298828 C -326.7362365722656 -101.7055206298828 -326.8635559082031 -101.7146530151367 -326.9884948730469 -101.7326507568359 C -327.9330444335938 -101.8007659912109 -328.8509521484375 -102.1086502075195 -329.6430969238281 -102.623161315918 C -332.4989929199219 -104.3964309692383 -335.0985412597656 -106.5570907592773 -337.3673400878906 -109.0437545776367 L -337.3693542480469 -109.0459518432617 L -337.3712463378906 -109.0482559204102 C -337.6570434570312 -109.393196105957 -337.9243469238281 -109.7619400024414 -338.1657104492188 -110.1442718505859 C -338.4940795898438 -110.6895141601562 -339.0907592773438 -111.0268249511719 -339.7242736816406 -111.0268249511719 C -339.8531494140625 -111.0268249511719 -339.9825134277344 -111.0129318237305 -340.1089172363281 -110.9855117797852 C -340.8234558105469 -110.7342681884766 -341.2688293457031 -110.0342407226562 -341.192626953125 -109.2805633544922 L -341.1922302246094 -109.2767791748047 L -341.1920776367188 -109.2729949951172 C -341.1470947265625 -108.1490707397461 -340.8343811035156 -107.035530090332 -340.2877502441406 -106.0527496337891 C -338.9851684570312 -103.5476455688477 -337.2711486816406 -101.3131256103516 -335.1915588378906 -99.40817260742188 C -335.1588439941406 -99.37713623046875 -335.1095886230469 -99.34603118896484 -335.0574340820312 -99.3131103515625 C -334.9314880371094 -99.23357391357422 -334.7887268066406 -99.1434326171875 -334.7545471191406 -98.98618316650391 C -334.7345275878906 -98.89405059814453 -334.7573547363281 -98.79695129394531 -334.8224182128906 -98.69755554199219 C -334.9180908203125 -98.55081939697266 -335.063232421875 -98.47315979003906 -335.2420654296875 -98.47315216064453 C -335.4186096191406 -98.47315216064453 -335.6033325195312 -98.54819488525391 -335.7445068359375 -98.61356353759766 L -335.7471313476562 -98.61478424072266 L -335.7497253417969 -98.61613464355469 C -337.122314453125 -99.33110809326172 -338.3958129882812 -100.2215118408203 -339.5348815917969 -101.2625579833984 C -341.6159057617188 -102.8928451538086 -343.4215393066406 -104.8316345214844 -344.901611328125 -107.0250854492188 C -345.255615234375 -107.5749664306641 -345.7410278320312 -108.0348892211914 -346.306884765625 -108.3574066162109 L -346.3127746582031 -108.3607559204102 L -346.3182373046875 -108.3647155761719 C -346.5909118652344 -108.5619125366211 -346.9122314453125 -108.6661529541016 -347.2475280761719 -108.6661529541016 C -347.7557067871094 -108.6661529541016 -348.2369079589844 -108.4207305908203 -348.5347595214844 -108.0096664428711 C -348.7366333007812 -107.7294921875 -348.8433227539062 -107.3846817016602 -348.8350219726562 -107.0390014648438 C -348.8468017578125 -105.786865234375 -348.4742431640625 -104.5858612060547 -347.757568359375 -103.561653137207 L -347.7555236816406 -103.558723449707 L -347.7536315917969 -103.5556793212891 C -345.4043884277344 -99.75251007080078 -342.4681091308594 -96.37982177734375 -339.0263061523438 -93.53129577636719 C -338.9732971191406 -93.48542022705078 -338.8980407714844 -93.44228363037109 -338.818359375 -93.3966064453125 C -338.6024780273438 -93.27283477783203 -338.2411804199219 -93.065673828125 -338.4482116699219 -92.68524932861328 C -338.53125 -92.53329467773438 -338.6659240722656 -92.45307159423828 -338.8377990722656 -92.45307159423828 C -339.0115966796875 -92.45306396484375 -339.1972961425781 -92.53365325927734 -339.3611145019531 -92.60475921630859 C -339.4164428710938 -92.62877655029297 -339.4686889648438 -92.65144348144531 -339.5154724121094 -92.66881561279297 L -339.5184326171875 -92.66990661621094 L -339.5213012695312 -92.671142578125 C -341.4336242675781 -93.49240875244141 -343.2137451171875 -94.58303833007812 -344.8123168945312 -95.91273498535156 C -347.2553100585938 -97.72988128662109 -349.5722351074219 -99.72148132324219 -351.736083984375 -101.6057205200195 C -352.33349609375 -102.1258544921875 -352.8423156738281 -102.3681106567383 -353.3374328613281 -102.3681106567383 C -353.6100158691406 -102.3681106567383 -353.8816833496094 -102.2944488525391 -354.16796875 -102.1428833007812 C -354.9907531738281 -101.6562118530273 -355.3877563476562 -100.6731719970703 -355.1334838867188 -99.75123596191406 L -355.132568359375 -99.74790191650391 L -355.1318359375 -99.74451446533203 C -354.8566589355469 -98.47664642333984 -354.2395324707031 -97.308349609375 -353.3472290039062 -96.36594390869141 C -350.749755859375 -93.44384002685547 -347.7557678222656 -90.91576385498047 -344.44580078125 -88.84902191162109 L -344.443603515625 -88.84766387939453 L -344.4414978027344 -88.84621429443359 C -343.2457885742188 -88.02947235107422 -341.9962463378906 -87.27490234375 -340.7275390625 -86.60346984863281 C -340.7037353515625 -86.59115600585938 -340.6773376464844 -86.57861328125 -340.6504821777344 -86.56581115722656 C -340.4822998046875 -86.48572540283203 -340.2520141601562 -86.37602233886719 -340.2520141601562 -86.114990234375 C -340.2520141601562 -85.8013916015625 -340.5302734375 -85.66627502441406 -340.7334289550781 -85.56761169433594 L -340.7660217285156 -85.55174255371094 L -340.7684631347656 -85.55055236816406 L -340.7709350585938 -85.54947662353516 C -341.0463562011719 -85.42905426025391 -341.3381652832031 -85.36799621582031 -341.6383056640625 -85.36798095703125 Z" stroke="none"/>
        <path d="M -296.0807495117188 -141.2129058837891 C -296.310302734375 -141.2129058837891 -296.5397338867188 -141.1849365234375 -296.7640075683594 -141.1289978027344 C -297.0169982910156 -141.0659942626953 -297.2919921875 -140.9720001220703 -297.364013671875 -140.7180023193359 C -297.4609985351562 -140.3760070800781 -297.1069946289062 -140.3349914550781 -296.9070129394531 -140.2239990234375 C -294.8070068359375 -139.0559997558594 -292.7850036621094 -137.7539978027344 -290.85400390625 -136.3240051269531 C -288.0960083007812 -134.4620056152344 -285.6579895019531 -132.1649932861328 -283.6340026855469 -129.5240020751953 C -283.0090026855469 -128.7279968261719 -282.6109924316406 -127.7789993286133 -282.4830017089844 -126.7750015258789 C -282.3070068359375 -125.8670043945312 -282.7330017089844 -124.9490051269531 -283.5390014648438 -124.4960021972656 C -284.3890380859375 -124.0509643554688 -285.4330444335938 -124.254035949707 -286.0549926757812 -124.984001159668 C -287.9729919433594 -126.6100006103516 -289.8779907226562 -128.2460021972656 -291.8429870605469 -129.8099975585938 C -293.7019958496094 -131.4210052490234 -295.7680053710938 -132.7760009765625 -297.9869995117188 -133.8380126953125 C -298.2690124511719 -133.9559936523438 -298.5610046386719 -134.0489807128906 -298.8590087890625 -134.1150054931641 C -299.0119323730469 -134.1499633789062 -299.2139892578125 -134.1580200195312 -299.2869873046875 -133.9579925537109 C -299.3460083007812 -133.7929992675781 -299.1940002441406 -133.7209930419922 -299.0870056152344 -133.6320037841797 C -298.9800109863281 -133.5429992675781 -298.8619995117188 -133.4669952392578 -298.7560119628906 -133.3760070800781 C -295.1759948730469 -130.4609985351562 -292.1310119628906 -126.9459991455078 -289.7560119628906 -122.9880065917969 C -289.1189880371094 -122.0260009765625 -288.7789916992188 -120.8980026245117 -288.7789916992188 -119.7440032958984 C -288.7680053710938 -119.3880004882812 -288.8670043945312 -119.0370025634766 -289.06298828125 -118.7400054931641 C -289.5879821777344 -117.9409942626953 -290.6609497070312 -117.718994140625 -291.4599914550781 -118.2440032958984 C -292.0780029296875 -118.5790023803711 -292.5979919433594 -119.0690002441406 -292.9700012207031 -119.6650009155273 C -294.3139953613281 -121.661003112793 -295.9450073242188 -123.4470062255859 -297.81201171875 -124.9649887084961 C -299.0660095214844 -126.1190032958984 -300.4500122070312 -127.1230010986328 -301.93701171875 -127.9570007324219 C -302.2210388183594 -128.1030120849609 -302.6370239257812 -128.2839965820312 -302.8370056152344 -127.9280014038086 C -302.9920043945312 -127.6539993286133 -302.5719909667969 -127.5050048828125 -302.3840026855469 -127.3280029296875 C -300.5830078125 -125.6500015258789 -299.0379943847656 -123.7160034179688 -297.8009948730469 -121.588005065918 C -296.9580078125 -120.3249893188477 -296.4909973144531 -118.8479995727539 -296.4559936523438 -117.3300018310547 C -296.3909912109375 -116.5730056762695 -296.8680114746094 -115.8740005493164 -297.5969848632812 -115.6589889526367 C -298.3769226074219 -115.4400329589844 -299.2079772949219 -115.7629776000977 -299.6369934082031 -116.4499893188477 C -300.0299987792969 -117.0600051879883 -300.4769897460938 -117.6340026855469 -300.9719848632812 -118.1650009155273 C -303.0190124511719 -120.2660064697266 -305.2869873046875 -122.1399993896484 -307.7369995117188 -123.7540054321289 C -308.6950073242188 -124.4490051269531 -309.8399963378906 -124.838005065918 -311.0230102539062 -124.870002746582 C -311.2938842773438 -124.8899917602539 -311.5669860839844 -124.8650054931641 -311.8309936523438 -124.7950057983398 C -313.1539916992188 -124.4480056762695 -313.9460144042969 -123.0940017700195 -313.5989990234375 -121.7699890136719 C -313.4660034179688 -121.1700057983398 -313.2529907226562 -120.5899887084961 -312.9660034179688 -120.0460052490234 C -312.239990234375 -118.8539886474609 -311.6180114746094 -117.6010055541992 -311.1069946289062 -116.302001953125 C -311.0849914550781 -116.2400054931641 -311.0650024414062 -116.1780014038086 -311.0469970703125 -116.1150054931641 C -310.6910095214844 -114.8170013427734 -311.4549865722656 -113.4760055541992 -312.7529907226562 -113.120002746582 L -312.7969970703125 -113.1010055541992 C -313.5509643554688 -112.7969665527344 -314.4089965820312 -113.1609954833984 -314.7130126953125 -113.9150009155273 C -316.1629943847656 -116.7580032348633 -318.1619873046875 -119.286003112793 -320.593994140625 -121.3529891967773 C -321.5169982910156 -122.2509994506836 -322.6099853515625 -122.9560012817383 -323.8089904785156 -123.4260025024414 C -326.4729614257812 -124.3229827880859 -329.3279724121094 -124.4990081787109 -332.0820007324219 -123.9350051879883 C -342.2380065917969 -122.3650054931641 -351.4559936523438 -117.0970001220703 -357.9630126953125 -109.1420059204102 C -358.0989990234375 -108.8360061645508 -358.1419982910156 -108.4960021972656 -358.0849914550781 -108.1660003662109 C -357.4349975585938 -103.2649993896484 -355.875 -98.52799987792969 -353.4849853515625 -94.19898986816406 C -352.5069885253906 -92.41200256347656 -351.2909851074219 -90.78399658203125 -350.1910095214844 -89.07899475097656 C -347.8009948730469 -87.31999206542969 -345.0499877929688 -86.11599731445312 -342.135986328125 -85.55500793457031 C -341.6980590820312 -85.44403076171875 -341.2350463867188 -85.48301696777344 -340.8210144042969 -85.66400146484375 C -340.6229858398438 -85.76100158691406 -340.3770141601562 -85.86599731445312 -340.3770141601562 -86.11500549316406 C -340.3770141601562 -86.33000183105469 -340.6159973144531 -86.40499877929688 -340.7860107421875 -86.49299621582031 C -342.0690002441406 -87.1719970703125 -343.31298828125 -87.92399597167969 -344.5119934082031 -88.74299621582031 C -347.8320007324219 -90.81599426269531 -350.8380126953125 -93.35499572753906 -353.43798828125 -96.27999877929688 C -354.3460083007812 -97.23899841308594 -354.9739990234375 -98.42799377441406 -355.2539978027344 -99.71800231933594 C -355.5239868164062 -100.6970062255859 -355.10400390625 -101.7360000610352 -354.22900390625 -102.2520065307617 C -353.3850402832031 -102.6999893188477 -352.6050109863281 -102.5280227661133 -351.6539916992188 -101.6999893188477 C -349.4020080566406 -99.73900604248047 -347.135009765625 -97.79600524902344 -344.7349853515625 -96.01100158691406 C -343.1449890136719 -94.68800354003906 -341.3720092773438 -93.60200500488281 -339.4719848632812 -92.78599548339844 C -339.1809387207031 -92.67796325683594 -338.7459716796875 -92.40106201171875 -338.5580139160156 -92.74501037597656 C -338.3550109863281 -93.11799621582031 -338.8819885253906 -93.24099731445312 -339.1059875488281 -93.43499755859375 C -342.552001953125 -96.28700256347656 -345.5090026855469 -99.68400573730469 -347.8599853515625 -103.4900054931641 C -348.5870056152344 -104.5289993286133 -348.9719848632812 -105.7680053710938 -348.9599914550781 -107.036003112793 C -348.968994140625 -107.411003112793 -348.8550109863281 -107.7789993286133 -348.635986328125 -108.0830001831055 C -348.0809936523438 -108.8490142822266 -347.010986328125 -109.0199737548828 -346.2449951171875 -108.4660034179688 C -345.6589965820312 -108.1320037841797 -345.1629943847656 -107.6620025634766 -344.7980041503906 -107.0950012207031 C -343.3269958496094 -104.9150009155273 -341.5239868164062 -102.9789886474609 -339.4540100097656 -101.3580017089844 C -338.3200073242188 -100.3209991455078 -337.0549926757812 -99.43698883056641 -335.6919860839844 -98.72700500488281 C -335.4349975585938 -98.60800170898438 -335.1050109863281 -98.49296569824219 -334.927001953125 -98.76600646972656 C -334.7300109863281 -99.06700134277344 -335.1189880371094 -99.16699981689453 -335.2760009765625 -99.31600189208984 C -337.3599853515625 -101.2250061035156 -339.0929870605469 -103.484001159668 -340.3970031738281 -105.9919891357422 C -340.9559936523438 -106.9970016479492 -341.27099609375 -108.1190032958984 -341.3169860839844 -109.2680053710938 C -341.3989868164062 -110.0790023803711 -340.9129943847656 -110.8389892578125 -340.1430053710938 -111.1060028076172 C -339.3288879394531 -111.2859725952148 -338.489990234375 -110.9249954223633 -338.0599975585938 -110.2110061645508 C -337.8219909667969 -109.8339996337891 -337.5599975585938 -109.4720001220703 -337.2749938964844 -109.1280059814453 C -335.0150146484375 -106.6510009765625 -332.4240112304688 -104.4970016479492 -329.5750122070312 -102.7279891967773 C -328.7959899902344 -102.2220001220703 -327.9010009765625 -101.9229888916016 -326.9750061035156 -101.8570022583008 C -326.5980529785156 -101.8020172119141 -326.2140197753906 -101.8330078125 -325.8510131835938 -101.9470062255859 C -324.510009765625 -102.3669891357422 -323.7630004882812 -103.7940063476562 -324.1830139160156 -105.1350021362305 C -324.4580078125 -106.0730056762695 -324.8599853515625 -106.9700012207031 -325.3770141601562 -107.8000030517578 C -325.9209899902344 -108.6790008544922 -326.3599853515625 -109.6190032958984 -326.68701171875 -110.6000061035156 L -326.7009887695312 -110.6510009765625 C -327.0379943847656 -111.9690017700195 -326.2430114746094 -113.3100051879883 -324.9259948730469 -113.6470031738281 C -324.178955078125 -113.9340515136719 -323.3399963378906 -113.5719680786133 -323.0360107421875 -112.8320007324219 C -321.6069946289062 -110.0110015869141 -319.635986328125 -107.4990005493164 -317.2359924316406 -105.4390029907227 C -316.0499877929688 -104.2839889526367 -314.593994140625 -103.4459991455078 -313 -103 C -310.718017578125 -102.4120178222656 -308.3360595703125 -102.3329772949219 -306.0199890136719 -102.7670059204102 C -295.6990051269531 -104.5199890136719 -286.3909912109375 -110.0260009765625 -279.8840026855469 -118.2270050048828 C -279.7070007324219 -118.5780029296875 -279.6659851074219 -118.9830017089844 -279.7699890136719 -119.3619995117188 C -280.4849853515625 -123.9400024414062 -281.9880065917969 -128.3589935302734 -284.2139892578125 -132.4230041503906 C -285.1730041503906 -134.1900024414062 -287.7330017089844 -137.8099975585938 -287.7330017089844 -137.8099975585938 C -290.0700073242188 -139.4470062255859 -292.7200012207031 -140.5859985351562 -295.5159912109375 -141.156005859375 C -295.7025146484375 -141.1939392089844 -295.8916625976562 -141.2129058837891 -296.0807495117188 -141.2129058837891 M -296.0807495117188 -141.4629058837891 C -295.8749084472656 -141.4629058837891 -295.6681213378906 -141.4420776367188 -295.4661560058594 -141.4009704589844 C -292.6186218261719 -140.8204803466797 -289.9685974121094 -139.6812133789062 -287.5895690917969 -138.0147705078125 L -287.5539855957031 -137.9898376464844 L -287.5288696289062 -137.954345703125 C -287.4240112304688 -137.8060455322266 -284.9493713378906 -134.3020324707031 -283.9942626953125 -132.5422668457031 C -281.7514038085938 -128.4474792480469 -280.2476501464844 -124.0302124023438 -279.5250854492188 -119.4140014648438 C -279.4093627929688 -118.9787445068359 -279.4573669433594 -118.5178146362305 -279.6607666015625 -118.1144332885742 L -279.6722717285156 -118.0916213989258 L -279.6881713867188 -118.0716171264648 C -286.2437438964844 -109.8093795776367 -295.5803527832031 -104.2865600585938 -305.9781188964844 -102.5205383300781 C -306.9652404785156 -102.3355102539062 -307.9789123535156 -102.241325378418 -308.9867858886719 -102.241325378418 C -310.36083984375 -102.241325378418 -311.7320861816406 -102.4151229858398 -313.0623779296875 -102.7579116821289 L -313.0673828125 -102.7592468261719 C -314.6943969726562 -103.2144927978516 -316.194091796875 -104.0772705078125 -317.4047241210938 -105.2543792724609 C -319.8396606445312 -107.3456573486328 -321.8092346191406 -109.8570404052734 -323.259033203125 -112.7190246582031 L -323.2672729492188 -112.7370147705078 C -323.4564819335938 -113.1976776123047 -323.900390625 -113.4953460693359 -324.398193359375 -113.4953460693359 C -324.5477905273438 -113.4953460693359 -324.6951904296875 -113.4678573608398 -324.8363342285156 -113.4136352539062 L -324.864013671875 -113.4048004150391 C -326.0455932617188 -113.1024703979492 -326.7610168457031 -111.894889831543 -326.4587707519531 -110.7129364013672 L -326.4477233886719 -110.672721862793 C -326.12646484375 -109.7106857299805 -325.6947326660156 -108.7884521484375 -325.1644287109375 -107.9315567016602 C -324.635498046875 -107.0824661254883 -324.2244567871094 -106.1650161743164 -323.943115234375 -105.2053375244141 C -323.7213439941406 -104.4974594116211 -323.7890930175781 -103.7410049438477 -324.1351318359375 -103.0797119140625 C -324.4811401367188 -102.4185256958008 -325.06396484375 -101.931526184082 -325.7763061523438 -101.7084274291992 C -326.1712341308594 -101.5844116210938 -326.59228515625 -101.5499725341797 -327.0018310546875 -101.6082916259766 C -327.9650268554688 -101.678466796875 -328.9008178710938 -101.9925308227539 -329.7089538574219 -102.5168762207031 C -332.575927734375 -104.2973327636719 -335.1836853027344 -106.464958190918 -337.4596557617188 -108.9595031738281 L -337.4674987792969 -108.968505859375 C -337.7566833496094 -109.3175506591797 -338.0271606445312 -109.6906890869141 -338.2713928222656 -110.0775451660156 L -338.274169921875 -110.0820236206055 C -338.5787048339844 -110.5876998901367 -339.1343383789062 -110.9018249511719 -339.7242736816406 -110.9018249511719 C -339.8416137695312 -110.9018249511719 -339.9594421386719 -110.8894424438477 -340.0747375488281 -110.8649978637695 C -340.7303161621094 -110.6307525634766 -341.1383666992188 -109.9865341186523 -341.0682678222656 -109.2931442260742 L -341.0671997070312 -109.2779998779297 C -341.0229797363281 -108.1735229492188 -340.7156677246094 -107.0792694091797 -340.1785278320312 -106.1135177612305 L -340.1752014160156 -106.1073226928711 C -338.8810729980469 -103.6183471679688 -337.1759338378906 -101.3954391479492 -335.1071472167969 -99.50035095214844 C -335.0816955566406 -99.47627258300781 -335.0354309082031 -99.44704437255859 -334.9906921386719 -99.41880035400391 C -334.8586120605469 -99.33538818359375 -334.6777038574219 -99.22116088867188 -334.6324157714844 -99.01273345947266 C -334.6050109863281 -98.88665008544922 -334.6337280273438 -98.75758361816406 -334.7178039550781 -98.62910461425781 C -334.8375549316406 -98.4454345703125 -335.0189208984375 -98.34815979003906 -335.2420654296875 -98.34815979003906 C -335.4430541992188 -98.34815979003906 -335.6442260742188 -98.42938232421875 -335.7970581054688 -98.50015258789062 L -335.8074951171875 -98.50527954101562 C -337.188232421875 -99.22451782226562 -338.469482421875 -100.1200866699219 -339.6156616210938 -101.1670532226562 C -341.7053527832031 -102.8047637939453 -343.5187377929688 -104.7522048950195 -345.0052490234375 -106.9551696777344 L -345.0082092285156 -106.9596786499023 C -345.3498840332031 -107.4904327392578 -345.8203430175781 -107.9362106323242 -346.3688049316406 -108.2488021850586 L -346.3915100097656 -108.263427734375 C -346.6427001953125 -108.4451141357422 -346.938720703125 -108.541145324707 -347.2475280761719 -108.541145324707 C -347.7157592773438 -108.541145324707 -348.1591491699219 -108.3150482177734 -348.4335327148438 -107.9363250732422 C -348.6193542480469 -107.6784057617188 -348.7177124023438 -107.3606033325195 -348.7100524902344 -107.0419998168945 L -348.7099609375 -107.0378265380859 L -348.7099914550781 -107.0336380004883 C -348.7215576171875 -105.8118896484375 -348.3568115234375 -104.6360778808594 -347.6551513671875 -103.6333236694336 L -347.6473083496094 -103.6213836669922 C -345.3052062988281 -99.82980346679688 -342.3778686523438 -96.4674072265625 -338.9465942382812 -93.62760925292969 L -338.9423217773438 -93.62397766113281 C -338.9006042480469 -93.58786010742188 -338.8271789550781 -93.54576110839844 -338.7561950683594 -93.50505065917969 C -338.534423828125 -93.37789916992188 -338.0729370117188 -93.11329650878906 -338.3384399414062 -92.62550354003906 C -338.4433288574219 -92.43356323242188 -338.62060546875 -92.32806396484375 -338.8377990722656 -92.32806396484375 C -339.0375671386719 -92.32806396484375 -339.2359313964844 -92.41415405273438 -339.4109191894531 -92.49009704589844 C -339.4646301269531 -92.51341247558594 -339.515380859375 -92.53543090820312 -339.5589904785156 -92.55162048339844 L -339.5706481933594 -92.5562744140625 C -341.4929809570312 -93.38186645507812 -343.2825012207031 -94.47807312011719 -344.8896179199219 -95.81443786621094 C -347.3351440429688 -97.63368225097656 -349.6532592773438 -99.62629699707031 -351.8181762695312 -101.5114593505859 C -352.3914794921875 -102.010627746582 -352.8742370605469 -102.2431106567383 -353.3374328613281 -102.2431106567383 C -353.5882873535156 -102.2431106567383 -353.8400268554688 -102.1746368408203 -354.1068725585938 -102.0337829589844 C -354.8794860839844 -101.5752410888672 -355.2520141601562 -100.6511688232422 -355.0130004882812 -99.78446960449219 L -355.0097045898438 -99.77103424072266 C -354.7393493652344 -98.52546691894531 -354.1330871582031 -97.37773132324219 -353.2564697265625 -96.45188903808594 L -353.2511291503906 -96.44609069824219 C -350.6642456054688 -93.53579711914062 -347.6794128417969 -91.01544189453125 -344.3795776367188 -88.95506286621094 L -344.3709716796875 -88.94943237304688 C -343.17919921875 -88.1353759765625 -341.9336853027344 -87.38323974609375 -340.6690673828125 -86.71397399902344 C -340.6474609375 -86.70277404785156 -340.622314453125 -86.69085693359375 -340.5967102050781 -86.67866516113281 C -340.4210510253906 -86.59498596191406 -340.1270141601562 -86.45494079589844 -340.1270141601562 -86.11500549316406 C -340.1270141601562 -85.72314453125 -340.4724426269531 -85.55538940429688 -340.6788330078125 -85.45516967773438 L -340.7208557128906 -85.4349365234375 C -341.0121765136719 -85.30757141113281 -341.3208312988281 -85.24299621582031 -341.6383056640625 -85.24299621582031 C -341.8244018554688 -85.24299621582031 -342.0101013183594 -85.26583862304688 -342.1903381347656 -85.31088256835938 C -345.1183776855469 -85.87567138671875 -347.9359741210938 -87.10894775390625 -350.3392028808594 -88.87763977050781 L -350.3761901855469 -88.90487670898438 L -350.4010925292969 -88.94345092773438 C -350.7595520019531 -89.49909973144531 -351.1374206542969 -90.056884765625 -351.5028381347656 -90.5963134765625 C -352.2588806152344 -91.71237182617188 -353.0406799316406 -92.86642456054688 -353.7042846679688 -94.07896423339844 C -356.1178894042969 -98.45065307617188 -357.675048828125 -103.1776885986328 -358.3321838378906 -108.1284103393555 C -358.3964538574219 -108.5062103271484 -358.3478393554688 -108.8916778564453 -358.1914672851562 -109.243522644043 L -358.1778259277344 -109.2742614746094 L -358.1565246582031 -109.30029296875 C -351.6019592285156 -117.3134231567383 -342.3580322265625 -122.5980072021484 -332.1262512207031 -124.1811294555664 C -331.0637512207031 -124.3983154296875 -329.9749450683594 -124.5084381103516 -328.8899230957031 -124.5084609985352 C -327.1318359375 -124.5084838867188 -325.3955383300781 -124.224006652832 -323.7292175292969 -123.6629333496094 L -323.7177734375 -123.6587600708008 C -322.4842224121094 -123.1752166748047 -321.3766479492188 -122.4617538452148 -320.4256286621094 -121.5379943847656 C -317.9583129882812 -119.439567565918 -315.9614868164062 -116.9131469726562 -314.4902954101562 -114.0285949707031 L -314.4811706542969 -114.0084915161133 C -314.2938232421875 -113.5438995361328 -313.8488464355469 -113.2437057495117 -313.3475646972656 -113.2437057495117 C -313.1918640136719 -113.2437057495117 -313.0389099121094 -113.2733764648438 -312.8929138183594 -113.331901550293 L -312.8191223144531 -113.3610992431641 C -311.6559448242188 -113.6801223754883 -310.9691162109375 -114.885856628418 -311.2881164550781 -116.0488815307617 C -311.3032836914062 -116.1020355224609 -311.3209228515625 -116.1570587158203 -311.3412475585938 -116.2145462036133 C -311.8456726074219 -117.4961166381836 -312.464111328125 -118.7413787841797 -313.1795043945312 -119.9159622192383 L -313.1871032714844 -119.9293441772461 C -313.4838562011719 -120.4918365478516 -313.7041931152344 -121.0913314819336 -313.8420715332031 -121.7113189697266 C -314.2201843261719 -123.1645812988281 -313.3473510742188 -124.6557464599609 -311.8944091796875 -125.0368270874023 C -311.6080017089844 -125.1127624511719 -311.3077087402344 -125.1410446166992 -311.0105285644531 -125.119758605957 C -309.7762145996094 -125.0852355957031 -308.5953979492188 -124.6842193603516 -307.5948486328125 -123.959716796875 C -305.13671875 -122.3399124145508 -302.8483276367188 -120.4490585327148 -300.7929077148438 -118.339469909668 L -300.7891235351562 -118.3354721069336 C -300.2847595214844 -117.7944259643555 -299.826416015625 -117.2056121826172 -299.4268493652344 -116.5853881835938 C -299.1350708007812 -116.1182174682617 -298.6357116699219 -115.8410797119141 -298.089111328125 -115.8410797119141 C -297.9458923339844 -115.8410797119141 -297.8030700683594 -115.8608016967773 -297.66455078125 -115.8996810913086 C -297.0552673339844 -116.0794143676758 -296.6504211425781 -116.6723327636719 -296.705078125 -117.3086166381836 L -296.7059326171875 -117.3242340087891 C -296.7398681640625 -118.7965240478516 -297.1904602050781 -120.2229156494141 -298.0089111328125 -121.4492111206055 L -298.0171203613281 -121.4623565673828 C -299.2416687011719 -123.5689392089844 -300.7682495117188 -125.4808883666992 -302.5544128417969 -127.1450881958008 C -302.5907287597656 -127.1792602539062 -302.6501770019531 -127.2196884155273 -302.7076721191406 -127.2587814331055 C -302.8940734863281 -127.3855285644531 -303.2819213867188 -127.6492462158203 -303.0545959472656 -128.0510864257812 C -302.933837890625 -128.2660675048828 -302.7321166992188 -128.3848266601562 -302.4869689941406 -128.3848571777344 C -302.25390625 -128.3848571777344 -302.0203857421875 -128.2809753417969 -301.8227233886719 -128.1793365478516 L -301.8147277832031 -128.175048828125 C -300.3154602050781 -127.3341827392578 -298.913818359375 -126.3178939819336 -297.6484069824219 -125.154167175293 C -295.7646179199219 -123.6216049194336 -294.1208801269531 -121.8218078613281 -292.7626342773438 -119.8046340942383 L -292.7579345703125 -119.7973785400391 C -292.4089660644531 -119.2382888793945 -291.9189453125 -118.7771453857422 -291.3408508300781 -118.4637908935547 L -291.3226928710938 -118.4529342651367 C -291.0802612304688 -118.2936248779297 -290.799560546875 -118.2094116210938 -290.5110168457031 -118.2094116210938 C -290.0099487304688 -118.2094116210938 -289.5467224121094 -118.4590911865234 -289.2719116210938 -118.8772888183594 C -289.1033630371094 -119.1327362060547 -289.0194091796875 -119.4296264648438 -289.0288696289062 -119.7362899780273 L -289.0289916992188 -119.7440032958984 C -289.0289916992188 -120.8517608642578 -289.3524780273438 -121.92578125 -289.9644470214844 -122.849983215332 L -289.9703674316406 -122.8593673706055 C -292.3376770019531 -126.8045272827148 -295.3466796875 -130.2776031494141 -298.9138793945312 -133.18212890625 L -298.9188537597656 -133.1863098144531 C -298.9681396484375 -133.2286224365234 -299.0224609375 -133.2687683105469 -299.0799255371094 -133.3112487792969 C -299.1345825195312 -133.3516540527344 -299.1911010742188 -133.3934173583984 -299.2468872070312 -133.4398193359375 C -299.2617492675781 -133.4521789550781 -299.2777709960938 -133.4640808105469 -299.2937622070312 -133.4761352539062 C -299.3954467773438 -133.5525512695312 -299.6335144042969 -133.7315673828125 -299.5223693847656 -134.0422058105469 C -299.4428100585938 -134.2602233886719 -299.2572326660156 -134.3843841552734 -299.0126953125 -134.3843841552734 C -298.947265625 -134.3843841552734 -298.8787536621094 -134.3759765625 -298.8032531738281 -134.3587036132812 C -298.4944458007812 -134.2903137207031 -298.186767578125 -134.1925811767578 -297.8905029296875 -134.0686340332031 L -297.8790893554688 -134.0635070800781 C -295.6434020996094 -132.9935302734375 -293.5588989257812 -131.627197265625 -291.6831359863281 -130.0022888183594 C -290.0036315917969 -128.6653594970703 -288.341064453125 -127.2532424926758 -286.7333068847656 -125.8877029418945 C -286.4534606933594 -125.6499938964844 -286.1735229492188 -125.412239074707 -285.893310546875 -125.1747055053711 L -285.8778686523438 -125.1615829467773 L -285.8647155761719 -125.1461334228516 C -285.5211486816406 -124.7429122924805 -285.0202331542969 -124.5116577148438 -284.4904174804688 -124.5116577148438 C -284.2022094726562 -124.5116577148438 -283.9144592285156 -124.582275390625 -283.6580200195312 -124.7158966064453 C -282.946533203125 -125.1177444458008 -282.5730285644531 -125.9255828857422 -282.7284240722656 -126.727424621582 L -282.7309875488281 -126.7433929443359 C -282.85302734375 -127.7006912231445 -283.2332763671875 -128.6088256835938 -283.8306274414062 -129.3696136474609 C -285.8450317382812 -131.998046875 -288.2544860839844 -134.2673492431641 -290.993896484375 -136.1168060302734 L -291.0027770996094 -136.1230926513672 C -292.9138793945312 -137.5383605957031 -294.9412536621094 -138.8446044921875 -297.0285339355469 -140.0055236816406 C -297.0586547851562 -140.0222473144531 -297.1013793945312 -140.0398101806641 -297.1466064453125 -140.0584411621094 C -297.3246154785156 -140.1317138671875 -297.7414855957031 -140.3032684326172 -297.6045227050781 -140.7862243652344 C -297.4851989746094 -141.2070159912109 -297.0389099121094 -141.3181762695312 -296.8244323730469 -141.37158203125 C -296.5815124511719 -141.4321594238281 -296.3312683105469 -141.4629058837891 -296.0807495117188 -141.4629058837891 Z" stroke="none" fill="#0a889c"/>
      </g>
      <g id="Path_1" data-name="Path 1" fill="#f0c59b" stroke-miterlimit="10">
        <path d="M -322.1329650878906 -75.37140655517578 C -326.8589477539062 -75.37138366699219 -331.5909729003906 -75.90393829345703 -336.1975708007812 -76.95425415039062 C -339.3954162597656 -77.65098571777344 -342.5370788574219 -78.67619323730469 -345.532958984375 -80.0008544921875 C -348.5276184082031 -81.32496643066406 -351.3993530273438 -82.95830535888672 -354.0687255859375 -84.85573577880859 C -355.0530395507812 -85.52625274658203 -355.8503112792969 -86.44679260253906 -356.3745422363281 -87.51811981201172 L -356.3756713867188 -87.5203857421875 L -356.3767395019531 -87.52268981933594 C -356.6417846679688 -88.09341430664062 -356.7413940429688 -88.72585296630859 -356.6651000976562 -89.35276031494141 C -356.6656188964844 -89.83123779296875 -356.4817199707031 -90.28230285644531 -356.1461486816406 -90.62452697753906 C -355.8062438964844 -90.97114562988281 -355.3517456054688 -91.16450500488281 -354.8663330078125 -91.16898345947266 L -354.8484191894531 -91.1690673828125 C -354.73681640625 -91.1690673828125 -354.6261291503906 -91.15903472900391 -354.5191345214844 -91.13922119140625 C -353.1764526367188 -91.03499603271484 -352.477294921875 -90.52308654785156 -350.9517517089844 -89.40610504150391 L -350.7764282226562 -89.27777862548828 C -349.145751953125 -88.08678436279297 -346.0023193359375 -86.59366607666016 -343.1497192382812 -86.04449462890625 L -343.1426086425781 -86.04312896728516 L -343.1355590820312 -86.04134368896484 C -342.823974609375 -85.96237945556641 -341.9695739746094 -85.84299468994141 -341.3917541503906 -85.84299468994141 C -341.0725402832031 -85.84299468994141 -340.9530639648438 -85.87872314453125 -340.9192810058594 -85.892333984375 L -340.8804016113281 -85.91156005859375 C -340.6974792480469 -86.00155639648438 -340.6210021972656 -86.04984283447266 -340.6210021972656 -86.11599731445312 C -340.6369934082031 -86.14788818359375 -340.7467346191406 -86.20018005371094 -340.8057250976562 -86.22826385498047 C -340.83642578125 -86.24289703369141 -340.8665466308594 -86.25729370117188 -340.8949279785156 -86.27198791503906 C -342.1766052246094 -86.95027923583984 -343.4367980957031 -87.71114349365234 -344.6427612304688 -88.53465270996094 C -347.9803161621094 -90.61920166015625 -350.9992370605469 -93.16836547851562 -353.6162414550781 -96.11197662353516 C -354.5525817871094 -97.10197448730469 -355.2007141113281 -98.32841491699219 -355.4908447265625 -99.65933990478516 C -355.7865295410156 -100.7431869506836 -355.3180847167969 -101.8974304199219 -354.3499755859375 -102.4683380126953 L -354.3449401855469 -102.471305847168 L -354.3397827148438 -102.4740371704102 C -353.9970092773438 -102.6551742553711 -353.6671752929688 -102.7432250976562 -353.3314819335938 -102.7432250976562 C -352.7406005859375 -102.7432250976562 -352.1535339355469 -102.4719848632812 -351.4839477539062 -101.8896255493164 C -349.4500732421875 -100.1184692382812 -347.0715637207031 -98.07312774658203 -344.5794372558594 -96.21231842041016 L -344.5741882324219 -96.20840454101562 L -344.5691833496094 -96.2042236328125 C -342.9973449707031 -94.89735412597656 -341.2489013671875 -93.82645416259766 -339.372314453125 -93.02126312255859 C -339.317138671875 -93.00070953369141 -339.2614135742188 -92.97660064697266 -339.2025756835938 -92.95113372802734 C -339.0792236328125 -92.89774322509766 -338.9256896972656 -92.83130645751953 -338.8303527832031 -92.83130645751953 C -338.7974243164062 -92.83130645751953 -338.7886352539062 -92.83446502685547 -338.7703552246094 -92.86789703369141 C -338.7593383789062 -92.88848876953125 -338.7564697265625 -92.90181732177734 -338.7563781738281 -92.90505981445312 C -338.7731628417969 -92.94693756103516 -338.923095703125 -93.03287506103516 -339.003662109375 -93.07904815673828 C -339.0925598144531 -93.12999725341797 -339.1844787597656 -93.18268585205078 -339.2607116699219 -93.24735260009766 C -342.7345886230469 -96.11722564697266 -345.7007141113281 -99.51898956298828 -348.0739135742188 -103.3555221557617 C -348.8321533203125 -104.441650390625 -349.2266235351562 -105.7144775390625 -349.2150268554688 -107.0371017456055 C -349.2271423339844 -107.5595474243164 -349.0355224609375 -108.0555419921875 -348.6751708984375 -108.4342651367188 C -348.3138427734375 -108.8140258789062 -347.8262023925781 -109.0301742553711 -347.3020629882812 -109.0429229736328 C -347.2853393554688 -109.0433654785156 -347.2679443359375 -109.0436096191406 -347.2506408691406 -109.0436096191406 C -346.8410949707031 -109.0436096191406 -346.4486083984375 -108.9177703857422 -346.1146850585938 -108.6796112060547 C -345.5023193359375 -108.3281173706055 -344.976806640625 -107.8290405273438 -344.5942687988281 -107.2355804443359 C -343.1350402832031 -105.074592590332 -341.3554077148438 -103.1646194458008 -339.3048706054688 -101.5588226318359 L -339.29736328125 -101.5529327392578 L -339.2903137207031 -101.5464859008789 C -338.1758728027344 -100.5273818969727 -336.9299011230469 -99.65570068359375 -335.5867614746094 -98.95546722412109 C -335.4889831542969 -98.91039276123047 -335.3497619628906 -98.85215759277344 -335.2470703125 -98.85215759277344 C -335.187744140625 -98.85215759277344 -335.1649475097656 -98.87046813964844 -335.1414184570312 -98.90653991699219 C -335.1398315429688 -98.90895080566406 -335.1383666992188 -98.91120910644531 -335.1370544433594 -98.91330718994141 C -335.1675415039062 -98.93972015380859 -335.2239990234375 -98.97534942626953 -335.2608947753906 -98.99862670898438 C -335.3260803222656 -99.03974914550781 -335.3934326171875 -99.08223724365234 -335.4513549804688 -99.13699340820312 C -337.5617370605469 -101.0705261230469 -339.3015441894531 -103.3385162353516 -340.6221923828125 -105.8775787353516 C -341.1950073242188 -106.9085083007812 -341.5231628417969 -108.0759658813477 -341.5715026855469 -109.2546310424805 C -341.66162109375 -110.1813735961914 -341.1109008789062 -111.0407257080078 -340.2299194335938 -111.3461990356445 L -340.2161865234375 -111.350959777832 L -340.2019958496094 -111.3540954589844 C -340.0467834472656 -111.3884201049805 -339.8877563476562 -111.4058151245117 -339.7292785644531 -111.4058151245117 C -338.9660339355469 -111.4058151245117 -338.2471313476562 -110.9999847412109 -337.8523559570312 -110.3464965820312 C -337.6209716796875 -109.9801483154297 -337.3649291992188 -109.6267776489258 -337.0912475585938 -109.2960357666016 C -334.8466186523438 -106.8367233276367 -332.2751159667969 -104.6997146606445 -329.4481201171875 -102.9443969726562 L -329.4459533691406 -102.9430465698242 L -329.4438171386719 -102.9416580200195 C -328.7034912109375 -102.4607772827148 -327.8453979492188 -102.1733169555664 -326.9622192382812 -102.1103668212891 L -326.9532165527344 -102.1097183227539 L -326.9442443847656 -102.1084289550781 C -326.8343505859375 -102.0925445556641 -326.7228088378906 -102.0844955444336 -326.6127014160156 -102.0844955444336 C -325.4821166992188 -102.0844955444336 -324.5074157714844 -102.9298095703125 -324.3454284667969 -104.0507583618164 C -324.2961120605469 -104.3879165649414 -324.3241577148438 -104.7381896972656 -324.426513671875 -105.0641098022461 C -324.6965026855469 -105.9847793579102 -325.0888977050781 -106.8606033325195 -325.5941772460938 -107.6718139648438 C -326.1464538574219 -108.5641479492188 -326.595458984375 -109.5238647460938 -326.9291687011719 -110.5249328613281 L -326.9311218261719 -110.5307846069336 L -326.9327697753906 -110.5367279052734 C -327.1277465820312 -111.2346038818359 -327.0391540527344 -111.9665298461914 -326.6832580566406 -112.5976638793945 C -326.3274230957031 -113.2287139892578 -325.7470703125 -113.6833572387695 -325.0491027832031 -113.8778228759766 L -325.0086669921875 -113.8889236450195 C -324.813720703125 -113.9622039794922 -324.610107421875 -113.9993438720703 -324.4031677246094 -113.9993438720703 C -323.7052612304688 -113.9993438720703 -323.0824890136719 -113.5840835571289 -322.8136596679688 -112.9404907226562 C -321.3930053710938 -110.1387405395508 -319.4632568359375 -107.6799163818359 -317.0781555175781 -105.632698059082 L -317.0722045898438 -105.6275787353516 L -317.0665893554688 -105.6220932006836 C -315.915283203125 -104.5009231567383 -314.4884643554688 -103.6791229248047 -312.940185546875 -103.2454605102539 C -311.6503295898438 -102.9133224487305 -310.3215942382812 -102.7449188232422 -308.9907531738281 -102.7448959350586 C -308.0137634277344 -102.7448883056641 -307.0314636230469 -102.8363342285156 -306.0711364746094 -103.0167083740234 C -296.4049072265625 -104.6555786132812 -286.9486999511719 -110.5256042480469 -280.122802734375 -119.1224670410156 L -279.7791748046875 -119.5552368164062 L -279.6809692382812 -119.0114288330078 C -279.5141906738281 -118.0877456665039 -279.4124450683594 -116.5780334472656 -279.3764343261719 -115.9718170166016 C -278.5339965820312 -103.7824249267578 -283.1435546875 -92.13680267333984 -292.0233459472656 -84.0234375 L -292.0271301269531 -84.01999664306641 L -292.031005859375 -84.01670837402344 C -294.2392272949219 -82.15852355957031 -296.7239685058594 -80.68828582763672 -299.416015625 -79.64691162109375 C -304.5809631347656 -77.50725555419922 -310.0247192382812 -76.1826171875 -315.5958557128906 -75.70989990234375 C -317.7557983398438 -75.48544311523438 -319.956787109375 -75.37141418457031 -322.1329650878906 -75.37140655517578 Z" stroke="none"/>
        <path d="M -279.927001953125 -118.9670028686523 C -286.43701171875 -110.7679977416992 -295.7030029296875 -104.5210037231445 -306.0249938964844 -102.7710037231445 C -308.3409729003906 -102.3360061645508 -310.7229614257812 -102.4159927368164 -313.0050048828125 -103.0039978027344 C -314.5989990234375 -103.4499969482422 -316.0549926757812 -104.2880096435547 -317.2409973144531 -105.4430084228516 C -319.6409912109375 -107.5029983520508 -321.6119995117188 -110.0149917602539 -323.0409851074219 -112.8359985351562 C -323.344970703125 -113.5759811401367 -324.1838989257812 -113.9380416870117 -324.9309997558594 -113.651008605957 L -324.9819946289062 -113.6370086669922 C -326.2919921875 -113.2720031738281 -327.0580139160156 -111.9140090942383 -326.6919860839844 -110.6039962768555 C -326.364990234375 -109.6230087280273 -325.9259948730469 -108.6829986572266 -325.3819885253906 -107.8040084838867 C -324.864990234375 -106.9739990234375 -324.4630126953125 -106.0770034790039 -324.18798828125 -105.1389923095703 C -324.0740051269531 -104.776008605957 -324.0429992675781 -104.390998840332 -324.0979919433594 -104.0149917602539 C -324.2989807128906 -102.6240081787109 -325.5889892578125 -101.6599960327148 -326.9800109863281 -101.8609924316406 C -327.906005859375 -101.9270095825195 -328.8009948730469 -102.2259979248047 -329.5799865722656 -102.7320098876953 C -332.4289855957031 -104.5009918212891 -335.0199890136719 -106.6549987792969 -337.2799987792969 -109.1320037841797 C -337.5650024414062 -109.4759979248047 -337.8269958496094 -109.8379974365234 -338.0650024414062 -110.2149963378906 C -338.4949951171875 -110.9289932250977 -339.3339233398438 -111.2900390625 -340.1480102539062 -111.1100082397461 C -340.9179992675781 -110.8430099487305 -341.4039916992188 -110.0830078125 -341.3219909667969 -109.2720031738281 C -341.2760009765625 -108.1230087280273 -340.9609985351562 -107.0009918212891 -340.4020080566406 -105.9960098266602 C -339.0979919433594 -103.4879989624023 -337.364990234375 -101.2289962768555 -335.281005859375 -99.31999206542969 C -335.1239929199219 -99.16999816894531 -334.7319946289062 -99.06999206542969 -334.9320068359375 -98.76999664306641 C -335.1100463867188 -98.49699401855469 -335.4400634765625 -98.61199951171875 -335.6969909667969 -98.73100280761719 C -337.0599975585938 -99.44100952148438 -338.3250122070312 -100.3249969482422 -339.4590148925781 -101.3619918823242 C -341.5289916992188 -102.9830093383789 -343.3320007324219 -104.9189987182617 -344.8030090332031 -107.0979919433594 C -345.1679992675781 -107.6650085449219 -345.6640014648438 -108.135009765625 -346.25 -108.4690093994141 C -346.5539855957031 -108.6890029907227 -346.9215698242188 -108.8032302856445 -347.2959899902344 -108.7929916381836 C -348.2420043945312 -108.7699966430664 -348.989013671875 -107.9840087890625 -348.9649963378906 -107.0390090942383 C -348.9769897460938 -105.7710037231445 -348.5920104980469 -104.5319976806641 -347.864990234375 -103.4929962158203 C -345.510986328125 -99.68599700927734 -342.5499877929688 -96.28900909423828 -339.0989990234375 -93.43800354003906 C -338.875 -93.24800872802734 -338.3510131835938 -93.12100982666016 -338.5509948730469 -92.74800872802734 C -338.7390441894531 -92.40400695800781 -339.1740112304688 -92.68199157714844 -339.4649963378906 -92.78900909423828 C -341.3659973144531 -93.60399627685547 -343.1390075683594 -94.69001007080078 -344.72900390625 -96.01200866699219 C -347.125 -97.80101013183594 -349.3949890136719 -99.73899841308594 -351.6480102539062 -101.7009963989258 C -352.5999755859375 -102.5289916992188 -353.3789978027344 -102.6989898681641 -354.2229919433594 -102.2529983520508 C -355.0979919433594 -101.7369918823242 -355.5180053710938 -100.697998046875 -355.2479858398438 -99.71900939941406 C -354.9679870605469 -98.42900848388672 -354.3399963378906 -97.23999786376953 -353.4320068359375 -96.28099822998047 C -350.8320007324219 -93.35600280761719 -347.8259887695312 -90.81700897216797 -344.5060119628906 -88.74400329589844 C -343.3070068359375 -87.92500305175781 -342.06298828125 -87.17299652099609 -340.7799987792969 -86.49400329589844 C -340.6099853515625 -86.40599822998047 -340.3710021972656 -86.33100891113281 -340.3710021972656 -86.11599731445312 C -340.3710021972656 -85.86499786376953 -340.614990234375 -85.76499176025391 -340.8150024414062 -85.66500854492188 C -341.2290649414062 -85.48401641845703 -342.7590026855469 -85.68801879882812 -343.1969909667969 -85.79900360107422 C -346.1109924316406 -86.36000823974609 -349.281005859375 -87.87599182128906 -350.9240112304688 -89.07599639892578 C -352.5660095214844 -90.27699279785156 -353.2229919433594 -90.79099273681641 -354.552001953125 -90.89099884033203 C -354.6550598144531 -90.91101837158203 -354.7606811523438 -90.92002105712891 -354.864013671875 -90.91899871826172 C -355.72900390625 -90.91100311279297 -356.4240112304688 -90.2030029296875 -356.4150085449219 -89.33799743652344 C -356.489013671875 -88.75399780273438 -356.3980102539062 -88.16200256347656 -356.1499938964844 -87.62799835205078 C -355.6440124511719 -86.59400939941406 -354.8779907226562 -85.70899200439453 -353.9259948730469 -85.06099700927734 C -348.5889892578125 -81.26699829101562 -342.5400085449219 -78.59200286865234 -336.1419982910156 -77.197998046875 C -329.4139709472656 -75.66400146484375 -322.4799194335938 -75.24603271484375 -315.6170043945312 -75.95899200439453 C -310.0780029296875 -76.42900848388672 -304.6449890136719 -77.75099182128906 -299.5090026855469 -79.87899780273438 C -296.8479919433594 -80.90799713134766 -294.375 -82.37100982666016 -292.1919860839844 -84.2080078125 C -283.2940063476562 -92.33799743652344 -278.7950134277344 -103.9329986572266 -279.6260070800781 -115.9570083618164 C -279.6669921875 -116.6470031738281 -279.7690124511719 -118.0920028686523 -279.927001953125 -118.9670028686523 M -279.63134765625 -120.1434631347656 L -279.4349670410156 -119.0558471679688 C -279.2658081054688 -118.119026184082 -279.1631469726562 -116.5973815917969 -279.1268920898438 -115.9866485595703 C -278.2793273925781 -103.7231369018555 -282.9183349609375 -92.00397491455078 -291.8547058105469 -83.83888244628906 L -291.8700561523438 -83.825439453125 C -294.0986022949219 -81.95012664794922 -296.6061706542969 -80.46617126464844 -299.3229064941406 -79.41488647460938 C -304.5094909667969 -77.26660919189453 -309.9757995605469 -75.93630981445312 -315.5701904296875 -75.46116638183594 C -317.741943359375 -75.2357177734375 -319.9498596191406 -75.12141418457031 -322.1329345703125 -75.12141418457031 C -326.877685546875 -75.12141418457031 -331.62841796875 -75.65605926513672 -336.2531433105469 -76.71050262451172 C -339.4650268554688 -77.41029357910156 -342.6228332519531 -78.44075012207031 -345.6340637207031 -79.77220916748047 C -348.6433410644531 -81.10277557373047 -351.5291748046875 -82.74405670166016 -354.211669921875 -84.65061187744141 C -355.2307434082031 -85.34537506103516 -356.0562133789062 -86.29881286621094 -356.59912109375 -87.40822601318359 L -356.6034851074219 -87.41738128662109 C -356.8861083984375 -88.02592468261719 -356.9935913085938 -88.69967651367188 -356.9150695800781 -89.36795043945312 C -356.9117126464844 -89.90663909912109 -356.7028503417969 -90.41385650634766 -356.3246459960938 -90.79955291748047 C -355.93798828125 -91.19389343261719 -355.4208984375 -91.41387176513672 -354.86865234375 -91.41897583007812 L -354.8484191894531 -91.41907501220703 C -354.7261657714844 -91.41907501220703 -354.6047058105469 -91.40843963623047 -354.4868469238281 -91.38744354248047 C -353.0812683105469 -91.27522277832031 -352.3170471191406 -90.71560668945312 -350.8040161132812 -89.60777282714844 L -350.6288452148438 -89.47956085205078 C -349.0207824707031 -88.30508422851562 -345.9189758300781 -86.83221435546875 -343.1024780273438 -86.28999328613281 L -343.0741577148438 -86.28368377685547 C -342.8187866210938 -86.21896362304688 -341.9934692382812 -86.09299468994141 -341.3917846679688 -86.09299468994141 C -341.2630920410156 -86.09299468994141 -341.1742858886719 -86.09903717041016 -341.1150512695312 -86.10585021972656 C -342.369140625 -86.77452087402344 -343.6001892089844 -87.52020263671875 -344.7796325683594 -88.32539367675781 C -348.1345520019531 -90.42134094238281 -351.1693115234375 -92.98403930664062 -353.8003845214844 -95.94281768798828 C -354.7651672363281 -96.9638671875 -355.4335021972656 -98.22807312011719 -355.7337646484375 -99.59987640380859 C -356.0554809570312 -100.7903671264648 -355.5401000976562 -102.0567474365234 -354.4769592285156 -102.6836853027344 L -354.4566040039062 -102.6950759887695 C -354.0769653320312 -102.8956756591797 -353.7089538574219 -102.9931945800781 -353.3315124511719 -102.9932250976562 C -352.6768493652344 -102.9932708740234 -352.0376281738281 -102.7025299072266 -351.3198852539062 -102.0782623291016 C -349.2893371582031 -100.3099975585938 -346.9151306152344 -98.26828765869141 -344.4298706054688 -96.41265106201172 L -344.4093322753906 -96.39647674560547 C -343.0877990722656 -95.29767608642578 -341.6398010253906 -94.36764526367188 -340.0950927734375 -93.62456512451172 C -343.2997741699219 -96.38859558105469 -346.0516662597656 -99.6124267578125 -348.2829284667969 -103.2181625366211 C -349.0677490234375 -104.3449020385742 -349.4763793945312 -105.6643524169922 -349.4650573730469 -107.0355834960938 C -349.4775695800781 -107.6230392456055 -349.2615966796875 -108.1806335449219 -348.8563232421875 -108.6065826416016 C -348.4489135742188 -109.0347595214844 -347.8991088867188 -109.2784805297852 -347.3081359863281 -109.292854309082 C -347.2896728515625 -109.293342590332 -347.2701110839844 -109.2936096191406 -347.2506103515625 -109.2936096191406 C -346.7928161621094 -109.2936096191406 -346.35400390625 -109.1542663574219 -345.9797058105469 -108.8903656005859 C -345.338134765625 -108.5198516845703 -344.7875061035156 -107.9959716796875 -344.3857421875 -107.37353515625 C -342.9414367675781 -105.2350234985352 -341.1800842285156 -103.3448638916016 -339.1507263183594 -101.7556533813477 L -339.12158203125 -101.7309722900391 C -338.2845153808594 -100.9655075073242 -337.3721008300781 -100.2843856811523 -336.3993530273438 -99.69812774658203 C -338.1827697753906 -101.4802017211914 -339.6746520996094 -103.5147018432617 -340.8424377441406 -105.7592010498047 C -341.431884765625 -106.8213119506836 -341.7701110839844 -108.0235443115234 -341.8209838867188 -109.2374420166016 C -341.9189453125 -110.2769393920898 -341.3002319335938 -111.2396774291992 -340.3118286132812 -111.582405090332 L -340.2843322753906 -111.5919418334961 L -340.2559509277344 -111.5982208251953 C -340.0830383300781 -111.6364364624023 -339.9058532714844 -111.6558303833008 -339.7292785644531 -111.6558303833008 C -338.8796691894531 -111.6558380126953 -338.0794372558594 -111.2045288085938 -337.6394653320312 -110.4775466918945 C -337.4151916503906 -110.1227569580078 -337.1673583984375 -109.7805786132812 -336.902587890625 -109.4602127075195 C -334.6744384765625 -107.0197601318359 -332.1219787597656 -104.8989181518555 -329.3162231445312 -103.1567840576172 L -329.3076171875 -103.1513061523438 C -328.6026916503906 -102.6934051513672 -327.7855224609375 -102.4196853637695 -326.9444580078125 -102.3597259521484 L -326.9085083007812 -102.3558654785156 C -326.8103942871094 -102.341682434082 -326.7108764648438 -102.3344955444336 -326.6127014160156 -102.3344955444336 C -325.6055297851562 -102.3344955444336 -324.7371826171875 -103.0876922607422 -324.5928649902344 -104.0865097045898 C -324.5488891601562 -104.3871078491211 -324.5738830566406 -104.6989593505859 -324.6650085449219 -104.9892044067383 L -324.6677856445312 -104.9983139038086 C -324.9300231933594 -105.8926620483398 -325.3131103515625 -106.7476959228516 -325.806396484375 -107.539665222168 C -326.3692321777344 -108.4490585327148 -326.8265380859375 -109.4264526367188 -327.1663208007812 -110.4458847045898 L -327.1735534667969 -110.4694366455078 C -327.3865051269531 -111.2316970825195 -327.2897338867188 -112.031120300293 -326.9010314941406 -112.7204742431641 C -326.5123901367188 -113.4097061157227 -325.8785095214844 -113.9062652587891 -325.1161804199219 -114.1186599731445 L -325.0854797363281 -114.1270980834961 C -324.8657531738281 -114.2082214355469 -324.6363525390625 -114.2493438720703 -324.4032287597656 -114.2493515014648 C -323.607177734375 -114.2493591308594 -322.896484375 -113.7775726318359 -322.586669921875 -113.0456161499023 C -321.1812744140625 -110.2763977050781 -319.2732543945312 -107.8462753295898 -316.9153442382812 -105.8224182128906 L -316.8921508789062 -105.8012084960938 C -315.7713623046875 -104.7097091674805 -314.3823547363281 -103.9094924926758 -312.8751831054688 -103.4868774414062 C -311.6064758300781 -103.1604309082031 -310.299560546875 -102.9948959350586 -308.9907531738281 -102.9948959350586 C -308.0291137695312 -102.9948959350586 -307.0623474121094 -103.0849075317383 -306.1173095703125 -103.2624206542969 L -306.1085815429688 -103.2639694213867 C -296.5067138671875 -104.8918838500977 -287.1066284179688 -110.7287368774414 -280.3185729980469 -119.2779159545898 L -279.63134765625 -120.1434631347656 Z" stroke="none" fill="#f0c59b"/>
      </g>
      <path id="Path_206" data-name="Path 206" d="M-282.115-139.957a12.113,12.113,0,0,0-3.82-3.207,54.706,54.706,0,0,0-26.428-7.844A65.847,65.847,0,0,0-329.25-149.7a50.611,50.611,0,0,0-11.215,3.848,26.856,26.856,0,0,0-9.446,7.967,38.08,38.08,0,0,0-8.53,27.526,20.009,20.009,0,0,0,.209,2.208c6.506-7.953,15.995-14.22,26.15-15.789a15.93,15.93,0,0,1,8.273.51,9.674,9.674,0,0,1,3.215,2.073,24.179,24.179,0,0,1,5.881,7.438l.019.044a1.472,1.472,0,0,0,1.941.751c.063-.017.126-.037.187-.06a2.437,2.437,0,0,0,1.459-3.122,24.3,24.3,0,0,0-1.859-3.744,6.889,6.889,0,0,1-.632-1.724,2.47,2.47,0,0,1-.074-.808,2.476,2.476,0,0,1,2.65-2.292,5.862,5.862,0,0,1,3.286,1.116,40.724,40.724,0,0,1,6.765,5.589,12.229,12.229,0,0,1,1.335,1.715,1.823,1.823,0,0,0,2.04.791,1.6,1.6,0,0,0,1.141-1.671,8,8,0,0,0-1.345-4.258,25.06,25.06,0,0,0-4.583-5.74c-.188-.172-.608-.321-.453-.6.2-.356.615-.175.9-.029a21.941,21.941,0,0,1,4.125,2.992,24.378,24.378,0,0,1,4.842,5.3,4.055,4.055,0,0,0,1.51,1.421,1.728,1.728,0,0,0,1,.284,1.731,1.731,0,0,0,1.677-1.784,5.867,5.867,0,0,0-.977-3.244,39.81,39.81,0,0,0-9-10.388c-.106-.09-.231-.17-.331-.256s-.26-.162-.2-.326c.072-.2.275-.192.428-.157a5.139,5.139,0,0,1,.872.277,27.528,27.528,0,0,1,6.144,4.028c1.965,1.564,3.87,3.2,5.788,4.826a2.054,2.054,0,0,0,2.516.488,2.145,2.145,0,0,0,1.056-2.278,5.6,5.6,0,0,0-1.151-2.749,30.836,30.836,0,0,0-7.22-6.8,55.493,55.493,0,0,0-6.053-3.9c-.2-.111-.557-.153-.457-.494.077-.253.352-.348.6-.411a2.827,2.827,0,0,1,1.248-.027,20.814,20.814,0,0,1,7.783,3.346l1.319.67a20.807,20.807,0,0,0,3.385,1.38,1.629,1.629,0,0,0,1.7-1.559A3.237,3.237,0,0,0-282.115-139.957Z" fill="#f29697" stroke="#f29697" stroke-miterlimit="10" stroke-width="0.25"/>
    </g>
    <g id="Group_2" data-name="Group 2">
      <path id="Path_5" data-name="Path 5" d="M-245.881-121.268a1.129,1.129,0,0,1-.682,1.03,15.591,15.591,0,0,1-6.3,1.152,11.259,11.259,0,0,1-8.64-3.474,12.818,12.818,0,0,1-3.245-9.116,13.435,13.435,0,0,1,3.65-9.8,12.388,12.388,0,0,1,9.257-3.738,16.033,16.033,0,0,1,5.206.746,1.12,1.12,0,0,1,.754,1.058v.648a1.11,1.11,0,0,1-1.11,1.11,1.111,1.111,0,0,1-.4-.074,12.362,12.362,0,0,0-4.486-.808,9.2,9.2,0,0,0-7.062,2.909,10.962,10.962,0,0,0-2.707,7.776,10.428,10.428,0,0,0,2.53,7.361,8.612,8.612,0,0,0,6.639,2.736,13.279,13.279,0,0,0,5.054-.918,1.112,1.112,0,0,1,1.455.6,1.1,1.1,0,0,1,.086.427Z" fill="#0a889c"/>
      <path id="Path_6" data-name="Path 6" d="M-222.236-129.737q0,10.65-9.61,10.65-9.2,0-9.2-10.245v-14.35a1.114,1.114,0,0,1,1.114-1.113h.734a1.113,1.113,0,0,1,1.114,1.113v14.156q0,7.776,6.559,7.776,6.33,0,6.33-7.512v-14.42a1.113,1.113,0,0,1,1.113-1.113h.735a1.114,1.114,0,0,1,1.111,1.113Z" fill="#0a889c"/>
      <path id="Path_7" data-name="Path 7" d="M-203.637-119.51h-11.174a1.114,1.114,0,0,1-1.113-1.114v-23.058a1.113,1.113,0,0,1,1.113-1.113H-204.2a1.114,1.114,0,0,1,1.114,1.113v.453a1.114,1.114,0,0,1-1.114,1.114h-7.646A1.114,1.114,0,0,0-212.962-141h0v6.183a1.114,1.114,0,0,0,1.114,1.114h6.906a1.113,1.113,0,0,1,1.113,1.113v.435a1.113,1.113,0,0,1-1.113,1.113h-6.906a1.115,1.115,0,0,0-1.11,1.111v6.624a1.114,1.114,0,0,0,1.114,1.113h8.211a1.114,1.114,0,0,1,1.113,1.114v.453a1.114,1.114,0,0,1-1.11,1.118Z" fill="#0a889c"/>
      <path id="Path_8" data-name="Path 8" d="M-178.387-119.51H-180.3a1.114,1.114,0,0,1-.936-.51l-12.684-19.645c-.329-.5-.807-.5-.787.511q.012.611.011,1.376v17.153a1.114,1.114,0,0,1-1.114,1.114h-.733a1.114,1.114,0,0,1-1.114-1.114h0v-23.057a1.114,1.114,0,0,1,1.114-1.113h2.12a1.113,1.113,0,0,1,.939.515l12.331,19.322c.529.823.96.457.935-.519q-.018-.678-.018-1.508v-16.7a1.114,1.114,0,0,1,1.114-1.113h.735a1.113,1.113,0,0,1,1.113,1.113v23.058a1.114,1.114,0,0,1-1.111,1.117Z" fill="#0a889c"/>
      <path id="Path_9" data-name="Path 9" d="M-156.8-142.115h-5.072A1.113,1.113,0,0,0-162.99-141h0v20.377a1.114,1.114,0,0,1-1.114,1.114h-.734a1.114,1.114,0,0,1-1.114-1.114h0V-141a1.114,1.114,0,0,0-1.114-1.114h-5.054a1.114,1.114,0,0,1-1.114-1.114h0v-.453a1.113,1.113,0,0,1,1.114-1.113H-156.8a1.114,1.114,0,0,1,1.114,1.113v.453a1.114,1.114,0,0,1-1.114,1.114Z" fill="#0a889c"/>
      <path id="Path_10" data-name="Path 10" d="M-136.844-119.51h0a1.527,1.527,0,0,1-1.428-.987l-1.934-5.115a1.528,1.528,0,0,0-1.428-.986h-8.589a1.525,1.525,0,0,0-1.438,1.015l-1.8,5.059a1.526,1.526,0,0,1-1.438,1.015h0a1.528,1.528,0,0,1-1.526-1.528,1.517,1.517,0,0,1,.1-.545l8.527-22.232a1.526,1.526,0,0,1,1.425-.98h.971a1.527,1.527,0,0,1,1.425.978l8.558,22.232a1.527,1.527,0,0,1-.879,1.973A1.524,1.524,0,0,1-136.844-119.51Zm-6.9-9.751a1.526,1.526,0,0,0,1.526-1.526,1.535,1.535,0,0,0-.094-.528l-3.205-8.717a.469.469,0,0,0-.615-.249.47.47,0,0,0-.249.249l-3.184,8.724a1.526,1.526,0,0,0,.911,1.957,1.524,1.524,0,0,0,.523.092Z" fill="#0a889c"/>
      <path id="Path_11" data-name="Path 11" d="M-245.881-83.678a1.13,1.13,0,0,1-.682,1.03,15.591,15.591,0,0,1-6.3,1.152,11.259,11.259,0,0,1-8.64-3.474,12.818,12.818,0,0,1-3.245-9.116,13.435,13.435,0,0,1,3.65-9.8,12.388,12.388,0,0,1,9.257-3.738,16.06,16.06,0,0,1,5.206.746,1.12,1.12,0,0,1,.754,1.058v.648a1.11,1.11,0,0,1-1.11,1.11,1.111,1.111,0,0,1-.4-.074,12.362,12.362,0,0,0-4.486-.808,9.2,9.2,0,0,0-7.062,2.909,10.962,10.962,0,0,0-2.707,7.776,10.428,10.428,0,0,0,2.53,7.361,8.612,8.612,0,0,0,6.639,2.736,13.279,13.279,0,0,0,5.054-.918,1.112,1.112,0,0,1,1.455.6,1.1,1.1,0,0,1,.086.427Z" fill="#0a889c"/>
      <path id="Path_12" data-name="Path 12" d="M-231.508-81.5a11.1,11.1,0,0,1-8.614-3.544,13.142,13.142,0,0,1-3.236-9.222q0-6.1,3.3-9.733a11.514,11.514,0,0,1,8.975-3.632,10.851,10.851,0,0,1,8.437,3.526,13.189,13.189,0,0,1,3.2,9.222q0,6.19-3.28,9.786A11.3,11.3,0,0,1-231.508-81.5Zm.211-23.451a8.15,8.15,0,0,0-6.471,2.874,12.784,12.784,0,0,0-.061,15.067,7.905,7.905,0,0,0,6.321,2.845,8.3,8.3,0,0,0,6.559-2.716q2.4-2.715,2.4-7.6,0-5.009-2.327-7.74a7.978,7.978,0,0,0-6.423-2.73Z" fill="#0a889c"/>
      <path id="Path_13" data-name="Path 13" d="M-195.214-81.919h-1.911a1.114,1.114,0,0,1-.936-.51l-12.684-19.645c-.329-.5-.822-.733-.8.016q.024.78.024,1.871v17.154a1.114,1.114,0,0,1-1.114,1.114h-.734a1.114,1.114,0,0,1-1.114-1.114h0v-23.058a1.113,1.113,0,0,1,1.113-1.113h2.12a1.113,1.113,0,0,1,.939.515l12.332,19.322c.529.823.953.363.93-.707q-.014-.6-.013-1.32v-16.7a1.114,1.114,0,0,1,1.114-1.113h.734A1.113,1.113,0,0,1-194.1-106.1h0v23.058a1.114,1.114,0,0,1-1.111,1.117Z" fill="#0a889c"/>
      <path id="Path_14" data-name="Path 14" d="M-162.8-81.919h-.717a1.114,1.114,0,0,1-1.114-1.114h0V-98.882q0-2.01.247-4.92h-.07a15.791,15.791,0,0,1-.758,2.451l-8.346,18.77a1.114,1.114,0,0,1-1.018.661h0a1.115,1.115,0,0,1-1.016-.66l-8.328-18.63a15.073,15.073,0,0,1-.763-2.591h-.071q.143,1.517.141,4.955v15.813a1.114,1.114,0,0,1-1.114,1.114h-.629a1.114,1.114,0,0,1-1.113-1.114v-23.058a1.113,1.113,0,0,1,1.113-1.113h2.074a1.115,1.115,0,0,1,1.02.665l7.465,16.967q.551,1.24.864,2.1a.4.4,0,0,0,.51.245.4.4,0,0,0,.218-.185q.538-1.436.894-2.23l7.628-16.906a1.114,1.114,0,0,1,1.015-.656h1.869a1.114,1.114,0,0,1,1.116,1.112h0v23.058a1.114,1.114,0,0,1-1.114,1.114Z" fill="#0a889c"/>
      <path id="Path_15" data-name="Path 15" d="M-153.191-81.919h-.735a1.114,1.114,0,0,1-1.113-1.114v-23.058a1.113,1.113,0,0,1,1.113-1.113h.735a1.114,1.114,0,0,1,1.114,1.113v23.058A1.114,1.114,0,0,1-153.191-81.919Z" fill="#0a889c"/>
      <path id="Path_16" data-name="Path 16" d="M-126.528-84.318a1.107,1.107,0,0,1-.59.988,17,17,0,0,1-7.874,1.833,11.565,11.565,0,0,1-8.754-3.491,12.8,12.8,0,0,1-3.342-9.24,13.144,13.144,0,0,1,3.712-9.636,12.649,12.649,0,0,1,9.406-3.765,16.887,16.887,0,0,1,6.2,1.024,1.128,1.128,0,0,1,.726,1.047v.7a1.108,1.108,0,0,1-1.105,1.111,1.091,1.091,0,0,1-.45-.094,14.046,14.046,0,0,0-5.71-1.113,9.074,9.074,0,0,0-6.965,2.927,12.226,12.226,0,0,0-.194,15.12,8.838,8.838,0,0,0,6.847,2.745,11.023,11.023,0,0,0,4.446-.846,1.13,1.13,0,0,0,.686-1.032v-5.278a1.114,1.114,0,0,0-1.114-1.113h-3.309a1.114,1.114,0,0,1-1.113-1.114V-94a1.114,1.114,0,0,1,1.113-1.114h6.271A1.114,1.114,0,0,1-126.527-94h0Z" fill="#0a889c"/>
      <path id="Path_17" data-name="Path 17" d="M-110.464-81.5a11.1,11.1,0,0,1-8.613-3.544,13.142,13.142,0,0,1-3.236-9.222q0-6.1,3.3-9.733a11.514,11.514,0,0,1,8.975-3.632A10.852,10.852,0,0,1-101.6-104.1a13.194,13.194,0,0,1,3.2,9.222q0,6.19-3.28,9.786A11.3,11.3,0,0,1-110.464-81.5Zm.212-23.451a8.15,8.15,0,0,0-6.471,2.874,12.784,12.784,0,0,0-.061,15.067,7.9,7.9,0,0,0,6.32,2.845,8.3,8.3,0,0,0,6.56-2.716q2.4-2.715,2.4-7.6,0-5.009-2.327-7.74a7.978,7.978,0,0,0-6.421-2.73Z" fill="#0a889c"/>
    </g>
  </g>
</svg>
